<svg id="Group_57" data-name="Group 57" xmlns="http://www.w3.org/2000/svg" xmlns:xlink="http://www.w3.org/1999/xlink" width="381.5" height="443.888" viewBox="0 0 381.5 443.888">
  <defs>
    <linearGradient id="linear-gradient" x1="0.507" y1="0.036" x2="0.507" y2="1.37" gradientUnits="objectBoundingBox">
      <stop offset="0" stop-color="#9466ff" stop-opacity="0.776"/>
      <stop offset="1" stop-color="#78dfff" stop-opacity="0"/>
    </linearGradient>
    <linearGradient id="linear-gradient-2" x1="0.5" x2="0.5" y2="1" gradientUnits="objectBoundingBox">
      <stop offset="0" stop-color="#ffc532"/>
      <stop offset="1" stop-color="#ff851f"/>
    </linearGradient>
    <linearGradient id="linear-gradient-5" x1="0.5" y1="0.038" x2="0.5" y2="1" gradientUnits="objectBoundingBox">
      <stop offset="0" stop-color="#50d3ff"/>
      <stop offset="1" stop-color="#67f5af"/>
    </linearGradient>
    <linearGradient id="linear-gradient-8" x1="0.5" x2="0.5" y2="0.998" gradientUnits="objectBoundingBox">
      <stop offset="0" stop-color="#1d36a0"/>
      <stop offset="1" stop-color="#0e0e55"/>
    </linearGradient>
  </defs>
  <g id="Oval">
    <path id="Oval-2" data-name="Oval" d="M-154.926,357.588c-100.692-10.256-184.035-84.162-220.553-178.366S-274.505,4.77-175.476.172,0,83.716,0,184.11-54.234,367.844-154.926,357.588Z" transform="translate(381.5)" fill="none"/>
    <path id="Oval-3" data-name="Oval" d="M-154.926,357.588c-100.692-10.256-184.035-84.162-220.553-178.366S-274.505,4.77-175.476.172,0,83.716,0,184.11-54.234,367.844-154.926,357.588Z" transform="translate(381.5)" fill="url(#linear-gradient)"/>
  </g>
  <g id="Image" transform="translate(12 129)">
    <g id="image-2" data-name="image">
      <path id="Fill_1" data-name="Fill 1" d="M.545,0c.059-.035.43.456.979,1.422A25.014,25.014,0,0,1,3.4,5.734,39.3,39.3,0,0,1,5.035,21.1,77.227,77.227,0,0,1,2.079,36.244C.977,40.027.166,42.323.026,42.285s.393-2.419,1.3-6.239a100.62,100.62,0,0,0,2.61-15.032A43.64,43.64,0,0,0,2.65,5.964C1.6,2.216.372.092.545,0" transform="translate(283.875 272.603)" fill="#fff"/>
      <path id="Fill_3" data-name="Fill 3" d="M.01,0A12.027,12.027,0,0,1,1.276,2.309c.748,1.517,1.8,3.727,3.042,6.485a148.158,148.158,0,0,1,8.193,22.2,84.519,84.519,0,0,1,2.4,12.846,63.68,63.68,0,0,1,.248,10.674,48.418,48.418,0,0,1-.95,7.13,10.687,10.687,0,0,1-.718,2.54c-.2-.039.7-3.694.888-9.706a80.825,80.825,0,0,0-2.934-23.2A183,183,0,0,0,3.6,9.1C2.453,6.31,1.525,4.048.883,2.485A12.115,12.115,0,0,1,.01,0" transform="translate(288.134 242.314)" fill="#fff"/>
      <path id="Fill_5" data-name="Fill 5" d="M9.57.006C9.7.143,8.445,1.34,6.82,3.562c-.4.558-.842,1.169-1.252,1.866-.449.672-.839,1.443-1.273,2.238A33.712,33.712,0,0,0,2.13,13.14a33.72,33.72,0,0,0-1.073,5.788C1,19.833.925,20.694.947,21.5c-.023.809.024,1.561.069,2.249.2,2.747.623,4.428.441,4.477-.11.038-.811-1.586-1.218-4.4A19.63,19.63,0,0,1,.032,21.52a26.206,26.206,0,0,1,.01-2.667,29.8,29.8,0,0,1,1.027-6.019A29.7,29.7,0,0,1,3.4,7.189,25.554,25.554,0,0,1,4.8,4.925,19.419,19.419,0,0,1,6.2,3.08C8.042.916,9.5-.085,9.57.006" transform="translate(140.803 218.333)" fill="#fff"/>
      <path id="Fill_7" data-name="Fill 7" d="M5.854.022c.092.148-.605.683-1.517,1.706A13.787,13.787,0,0,0,2.911,3.647,14.9,14.9,0,0,0,1.668,6.28a14.8,14.8,0,0,0-.642,2.841,13.7,13.7,0,0,0-.058,2.391c.088,1.368.31,2.221.145,2.28C1,13.842.5,13.062.194,11.616A10.277,10.277,0,0,1,.012,9.035,12.373,12.373,0,0,1,.624,5.919,12.376,12.376,0,0,1,2.06,3.088,10.212,10.212,0,0,1,3.791,1.169C4.92.217,5.792-.091,5.854.022" transform="translate(147.459 228.014)" fill="#fff"/>
      <path id="Fill_9" data-name="Fill 9" d="M.009,0c.057-.05.552.437,1.4,1.367A21.317,21.317,0,0,1,2.887,3.124c.544.708,1.2,1.494,1.813,2.439l1,1.464c.343.512.653,1.073,1,1.639C7.4,9.79,8.036,11.059,8.726,12.383a61.071,61.071,0,0,1,3.54,9.04A61.171,61.171,0,0,1,14.2,30.938c.139,1.488.3,2.9.311,4.227.017.664.06,1.3.051,1.92s-.028,1.206-.041,1.77c0,1.129-.126,2.144-.2,3.036a21.373,21.373,0,0,1-.29,2.275,6.675,6.675,0,0,1-.433,1.911c-.195-.026.172-2.78.142-7.23q-.016-.835-.031-1.745c-.013-.607-.077-1.236-.113-1.888-.055-1.306-.243-2.69-.406-4.149a68.223,68.223,0,0,0-1.984-9.328,68.2,68.2,0,0,0-3.4-8.911c-.654-1.313-1.248-2.577-1.91-3.7-.324-.567-.612-1.13-.929-1.646S4.343,6.467,4.05,6C1.661,2.243-.142.132.009,0" transform="translate(112.488 127.737)" fill="#fff"/>
      <path id="Fill_11" data-name="Fill 11" d="M.012,0C.106-.08,1.375,1.109,2.989,3.4a32.823,32.823,0,0,1,2.5,4.236,37.924,37.924,0,0,1,2.2,5.618,37.977,37.977,0,0,1,1.2,5.913,32.863,32.863,0,0,1,.2,4.917c-.112,2.8-.532,4.49-.656,4.471-.178-.022-.035-1.732-.125-4.472A43.925,43.925,0,0,0,7.88,19.3a45.885,45.885,0,0,0-1.254-5.732A45.788,45.788,0,0,0,4.57,8.075,43.928,43.928,0,0,0,2.333,3.826C.921,1.477-.125.119.012,0" transform="translate(124.994 132.921)" fill="#fff"/>
      <path id="Fill_13" data-name="Fill 13" d="M27.733,1.967,26.772,0,0,20.491,11.68,39.444l26.65-22.508Z" transform="translate(53.468 221.512)" fill="url(#linear-gradient-2)"/>
      <path id="Fill_15" data-name="Fill 15" d="M0,0,10.261,17.775l.656-.293L1.779.862Z" transform="translate(54.59 242.441)" fill="#d7d4d4"/>
      <path id="Fill_17" data-name="Fill 17" d="M26.083,0,0,19.351a1.167,1.167,0,0,0,.757.672,2.1,2.1,0,0,0,1.023.191L29.2,1.414a8.266,8.266,0,0,1-2.154-.8A6.467,6.467,0,0,0,26.083,0" transform="translate(54.59 223.09)" fill="url(#linear-gradient-2)"/>
      <path id="Fill_19" data-name="Fill 19" d="M28.582,0,0,19.124,9.283,36.747l1.5,2.441L39.361,18s-3.01-4.5-4.818-7.218-5.356-9.127-5.549-9.537A9.8,9.8,0,0,1,28.582,0" transform="translate(55.88 223.745)" fill="url(#linear-gradient-2)"/>
      <path id="Fill_21" data-name="Fill 21" d="M8.9,1.652,9.7,0,32.186,17.207,22.378,33.123,0,14.222Z" transform="translate(311.269 90.066)" fill="#775298"/>
      <path id="Fill_23" data-name="Fill 23" d="M9.167,0,.552,14.926,0,14.68,7.673.724Z" transform="translate(333.346 107.641)" fill="#d7d4d4"/>
      <path id="Fill_25" data-name="Fill 25" d="M2.619,0l21.9,16.25a.982.982,0,0,1-.635.564,1.763,1.763,0,0,1-.86.16L0,1.187A6.912,6.912,0,0,0,1.809.518,5.421,5.421,0,0,1,2.619,0" transform="translate(317.992 91.39)" fill="#f5f3f3"/>
      <path id="Fill_27" data-name="Fill 27" d="M9.052,0l24,16.058-7.795,14.8L24,32.907,0,15.112s2.529-3.78,4.046-6.062,4.5-7.664,4.659-8.009A8.244,8.244,0,0,0,9.052,0" transform="translate(308.378 91.941)" fill="url(#linear-gradient-5)"/>
      <path id="Fill_29" data-name="Fill 29" d="M1.087,0A2.581,2.581,0,0,0,.237,3.139c.849,1.962,4.57,7.782,9.6,7.586C10.04,10.717,3.5,0,3.5,0Z" transform="translate(48.153 60.748)" fill="#ff7b5b"/>
      <path id="Fill_31" data-name="Fill 31" d="M24.3,4.738S18.01-.887,16,.121C13.539,1.352-.534,15.165.016,21.672c.226,2.665,3.323.382,8.842-5.353A12.331,12.331,0,0,1,21.33,13.043Z" transform="translate(17.253 163.306)" fill="url(#linear-gradient-5)"/>
      <path id="Fill_33" data-name="Fill 33" d="M24.512,4.56,16.923,0S-2.747,18.473.326,20.936c2.331,1.868,3.7.193,9.221-5.542s12.512-2.436,12.512-2.436Z" transform="translate(32.31 172.971)" fill="url(#linear-gradient-5)"/>
      <path id="Fill_35" data-name="Fill 35" d="M30.167,0,31.59,20.243,0,12Z" transform="translate(73.012 116.757)" fill="#f3a683"/>
      <path id="Fill_37" data-name="Fill 37" d="M4.069,0S31.7,1.745,35.381.515c0,0,5.4,53.141-4.208,58.874S0,56.727,0,56.727L5.822,45.259l12.553-.819V23.961l-.9.2Z" transform="translate(68.942 129.452)" fill="url(#linear-gradient-8)"/>
      <path id="Fill_39" data-name="Fill 39" d="M5.149,36.248s-6.95,2.867-4.7,9.831c0,0,23.725,18.636,35.27,14.335C42.186,58,49.133,39.622,53.994,23.918L71.1.515s-8.067.4-10.758.394C55.2.889,39.787,0,39.787,0S31.738,42.188,28.87,43.212s-23.72-6.963-23.72-6.963" transform="translate(33.225 129.452)" fill="url(#linear-gradient-8)"/>
      <path id="Fill_41" data-name="Fill 41" d="M0,59.393S16.56,43.829,19.422,39.732s9-17.817,16.559-23.551L32.3,8.4s2.25-1.228,3.679,2.047c0,0,5.315-10.648,6.542-10.444S40.07,8.2,40.07,8.2,45.182.822,46.613,1.027s-3.68,8.288-3.68,8.288,5.723-6.65,6.542-5.831-4.5,5.831-4.5,5.831S50.7,6.024,51.314,7.109s-5.724,3.953-5.724,3.953-.613,4.71-4.5,6.758c0,0-7.691,20.814-14.642,27.572L4.122,68.638Z" transform="translate(79.451 17.146)" fill="#ffc6b2"/>
      <path id="Fill_43" data-name="Fill 43" d="M59.683,0S43.992,16.442,39.876,19.27,22.007,28.115,16.213,35.638L8.479,31.879s-1.247,2.241,2.01,3.7c0,0-10.68,5.225-10.486,6.456s8.2-2.381,8.2-2.381S.795,44.71.986,46.145s8.307-3.609,8.307-3.609-6.691,5.671-5.881,6.5,5.862-4.449,5.862-4.449-3.34,5.7-2.261,6.327,4-5.7,4-5.7,4.707-.569,6.789-4.441c0,0,19.681-7.844,26.493-14.744L68.785,8.645Z" transform="translate(0 84.606)" fill="#ffc6b2"/>
      <path id="Fill_45" data-name="Fill 45" d="M7.936,5.3,0,13.085l2.013,8.773s7.819,18.8,9,23.39c1.837,7.133-1.135,18.009-1.135,18.009s13.255-1.1,25.316-1.512,16.006-4.3,16.006-4.3S40.743,22.556,33.523,12.8,23.677,0,23.677,0L13.047,2.328Z" transform="translate(57.629 72.75)" fill="#fff"/>
      <path id="Fill_47" data-name="Fill 47" d="M12.133,17.651,20.4,12.359S21.665,6.688,11.693,0L0,7.34Z" transform="translate(76.723 66.752)" fill="#fff"/>
      <path id="Fill_49" data-name="Fill 49" d="M13.741.165C9.208.8.924,12.312,0,12.29c0,0,5.83,9.531,10.449,9.84,0,0,20.324-24.358,3.293-21.965" transform="translate(45.56 85.054)" fill="#fff"/>
      <path id="Fill_51" data-name="Fill 51" d="M25.236,25.828s-6.589-4.932-6.361-6.9c.058-.5.971-1.3,1.208-2.013C21.361,13.078,15.2,3.185,11.416,1.1,8.439-.541,9.744-.686,3.478,3.044s-2.7,10.18.1,13.516a12.333,12.333,0,0,0,8.4,4.732l3.876,8.623Z" transform="translate(50.068 51.903)" fill="#ffc6b2"/>
      <path id="Fill_53" data-name="Fill 53" d="M.333,9.416C-.913,6.354,1.447,2.5,5.6.8S14.143.2,15.392,3.264s-2.939,7.664-5.275,8.618S1.579,12.477.333,9.416" transform="translate(63.081 75.161)" fill="#ffc6b2"/>
      <path id="Fill_55" data-name="Fill 55" d="M2.384,0S.247-.116.01,1.31s3.917,1.427,5.461.357Z" transform="translate(51.264 68.461)" fill="#ffc6b2"/>
      <path id="Fill_57" data-name="Fill 57" d="M8.747,24.166c-.406-2.578-3.149-4.5-3.012-7.007,1.315.01,2.159-1.621,1.561-3.015-.236-.548-.634-1.016-.889-1.557s-.322-1.247.068-1.552a1.282,1.282,0,0,1,.675-.193c1.949-.2,5.288.385,7.082-.281,1.708-.634,3.538-1.867,3.36-3.963-.155-1.825-1.764-3.3-3.242-4.423C13.5,1.534,11.084-.143,10.171.01,8.778.242,8.44,2.1,8.34,3.662a2.417,2.417,0,0,0-3.26-.024A6.846,6.846,0,0,0,3.462,6.756a7.076,7.076,0,0,1-1.6,3.136c-.779.718-2.012,1.262-1.85,2.484.192,1.456,2.091,1.974,2.969,3.216-.216-.3-.4,1.64-.275,1.969a8.6,8.6,0,0,0,1.986,2.41c1.44,1.619,2.144,3.249,4.052,4.194" transform="translate(45.97 45.606)" fill="url(#linear-gradient-2)"/>
      <path id="Fill_59" data-name="Fill 59" d="M4.869,0,0,2.523S5.849,6.775,4.869,0" transform="translate(61.787 63.876)" fill="#fff"/>
      <path id="Fill_61" data-name="Fill 61" d="M2.805.446c.266.506-.128,1.237-.88,1.633s-1.577.308-1.843-.2S.211.645.962.248s1.577-.308,1.843.2" transform="translate(57.152 64.43)" fill="#ffb2a0"/>
      <path id="Fill_63" data-name="Fill 63" d="M2.805.446c.266.506-.128,1.237-.88,1.633s-1.577.308-1.843-.2S.211.644.962.248s1.577-.308,1.843.2" transform="translate(64.262 59.565)" fill="#ffb2a0"/>
      <path id="Fill_65" data-name="Fill 65" d="M3.22,4.074c-.023-.028.068-.148.279-.3a5.2,5.2,0,0,0,.81-.6c.257-.271.35-.838-.044-.917-.409-.139-.874.331-1.407.778l-.392.325a.865.865,0,0,1-.638.241,1.435,1.435,0,0,1-.909-.642A4.448,4.448,0,0,1,.162,1.49C-.1.582.019,0,.081,0,.169,0,.2.56.53,1.359a4.884,4.884,0,0,0,.782,1.274c.178.216.4.417.56.424.067,0,.119-.019.244-.125L2.5,2.606c.269-.217.5-.437.808-.642a1.3,1.3,0,0,1,1.1-.2.838.838,0,0,1,.575.913,1.283,1.283,0,0,1-.4.766,3.209,3.209,0,0,1-.986.519c-.232.088-.359.143-.383.111" transform="translate(60.038 59.623)" fill="#ff7b5b"/>
      <path id="Fill_67" data-name="Fill 67" d="M0,1.022S3.106,1.04,4.791,0A7.223,7.223,0,0,1,.513,2.209Z" transform="translate(62.049 72.173)" fill="#ffa192"/>
      <path id="Fill_69" data-name="Fill 69" d="M1.89.229c-.028.154-.462.2-.921.4s-.8.468-.931.381C-.1.944.124.388.753.123S1.931.084,1.89.229" transform="translate(61.506 59.013)" fill="url(#linear-gradient-8)"/>
      <path id="Fill_71" data-name="Fill 71" d="M.035,1.678C-.083,1.591.1,1.09.548.588S1.579-.095,1.64.049,1.352.513.956.963s-.794.81-.921.715" transform="translate(57.275 61.564)" fill="url(#linear-gradient-8)"/>
      <path id="Fill_73" data-name="Fill 73" d="M.206,2.9C-.046,2.718-.242,1.918.722.84c.972-1.1,2.058-.908,2.189-.6s-.222.728-1.075,1.7S.479,3.109.206,2.9" transform="translate(54.743 59.564)" fill="#ff7b5b"/>
      <path id="Fill_75" data-name="Fill 75" d="M.042,1.77C-.1,1.509.057.75,1.309.221,2.58-.326,3.426.277,3.414.59s-.481.53-1.6,1.012S.192,2.055.042,1.77" transform="translate(60.021 56.453)" fill="#ff7b5b"/>
      <path id="Fill_77" data-name="Fill 77" d="M32.473.011c.082.081-1.267,1.6-4.067,3.258A24.614,24.614,0,0,1,16.286,6.6,24.614,24.614,0,0,1,4.118,3.449C1.295,1.835-.077.334,0,.251.12.1,1.654,1.369,4.481,2.756a26.705,26.705,0,0,0,11.8,2.739A26.715,26.715,0,0,0,28.033,2.582c2.805-1.428,4.322-2.717,4.44-2.57" transform="translate(294.786 65.767)" fill="#775298"/>
      <path id="Fill_79" data-name="Fill 79" d="M28.27,5.2c-.076.168-1.57-.453-4.087-1.015a43.743,43.743,0,0,0-4.471-.736c-1.7-.188-3.582-.338-5.568-.48s-3.888-.3-5.616-.514A36.236,36.236,0,0,1,3.971,1.61C1.4.939-.049.145,0,.033.068-.137,1.6.386,4.138.844c1.268.242,2.8.43,4.5.6s3.594.284,5.583.424,3.9.325,5.621.573a31.687,31.687,0,0,1,4.537.99C26.923,4.209,28.327,5.1,28.27,5.2" transform="translate(268.459 58.278)" fill="#775298"/>
      <g id="Group_83" data-name="Group 83" transform="translate(256.195 20.757)">
        <path id="Clip_82" data-name="Clip 82" d="M0,0H100.247V49.2H0Z" transform="translate(0.177 0.053)" fill="none"/>
        <path id="Fill_81" data-name="Fill 81" d="M10.083,9.965c4.771-1.014,9.715-.141,14.525.662s9.806,1.527,14.51.234C47.611,8.526,54.058-.069,62.865,0c3.626.028,7.044,1.579,10.577,2.4,4.387,1.02,8.957.91,13.4,1.637S95.879,6.556,98.391,10.3c2.98,4.444,2.163,10.712-.964,15.053s-8.135,6.986-13.265,8.484c-3.579,1.045-7.392,1.649-10.489,3.728-3.133,2.1-5.178,5.488-8.1,7.879-7.324,6-18.722,4.28-26.288-1.411a37.78,37.78,0,0,0-5.8-4.135c-8.686-4.259-21.179,1.379-28.66-6.37-7.6-7.87-6.514-21.062,5.253-23.562" transform="translate(0.177 0.053)" fill="url(#linear-gradient-5)"/>
      </g>
      <path id="Fill_84" data-name="Fill 84" d="M0,3.8S7.959,20.892,8.89,17.728s.622-10.765.123-11.85S5.259,0,5.259,0Z" transform="translate(264.072 179.386)" fill="#ffb2a0"/>
      <path id="Fill_86" data-name="Fill 86" d="M1.678,10.741c.737.945.244-.07,1.078,1.293A8.616,8.616,0,0,0,8.548,8.975s5.5.146,5.437-.838-5.273-.618-5.273-.618,5.512-1.734,5.209-2.6S7.257,6.813,7.257,6.813s6.421-3.993,5.472-4.633S5.6,5.027,5.6,5.027,10.973.609,10.168.04,1.917,5.22,1.917,5.22C2.025,2.392,0,2.491,0,2.491L.084,9.4a12.258,12.258,0,0,1,1.594,1.343" transform="translate(319.941 34.272)" fill="#ffc6b2"/>
      <path id="Fill_88" data-name="Fill 88" d="M7.557,13.753c-1.177.217-.265-.193-1.792.275-2.509-2.4-2.177-6.164-2.177-6.164S-.62,4.315.078,3.621,4.431,6.667,4.431,6.667,1.46,1.7,2.26,1.257,5.989,7.106,5.989,7.106,3.832-.15,4.966,0,8.409,6.869,8.409,6.869,7.322,0,8.3.1s2.739,9.362,2.739,9.362C12.83,7.278,14.279,8.7,14.279,8.7L9.733,13.707a17.4,17.4,0,0,0-2.176.046" transform="translate(232.527 0)" fill="#ffc6b2"/>
      <path id="Fill_90" data-name="Fill 90" d="M8.216.018c-1.522-.25-5.2,2.2-7.044,6.193a9.949,9.949,0,0,0-.557,8.141c.557,1.71,1.723,1.924,1.984,2.69.329.97-.761,4.026-.761,4.026l4.344,1.757c.282-2.1.6-4.212,2.739-5.124a22.18,22.18,0,0,0,2.409-.991c2.035-1.169,3.122-3.725,3.958-5.819C15.913,9.329,12.032.644,8.216.018" transform="translate(260.419 42.586)" fill="#ffc6b2"/>
      <path id="Fill_92" data-name="Fill 92" d="M28.789,2.925,21.51,0S-.09,40.125,0,51.258,29.667,84.679,29.667,84.679l4.988-4.319S25.523,64.41,20.642,58.787,28.789,2.925,28.789,2.925" transform="translate(234.675 99.026)" fill="#ffb2a0"/>
      <path id="Fill_94" data-name="Fill 94" d="M4.526,8.532S20.568.907,17.344.234s-10.762.254-11.8.84S0,5.3,0,5.3Z" transform="translate(295.075 139.128)" fill="#ffc6b2"/>
      <path id="Fill_96" data-name="Fill 96" d="M18.829,0,7.788,4.024S-3.257,52.686.96,60.326s16.056,2.585,32.92-6.634l14.126-7.724-4.715-3.144S26.853,46.05,22.237,49.267c0,0,2.409-6.837,5.621-16.489S33.285,13.272,18.829,0" transform="translate(251.784 101.604)" fill="#ffc6b2"/>
      <path id="Fill_98" data-name="Fill 98" d="M0,5.571C0,2.338,1.039,0,4.266,0s7.689,1.133,7.689,4.367-2.543,8.485-5.772,8.485S0,8.806,0,5.571" transform="translate(257.022 62.88)" fill="#ffc6b2"/>
      <path id="Fill_100" data-name="Fill 100" d="M22.081,49.489S12.045,38.609,10.037,27.951,4.618,0,4.618,0L.8,1.1S-1,24.735.8,28.353,11.437,56.071,14.125,62.4Z" transform="translate(237.49 12.928)" fill="#ffc6b2"/>
      <path id="Fill_102" data-name="Fill 102" d="M0,27.492s.772-3.384,13.463-7.984S50.1,0,50.1,0l2.389,2.738S39.477,17.791,31.908,20.431,8.264,33.483,6.61,34.315c-2.5,1.261-2.471,2.846-6.61-6.824" transform="translate(270.354 43.405)" fill="#ffc6b2"/>
      <path id="Combined_Shape" data-name="Combined Shape" d="M5.865,50.5c-2.4-3.873-2.41-25.16-2.41-25.16A28.167,28.167,0,0,1,4.4,17.82L0,8.641S.72,2.28,9.944,0A16.835,16.835,0,0,0,11.9,4.432a14.281,14.281,0,0,0,3.986,2.522l.009,0v0l0,0-.022.024c-.341.526-5.343,8.323-3.218,9.5,11.319,6.3,8.191-8.349,8.191-8.349l1.08.209q.085-.014.183-.022c1.613-.134,14.076-.888,14.076-.888C42.776,14.3,40,20.061,40,20.061l-7.285,1.5-8.02,24.116S19.75,49.447,14.643,50.5a22.084,22.084,0,0,1-4.441.446A19.2,19.2,0,0,1,5.865,50.5Z" transform="translate(245.919 55.931)" fill="url(#linear-gradient-8)"/>
      <path id="Fill_110" data-name="Fill 110" d="M17.609,3.386S2.5,31.375,0,36.376c0,0,44.584,20.516,62.682-4.179,0,0-10.3-21.828-26.211-30.137L29.606,0,17.877,3.252" transform="translate(234.149 97.859)" fill="url(#linear-gradient-8)"/>
      <path id="Fill_112" data-name="Fill 112" d="M1.059.952S2.78-.773,3.839.421,0,3.339,0,3.339Z" transform="translate(274.063 52.262)" fill="#ffc6b2"/>
      <path id="Fill_114" data-name="Fill 114" d="M48.024,2.054a5.79,5.79,0,0,1-1.918.65,26.375,26.375,0,0,1-5.48.63,54.2,54.2,0,0,1-8.143-.573c-3.039-.4-6.339-1-9.812-1.376a37.364,37.364,0,0,0-9.753.039,21.9,21.9,0,0,0-7.463,2.57A16.675,16.675,0,0,0,1.308,7.357C.468,8.315.091,8.927.005,8.876A5.076,5.076,0,0,1,.972,7.088,14.838,14.838,0,0,1,5.051,3.325,21.406,21.406,0,0,1,12.75.417,35.937,35.937,0,0,1,22.79.284C26.32.67,29.625,1.3,32.628,1.751a63.777,63.777,0,0,0,8,.8c4.581.128,7.353-.686,7.395-.5" transform="translate(258.586 27.641)" fill="#775298"/>
      <path id="Fill_116" data-name="Fill 116" d="M2.16,4.3c0,.068-.5.115-1.244-.134a1.66,1.66,0,0,1-.607-.337A.989.989,0,0,1,.058,3.46a.829.829,0,0,1,.006-.626c.024-.036.023-.122.07-.124l.146,0a1.059,1.059,0,0,1,.311.038,2.436,2.436,0,0,0,.4.042,3.194,3.194,0,0,0,.758-.077A3.074,3.074,0,0,0,3.809,1.1c.329-.631.358-1.105.445-1.1.062-.008.184.5-.088,1.257A3.179,3.179,0,0,1,3.4,2.433a3.206,3.206,0,0,1-1.528.815,3.349,3.349,0,0,1-.9.078,3.468,3.468,0,0,1-.388-.045C.53,3.273.536,3.261.526,3.267A.041.041,0,0,0,.517,3.3a.539.539,0,0,0,.117.2,1.419,1.419,0,0,0,.433.3c.647.318,1.106.412,1.094.5" transform="translate(264.195 47.936)" fill="#ff7b5b"/>
      <path id="Fill_118" data-name="Fill 118" d="M0,0,5.886,2.323S.713,5.9,0,0" transform="translate(262.772 52.421)" fill="#fff"/>
      <path id="Fill_120" data-name="Fill 120" d="M2.205,1.479c-.209.4-.857.467-1.448.155S-.143.748.065.351.923-.117,1.514.195s.9.886.691,1.284" transform="translate(268.965 52.06)" fill="#ffb2a0"/>
      <path id="Fill_122" data-name="Fill 122" d="M2.266,1.369c-.178.412-.819.532-1.432.266S-.132.82.046.407.866-.124,1.478.142s.966.815.787,1.228" transform="translate(262.336 48.681)" fill="#ffb2a0"/>
      <path id="Fill_124" data-name="Fill 124" d="M0,0S2.063,1.731,4.216,1.174c0,0-.742,1.115-3.6.706A2.043,2.043,0,0,0,0,0" transform="translate(262.422 58.887)" fill="#ffa192"/>
      <path id="Fill_126" data-name="Fill 126" d="M.933.467A.466.466,0,1,1,.466,0,.467.467,0,0,1,.933.467" transform="translate(269.673 49.369)" fill="url(#linear-gradient-8)"/>
      <path id="Fill_128" data-name="Fill 128" d="M.932.467A.466.466,0,1,1,.466,0,.467.467,0,0,1,.932.467" transform="translate(265.858 47.992)" fill="url(#linear-gradient-8)"/>
      <path id="Fill_130" data-name="Fill 130" d="M1.673,1.263C1.53,1.324,1.251.987.83.714S0,.3,0,.144s.57-.271,1.137.11.68.964.536,1.009" transform="translate(270.431 47.328)" fill="#775298"/>
      <path id="Fill_132" data-name="Fill 132" d="M0,.427C-.01.281.491.1,1.162.115S2.349.462,2.279.6,1.739.68,1.14.669.01.586,0,.427" transform="translate(265.379 45.898)" fill="#775298"/>
      <path id="Fill_134" data-name="Fill 134" d="M0,8.862s2.448,8.705,4.976,7.992S5.6,3.993,5.6,3.993L3.081,0S5.451,20.337,0,8.862" transform="translate(267.48 181.271)" fill="url(#linear-gradient-8)"/>
      <path id="Fill_136" data-name="Fill 136" d="M0,2.959A7.856,7.856,0,0,1,3.938.689C6.1.365,13.812-.554,14.945.472s-6.253,4.47-6.253,4.47S11.266,3.3,10.2,2.689C8.308,1.607,0,2.959,0,2.959" transform="translate(298.353 138.913)" fill="url(#linear-gradient-8)"/>
      <path id="Fill_138" data-name="Fill 138" d="M0,.66,2.415,5.572l1.318-.733L.512,0Z" transform="translate(295.292 143.543)" fill="url(#linear-gradient-8)"/>
      <path id="Fill_140" data-name="Fill 140" d="M5.929,0,0,5.353,1.757,6.82,6.734,1.393Z" transform="translate(262.354 177.417)" fill="url(#linear-gradient-8)"/>
      <path id="Fill_142" data-name="Fill 142" d="M20.016,52.421c-1.686-4.192-2.334-8.858-4.85-12.609-3.621-5.4-10.575-8.075-13.513-13.875A17.932,17.932,0,0,1,0,17.894C-.024,12.43,1.609,6.621,5.822,3.149,10.664-.841,17.927-.786,23.6,1.895s10,7.546,13.683,12.629,6.908,10.535,11.2,15.115c3.18,3.4,6.952,6.324,9.347,10.314,6.567,10.937-.19,24.776-11.783,28.723-10.187,3.467-22.5-7.491-26.026-16.255" transform="translate(124.311 71.706)" fill="url(#linear-gradient-8)"/>
      <path id="Fill_144" data-name="Fill 144" d="M12.383,2.217c1.008.83-.092.255,1.375,1.212-.327,3.67-3.716,5.983-3.716,5.983S9.9,15.256,8.81,15.136s-.392-5.627-.392-5.627S6.186,15.265,5.242,14.9s2.472-6.97,2.472-6.97-4.787,6.6-5.445,5.56S5.825,6.08,5.825,6.08.624,11.542.036,10.658,6.243,2.179,6.243,2.179C3.1,2.144,3.321,0,3.321,0l7.659.455a13.1,13.1,0,0,0,1.4,1.762" transform="translate(117.432 199.047)" fill="#ffc6b2"/>
      <path id="Fill_146" data-name="Fill 146" d="M8.036,14.584c1.311.23.293-.2,1.994.291a8.535,8.535,0,0,0,2.423-6.536s4.684-3.763,3.908-4.5-4.845,3.228-4.845,3.228,3.306-5.262,2.417-5.736-4.15,6.2-4.15,6.2S12.182-.159,10.92,0,7.089,7.284,7.089,7.284,8.3,0,7.21.11,4.36,9.773,4.36,9.773C1.8,7.682,0,9.021,0,9.021l5.614,5.514a20.429,20.429,0,0,1,2.422.049" transform="translate(194.951 76.471)" fill="#ffc6b2"/>
      <path id="Fill_148" data-name="Fill 148" d="M7.446.02c2.37-.371,9.6,4.32,7.757,13.846a34.225,34.225,0,0,1-1.456,3.289c-.328.922,2.228,4.3,2.228,4.3l-6.6,2.112c-.281-2,.192-4.915-1.94-5.782a22.828,22.828,0,0,1-2.4-.942C3,15.73,1.915,13.3,1.08,11.308A12,12,0,0,1,0,6.607C.044,2.542,3.637.616,7.446.02" transform="translate(163.475 122.949)" fill="#ffc6b2"/>
      <path id="Fill_150" data-name="Fill 150" d="M13.013,4.738C13.013,1.309,11.927,0,8.335,0S0,1.309,0,4.738s2.537,7.721,6.131,7.721,6.882-4.291,6.882-7.721" transform="translate(171.123 144.321)" fill="#ffc6b2"/>
      <path id="Fill_152" data-name="Fill 152" d="M0,52.479S11.171,40.942,13.405,29.64,19.437,0,19.437,0l4.245,1.166s2.012,25.062,0,28.9S10.277,60.56,10.5,67.383Z" transform="translate(181.299 90.18)" fill="#ffc6b2"/>
      <path id="Fill_154" data-name="Fill 154" d="M33.291,0s-3.8.64-9.608,13.861S0,51.695,0,51.695l2.905,2.68s17.427-13.006,20.778-20.9,7.6-17.7,9.608-17.273,10.5-11.3,0-16.206" transform="translate(128.095 148.245)" fill="#ffc6b2"/>
      <path id="Fill_156" data-name="Fill 156" d="M11.683,23.544l5.2-14.381S16.082,2.418,5.816,0L0,8.394Z" transform="translate(179.61 135.782)" fill="url(#linear-gradient-2)"/>
      <path id="Fill_158" data-name="Fill 158" d="M11.11,0S4.974.518,0,11.462c0,0,5.47,7.565,9.472,7.82,0,0,14.863-12.726,1.639-19.282" transform="translate(152.01 147.142)" fill="url(#linear-gradient-2)"/>
      <path id="Fill_160" data-name="Fill 160" d="M10.561,4.034S1.7,22.154.667,18.8-.025,7.384.529,6.233,4.708,0,4.708,0Z" transform="translate(169.42 272.888)" fill="#ffc6b2"/>
      <path id="Fill_162" data-name="Fill 162" d="M6.53,3.1l8.1-3.1S38.672,42.55,38.572,54.356,5.553,89.8,5.553,89.8L0,85.216S15.6,62.235,21.036,56.271C23.753,53.289,4.3,38.673,1.357,24.61S6.53,3.1,6.53,3.1" transform="translate(174.128 187.672)" fill="url(#linear-gradient-8)"/>
      <path id="Fill_164" data-name="Fill 164" d="M15.9,6.144S-.668,18.379.021,14.945,4.884,4.494,5.93,3.714,12.635,0,12.635,0Z" transform="translate(116.05 261.285)" fill="#ffc6b2"/>
      <path id="Combined_Shape-2" data-name="Combined Shape" d="M0,78.875S25.052,63.923,32.745,61c4.783-1.821,2.531-15.9.143-26.291a69.492,69.492,0,0,1-3.734-12.795C25.706,4.739,43.88,0,43.88,0l4.948,4.113L59.211,5.4,53.959,16.423C53.977,30.166,53.5,60.31,49.1,68.3,43.345,78.753,2.738,85.373,2.738,85.373Z" transform="translate(128.685 182.41)" fill="url(#linear-gradient-8)"/>
      <path id="Fill_170" data-name="Fill 170" d="M20.183,0A28.01,28.01,0,0,1,33.176,23.776s-1.651,18.79-4.326,22.9a25.006,25.006,0,0,1-9.77,0C13.4,45.557,7.894,41.555,7.894,41.555L3.454,18.549,0,5.117,1.873,4.5l9.772-1.075s-1.4,14.622,9.507,7.361c2.3-1.53-2.861-9.154-2.861-9.154Z" transform="translate(161.115 142.659)" fill="url(#linear-gradient-2)"/>
      <path id="Fill_172" data-name="Fill 172" d="M0,27.289,27.241,43.208,42.565,14.213,17.026,0Z" transform="translate(189.251 53.088)" fill="#fff"/>
      <path id="Fill_174" data-name="Fill 174" d="M14.423,40.227,33.906,28.145,17.81,0,0,11.569Z" transform="translate(212.726 178.944)" fill="#fff"/>
      <path id="Fill_176" data-name="Fill 176" d="M.005,0a7.466,7.466,0,0,1,1.6,1.617A33.149,33.149,0,0,1,5.146,6.727a37.192,37.192,0,0,1,3.51,8.541c.952,3.337,1.59,7.088,3.054,10.7a23.8,23.8,0,0,0,2.776,4.916,26.674,26.674,0,0,0,3.594,3.857,25.578,25.578,0,0,0,7.69,4.535,24.7,24.7,0,0,0,5.9,1.41,11.892,11.892,0,0,1,2.241.276,7.176,7.176,0,0,1-2.272.154,21.233,21.233,0,0,1-6.125-1.1,24.983,24.983,0,0,1-8.09-4.5,26.585,26.585,0,0,1-3.8-3.985,24.167,24.167,0,0,1-2.934-5.148C9.162,22.612,8.56,18.828,7.673,15.536A39.718,39.718,0,0,0,4.459,7.1,43.922,43.922,0,0,0,1.27,1.883,11.342,11.342,0,0,1,.005,0" transform="translate(131.215 99.237)" fill="url(#linear-gradient-8)"/>
      <path id="Fill_178" data-name="Fill 178" d="M.056,0c.2-.031.395,2.656,1.9,6.629a29.89,29.89,0,0,0,3.465,6.539,31.77,31.77,0,0,0,2.763,3.391c1.035,1.127,2.162,2.271,3.227,3.555a50.607,50.607,0,0,1,4.99,7.864,32.087,32.087,0,0,1,3.025,6.995,12.844,12.844,0,0,1,.43,5.149,4.275,4.275,0,0,1-.544,1.813,11.4,11.4,0,0,1,.115-1.852,14.318,14.318,0,0,0-.751-4.889,35.132,35.132,0,0,0-3.163-6.717,55.676,55.676,0,0,0-4.953-7.656c-1.024-1.236-2.136-2.376-3.177-3.531a30.806,30.806,0,0,1-2.8-3.544A27.916,27.916,0,0,1,1.216,6.892,24.818,24.818,0,0,1,.094,1.883,5.224,5.224,0,0,1,.056,0" transform="translate(164.633 80.615)" fill="url(#linear-gradient-8)"/>
      <path id="Fill_180" data-name="Fill 180" d="M3.26,4.046c-.01-.077.433-.148.852-.641A.753.753,0,0,0,4.3,3.029a.6.6,0,0,0-.2-.388.565.565,0,0,0-.463-.153c-.2.014-.435.112-.747.159a1.978,1.978,0,0,1-1.567-.609,5.583,5.583,0,0,1-.84-.963C.079.471-.048.035.015,0S.334.325.794.831a8.079,8.079,0,0,0,.863.818,1.591,1.591,0,0,0,1.163.45c.219-.028.474-.13.784-.151a1.077,1.077,0,0,1,.86.332,1.022,1.022,0,0,1,.3.794,1.061,1.061,0,0,1-.368.6c-.6.527-1.151.441-1.132.369" transform="translate(169.78 129.277)" fill="#ff7b5b"/>
      <path id="Fill_182" data-name="Fill 182" d="M5.232,0,0,1.906S4.439,5.8,5.232,0" transform="translate(171.028 133.778)" fill="#fff"/>
      <path id="Fill_184" data-name="Fill 184" d="M2.2.35c.209.4-.1.973-.691,1.284S.274,1.877.065,1.479.166.507.757.2,2-.047,2.2.35" transform="translate(168.301 133.103)" fill="#ffb2a0"/>
      <path id="Fill_186" data-name="Fill 186" d="M2.278.42c.171.416-.191.958-.807,1.214S.214,1.761.042,1.345.233.386.851.131,2.107,0,2.278.42" transform="translate(174.43 129.847)" fill="#ffb2a0"/>
      <path id="Fill_188" data-name="Fill 188" d="M0,.2A9.885,9.885,0,0,0,3.982,0a5.559,5.559,0,0,1-2.9,1.319A3.12,3.12,0,0,0,0,.2" transform="translate(171.182 140.67)" fill="#ffa192"/>
      <path id="Fill_190" data-name="Fill 190" d="M.768.111A.467.467,0,1,1,.111.165.468.468,0,0,1,.768.111" transform="translate(172.203 128.98)" fill="url(#linear-gradient-8)"/>
      <path id="Fill_192" data-name="Fill 192" d="M.768.111A.467.467,0,1,1,.111.165.468.468,0,0,1,.768.111" transform="translate(168.688 131.006)" fill="url(#linear-gradient-8)"/>
      <path id="Fill_194" data-name="Fill 194" d="M1.962.3c-.047.15-.483.144-.963.29C.514.725.147.961.028.859-.1.774.19.249.846.062S2.02.166,1.962.3" transform="translate(171.03 126.837)" fill="url(#linear-gradient-8)"/>
      <path id="Fill_196" data-name="Fill 196" d="M.035,1.678C-.083,1.591.1,1.09.548.589S1.579-.094,1.639.048,1.352.512.955.963s-.794.811-.921.715" transform="translate(166.883 129.138)" fill="url(#linear-gradient-8)"/>
      <path id="Fill_198" data-name="Fill 198" d="M2.581.669S.9-.743.1.535s3.625,1.95,3.625,1.95Z" transform="translate(162.363 134.038)" fill="#ffc6b2"/>
      <path id="Fill_200" data-name="Fill 200" d="M8.746,0A15.7,15.7,0,0,0,5.713,1.677C5.085,2.305-.668,12.259.064,13.516s6.5-3.011,6.5-3.011S1.738,11.421,8.746,0" transform="translate(115.85 263.453)" fill="url(#linear-gradient-5)"/>
      <path id="Fill_202" data-name="Fill 202" d="M2.285,0A12.523,12.523,0,0,0,.313,2.7c-.264.848-.736,12.34.5,13.112s4.6-5.569,4.6-5.569S1.383,13.4,2.285.027" transform="translate(169.255 276.615)" fill="url(#linear-gradient-5)"/>
    </g>
  </g>
</svg>
