<svg xmlns="http://www.w3.org/2000/svg" xmlns:xlink="http://www.w3.org/1999/xlink" width="448.286" height="266.197" viewBox="0 0 448.286 266.197">
  <defs>
    <linearGradient id="linear-gradient" x1="1" y1="0.5" x2="0" y2="0.5" gradientUnits="objectBoundingBox">
      <stop offset="0" stop-color="#b37cff"/>
      <stop offset="1" stop-color="#f895e7"/>
    </linearGradient>
    <linearGradient id="linear-gradient-2" x1="0" y1="0.5" x2="1" y2="0.5" xlink:href="#linear-gradient"/>
    <linearGradient id="linear-gradient-3" x1="0.607" y1="0.68" x2="0.382" y2="0.305" xlink:href="#linear-gradient"/>
    <linearGradient id="linear-gradient-4" x1="-0.014" y1="0.033" x2="1.458" y2="1.741" gradientUnits="objectBoundingBox">
      <stop offset="0" stop-color="#a737d5"/>
      <stop offset="1" stop-color="#ef497a"/>
    </linearGradient>
    <linearGradient id="linear-gradient-5" x1="0.393" y1="0.68" x2="0.618" y2="0.305" xlink:href="#linear-gradient"/>
    <linearGradient id="linear-gradient-6" x1="1.014" y1="0.033" x2="-0.458" y2="1.741" xlink:href="#linear-gradient-4"/>
    <linearGradient id="linear-gradient-7" x1="0.48" y1="-0.303" x2="0.529" y2="1.664" gradientUnits="objectBoundingBox">
      <stop offset="0" stop-color="#fdf53f"/>
      <stop offset="1" stop-color="#d93c65"/>
    </linearGradient>
    <linearGradient id="linear-gradient-8" x1="0.607" y1="-0.627" x2="0.367" y2="1.875" gradientUnits="objectBoundingBox">
      <stop offset="0" stop-color="#53d8ff"/>
      <stop offset="1" stop-color="#3840f7"/>
    </linearGradient>
    <linearGradient id="linear-gradient-9" x1="0.481" y1="-0.36" x2="0.531" y2="1.741" xlink:href="#linear-gradient-7"/>
  </defs>
  <g id="Group_22" data-name="Group 22" transform="translate(-736.116 -4620.046)">
    <path id="Shape" d="M5.006,115.641c5.2,9.2,13.465,16.941,19.833,25.544,18.4,24.859-.746,53.949,7.653,80.749,7.317,23.356,37.749,29.61,59.994,30.557,37.485,1.6,74.927-.795,111.065-10.961,25.079-7.054,50.2-16.29,76.629-16.849,27.021-.572,52.438,10.276,78.543,15.407,28.666,5.632,62.951-.483,69.868-32.493,4.282-19.828-7.245-38.09-8.323-57.613-1.434-25.847,24.339-40.03,27.675-64.193,2.1-15.234-5.753-28.846-16-39.871C421.13,34.29,406.587,24.014,389.9,23.059c-17.44-1-33,8.158-49.3,12.528C294.8,47.879,268.8,6.9,226.649,1.191c-19.008-2.577-42.372-1.354-59.623,7.494-16.049,8.23-23.837,26.507-41.841,31.874-19.055,5.679-36.489-5.673-54.6-9.3A48.3,48.3,0,0,0,22.377,48.779C11.005,62.946-1.3,81.608.111,100.313A36.321,36.321,0,0,0,5.006,115.641Z" transform="translate(736.116 4633.298)" opacity="0.35" fill="url(#linear-gradient)"/>
    <path id="Shape-2" data-name="Shape" d="M426,120.242c-5,9.568-12.939,17.619-19.055,26.56-17.684,25.849.715,56.1-7.356,83.966-7.032,24.28-36.278,30.788-57.656,31.774-36.024,1.659-72.007-.819-106.738-11.4-24.1-7.334-48.233-16.937-73.636-17.519-25.968-.594-50.4,10.684-75.484,16.019-27.548,5.857-60.5-.5-67.137-33.786-4.116-20.619,6.966-39.606,7.991-59.907C28.3,129.074,3.533,114.325.329,89.2c-2.02-15.841,5.532-29.994,15.377-41.456C26.1,35.656,40.074,24.967,56.106,23.978,72.867,22.939,87.824,32.46,103.485,37,147.5,49.776,172.489,7.18,213,1.239c18.268-2.682,40.72-1.407,57.308,7.785,15.424,8.556,22.909,27.56,40.21,33.14,18.313,5.907,35.069-5.9,52.471-9.67,18.008-3.9,35.036,3.026,46.305,18.219,10.927,14.73,22.753,34.134,21.4,53.585A39.744,39.744,0,0,1,426,120.242Z" transform="translate(753.581 4620.046)" opacity="0.35" fill="url(#linear-gradient-2)"/>
    <g id="Illustration" transform="translate(779 4673)">
      <path id="Shape-3" data-name="Shape" d="M50.182,168.64c-11.175,2.235-25.443-9.947-30.041-23.255-4.729-13.7,3.944-19.441,3.877-38.445C23.942,85.353,12.712,82.1,5.282,53,3.606,46.445-6.091,8.445,5.93,1.323c11.121-6.585,42.333,12.313,47.8,36.5,3.893,17.244-8.159,24.485-3.553,44.57,4.043,17.619,14.664,17.879,18.735,34.884C73.872,137.976,64.853,165.7,50.182,168.64Z" transform="translate(26.618 38.55)" opacity="0.529" fill="url(#linear-gradient-3)"/>
      <path id="Shape-4" data-name="Shape" d="M21.942,136.5c3.012-23.259-2.868-59.141-8.325-85.148C7.706,23.2,1,.229.93,0L0,.275C.068.5,6.761,23.438,12.67,51.559c5.444,25.931,11.3,61.694,8.31,84.818Z" transform="translate(54.047 75.911)" fill="#fff"/>
      <path id="Shape-5" data-name="Shape" d="M63.281,116.805c14.658-7.638,19.67-33.86,11.343-42.382-5.63-5.759-13.7.3-21.491-5.671-9.943-7.621-2.629-21.975-10.449-40.59C36.032,12.319,20.071-2.671,10.747.4.986,3.625-4.157,27.513,4.18,41.891,9.6,51.239,17.908,51.7,19.7,60.4c2.088,10.09-8.005,14.692-8.06,24.474C11.544,102.441,43.89,126.907,63.281,116.805Z" transform="translate(0.65 87.779)" opacity="0.264" fill="url(#linear-gradient-4)"/>
      <path id="Shape-6" data-name="Shape" d="M25.836,88.3a.6.6,0,0,0,.537-.858C6.941,47.407,1.243.96,1.188.495A.6.6,0,0,0,0,.636C.057,1.1,5.779,47.757,25.3,87.964a.6.6,0,0,0,.537.338Z" transform="translate(30.186 122.998)" fill="#fff"/>
      <path id="Shape-7" data-name="Shape" d="M11.331,42.886a.3.3,0,0,0,.176-.059.287.287,0,0,0,.049-.41C5.424,34.546-1.374,22.719,1.072,11.071A20.387,20.387,0,0,1,6.674.49.287.287,0,0,0,6.3.057a20.619,20.619,0,0,0-5.784,10.9C-.862,17.5-.141,28.326,11.106,42.759A.285.285,0,0,0,11.331,42.886Z" transform="translate(4.823 92.635)" fill="#f0f0f0"/>
      <path id="Shape-8" data-name="Shape" d="M.286,39.329a.285.285,0,0,0,.236-.123c9.425-13.755,12.64-24.38,9.554-31.592C7.33,1.208.4.016.333,0A.289.289,0,0,0,.005.241.285.285,0,0,0,.241.567c.066.012,6.7,1.162,9.312,7.279,3,7.015-.2,17.457-9.5,31.036a.285.285,0,0,0,.236.447Z" transform="translate(64.966 161.758)" fill="#f0f0f0"/>
      <path id="Shape-9" data-name="Shape" d="M20.1,168.63c11.173,2.235,25.443-9.947,30.039-23.255,4.731-13.694-3.942-19.43-3.877-38.434C46.339,85.353,57.571,82.1,65,53c1.676-6.556,11.376-44.556-.645-51.677-11.115-6.585-42.335,12.313-47.807,36.5-3.893,17.244,8.161,24.485,3.555,44.57-4.043,17.619-14.666,17.879-18.735,34.884C-3.583,137.966,5.436,165.688,20.1,168.63Z" transform="translate(268.004 38.56)" opacity="0.482" fill="url(#linear-gradient-5)"/>
      <path id="Shape-10" data-name="Shape" d="M.819,136.5C-2.2,113.24,3.687,77.358,9.141,51.352,15.052,23.2,21.763.229,21.83,0l.928.275C22.693.5,16,23.438,10.088,51.559c-5.444,25.931-11.3,61.694-8.308,84.818Z" transform="translate(288.105 75.911)" fill="#fff"/>
      <path id="Shape-11" data-name="Shape" d="M15.361,116.805C.705,109.167-4.308,82.946,4.018,74.423c5.63-5.759,13.7.3,21.491-5.671,9.945-7.621,2.629-21.975,10.449-40.59C42.612,12.319,58.571-2.671,67.9.4c9.763,3.221,14.9,27.109,6.567,41.487C69.043,51.239,60.736,51.7,58.944,60.4c-2.09,10.09,8,14.692,8.058,24.474C67.1,102.441,34.752,126.907,15.361,116.805Z" transform="translate(285.618 87.779)" opacity="0.373" fill="url(#linear-gradient-6)"/>
      <path id="Shape-12" data-name="Shape" d="M.6,88.3a.6.6,0,0,1-.537-.858C19.488,47.407,25.186.96,25.242.495a.6.6,0,0,1,1.186.141c-.055.465-5.778,47.121-25.3,87.328A.6.6,0,0,1,.6,88.3Z" transform="translate(308.295 122.998)" fill="#fff"/>
      <path id="Shape-13" data-name="Shape" d="M.289,42.9a.3.3,0,0,1-.176-.059.289.289,0,0,1-.049-.41C6.2,34.558,12.994,22.73,10.548,11.083A20.393,20.393,0,0,0,4.948.5.285.285,0,0,1,5.321.069a20.629,20.629,0,0,1,5.786,10.9c1.375,6.542.654,17.371-10.593,31.8A.285.285,0,0,1,.289,42.9Z" transform="translate(348.463 92.623)" fill="#f0f0f0"/>
      <path id="Shape-14" data-name="Shape" d="M10.924,39.329a.287.287,0,0,1-.236-.123C1.264,25.451-1.951,14.826,1.135,7.614,3.88,1.208,10.81.016,10.879,0a.287.287,0,0,1,.326.238.283.283,0,0,1-.236.326c-.066.012-6.7,1.162-9.312,7.279-3,7.015.2,17.457,9.5,31.036a.289.289,0,0,1-.074.4.293.293,0,0,1-.162.049Z" transform="translate(288.734 161.758)" fill="#f0f0f0"/>
      <path id="Shape-15" data-name="Shape" d="M181.321,33.964,129,2.3a15.434,15.434,0,0,0-16.227,0L60.443,33.954,0,70.509l60.443,36.468,60.443,36.468,60.443-36.507,60.443-36.427Z" transform="translate(60.372 0.392)" fill="url(#linear-gradient-7)"/>
      <g id="Group" transform="translate(81.984 27.345)">
        <path id="Shape-16" data-name="Shape" d="M174.315,0H5.444A5.578,5.578,0,0,0,0,5.56V142.592H198.54V24.607Z" fill="#fff"/>
        <path id="Shape-17" data-name="Shape" d="M24.083,24.437l-22.159.191a1.963,1.963,0,0,1-1.465-.637A2.085,2.085,0,0,1,0,22.426V0Z" transform="translate(174.362 0.17)" fill="#aad1ff"/>
        <path id="Shape-18" data-name="Shape" d="M34.72,70.263a45.876,45.876,0,0,1-14.583-2.149A29.723,29.723,0,0,1,9.166,61.668,27.409,27.409,0,0,1,2.292,51.4,38.01,38.01,0,0,1,0,37.775,42.984,42.984,0,0,1,1.17,27.649,38.2,38.2,0,0,1,4.68,18.5a34.245,34.245,0,0,1,5.672-7.725,34.837,34.837,0,0,1,7.656-5.854,36.492,36.492,0,0,1,9.3-3.692A44.263,44.263,0,0,1,37.913,0a36.455,36.455,0,0,1,16.95,3.867,28.562,28.562,0,0,1,6.609,4.684,27.547,27.547,0,0,1,4.906,6.319,30.083,30.083,0,0,1,3.04,7.679,36.765,36.765,0,0,1,1.013,8.776,31.423,31.423,0,0,1-1.976,11.32,18.8,18.8,0,0,1-5.6,8.058,13.083,13.083,0,0,1-8.411,2.922A10.539,10.539,0,0,1,48.8,52.1a8.725,8.725,0,0,1-3.538-4.018h-.689a15.537,15.537,0,0,1-5.293,4.158,15.373,15.373,0,0,1-6.563,1.386,19.175,19.175,0,0,1-6.825-1.145,14.134,14.134,0,0,1-5.208-3.434,14.9,14.9,0,0,1-3.305-5.418,21.511,21.511,0,0,1-1.114-7.1A22.191,22.191,0,0,1,17.7,28.342a18.053,18.053,0,0,1,4.335-6.424A19.054,19.054,0,0,1,28.7,17.76a24.427,24.427,0,0,1,8.431-1.386,52.642,52.642,0,0,1,8.174.709,45.344,45.344,0,0,1,7.353,1.7l-.988,21.014a9.628,9.628,0,0,0,.82,4.479,2.656,2.656,0,0,0,2.459,1.494c1.831,0,3.311-1.352,4.4-4.018A28.448,28.448,0,0,0,61,31.25a25.269,25.269,0,0,0-2.89-12.226,19.5,19.5,0,0,0-8.138-8.111A25.181,25.181,0,0,0,38,8.123,30.857,30.857,0,0,0,22.861,11.69a23.888,23.888,0,0,0-5.678,4.356,24.9,24.9,0,0,0-4.178,5.935A33.917,33.917,0,0,0,9.577,37.517,31.851,31.851,0,0,0,11.167,48,19.57,19.57,0,0,0,23.73,60.469a32.9,32.9,0,0,0,10.651,1.586,55.88,55.88,0,0,0,10.045-1.011A66.892,66.892,0,0,0,55.208,58.1v8.25A52.228,52.228,0,0,1,34.72,70.263Zm3.166-46.078h-.244a10.72,10.72,0,0,0-8.388,3.352c-1.99,2.224-3,5.3-2.989,9.154,0,3.008.623,5.3,1.852,6.8a6.783,6.783,0,0,0,5.556,2.267,6.935,6.935,0,0,0,5.911-2.73c1.345-1.812,2.172-4.8,2.458-8.873l.562-9.5A23.784,23.784,0,0,0,37.886,24.185Z" transform="translate(64.269 20.201)" fill="url(#linear-gradient-8)"/>
      </g>
      <path id="Combined_Shape" data-name="Combined Shape" d="M223.556,138.716H17.7A18.353,18.353,0,0,1,5.184,133.93a16.282,16.282,0,0,1-3.793-5.192A15.146,15.146,0,0,1,0,122.384V0L60.189,36.314l60.442,36.468,60.443-36.507L241.256.007V122.384a15.617,15.617,0,0,1-5.184,11.549A18.357,18.357,0,0,1,223.556,138.716Z" transform="translate(60.626 71.055)" fill="url(#linear-gradient-9)"/>
      <g id="Group-2" data-name="Group" transform="translate(64.773 118.684)" style="mix-blend-mode: soft-light;isolation: isolate">
        <path id="Shape-19" data-name="Shape" d="M.423,85.648a.41.41,0,0,1-.281-.107.424.424,0,0,1-.035-.6L75.489.142A.422.422,0,1,1,76.12.7L.74,85.506a.424.424,0,0,1-.318.141Z" transform="translate(0.157 0.141)" fill="#fff"/>
        <path id="Shape-20" data-name="Shape" d="M75.8,85.648a.424.424,0,0,1-.318-.141L.107.7A.422.422,0,0,1,.738.142l75.382,84.8a.424.424,0,0,1-.035.6A.41.41,0,0,1,75.8,85.648Z" transform="translate(156.578 0.141)" fill="#fff"/>
      </g>
    </g>
  </g>
</svg>
