<svg xmlns="http://www.w3.org/2000/svg" width="26.907" height="30.76" viewBox="0 0 26.907 30.76">
  <g id="apple_1_" data-name="apple (1)" transform="translate(0 0)">
    <path id="apple_1_2" data-name="apple_1_" d="M24.9,10.9a8.988,8.988,0,0,0-6.39-3.3c-.414-.041-.357-.046-.467-.046a15.537,15.537,0,0,0-3.717.419,7.5,7.5,0,0,0-.529-1.771,5.35,5.35,0,0,0,5.748-4.58.968.968,0,0,0-.509-.987A5.409,5.409,0,0,0,14.7.311a5.341,5.341,0,0,0-3.148,2.972A12.849,12.849,0,0,0,8.515,1.458a.984.984,0,0,0-1.268.5.967.967,0,0,0,.466,1.271c2.651,1.178,4.141,2.69,4.607,4.7C8.876,7.2,5.64,7.534,3.035,9.819A8.745,8.745,0,0,0,.106,15.068,15.694,15.694,0,0,0,.689,21.3a16.744,16.744,0,0,0,3.327,6.187A12.4,12.4,0,0,0,5.71,29.217c3.113,2.444,5.981,1.363,7.693.917.5-.06,4.576,1.988,7.993-1.076A17,17,0,0,0,26.9,16.747,8.805,8.805,0,0,0,24.9,10.9Z" transform="translate(0 0)" fill="#7ed321"/>
  </g>
</svg>
