<svg id="Group_14" data-name="Group 14" xmlns="http://www.w3.org/2000/svg" xmlns:xlink="http://www.w3.org/1999/xlink" width="295.227" height="243.229" viewBox="0 0 295.227 243.229">
  <defs>
    <linearGradient id="linear-gradient" x1="0.5" y1="1.058" x2="0.5" gradientUnits="objectBoundingBox">
      <stop offset="0" stop-color="#687df1"/>
      <stop offset="1" stop-color="#a57fff"/>
    </linearGradient>
    <clipPath id="clip-path">
      <path id="Rectangle_13" data-name="Rectangle 13" d="M0,0H295.227V243.229H0Z" fill="url(#linear-gradient)"/>
    </clipPath>
  </defs>
  <path id="Rectangle_13-2" data-name="Rectangle 13" d="M0,0H295.227V243.229H0Z" fill="url(#linear-gradient)"/>
  <g id="Group_14-2" data-name="Group 14" clip-path="url(#clip-path)">
    <g id="_4Asset_1" data-name="4Asset 1" transform="translate(-44.324 -42.369)">
      <g id="Character" transform="translate(60.424 117.633)">
        <path id="Shape" d="M115.933,32.435c9.264,6.369,19.692,10.791,27.433,19.352,14.446,15.977,14.785,41.7,3.439,59.976s-32.459,29.26-53.958,31.771c-22.545,2.639-46.208-3.539-63.9-17.66S0,89.691,0,67.164,11.639,22.218,30.662,9.908C48.015-1.32,72.944-4.522,90.361,8.325c8.8,6.5,14.675,16.077,23.443,22.591C114.5,31.434,115.217,31.944,115.933,32.435Z" transform="translate(0 63.197)" fill="#455a64"/>
        <path id="Shape-2" data-name="Shape" d="M115.933,32.435c9.264,6.369,19.692,10.791,27.433,19.352,14.446,15.977,14.785,41.7,3.439,59.976s-32.459,29.26-53.958,31.771c-22.545,2.639-46.208-3.539-63.9-17.66S0,89.691,0,67.164,11.639,22.218,30.662,9.908C48.015-1.32,72.944-4.522,90.361,8.325c8.8,6.5,14.675,16.077,23.443,22.591C114.5,31.434,115.217,31.944,115.933,32.435Z" transform="translate(0 63.197)" opacity="0.2"/>
        <path id="Shape-3" data-name="Shape" d="M115.933,32.435c9.264,6.369,19.692,10.791,27.433,19.352,14.446,15.977,14.785,41.7,3.439,59.976s-32.459,29.26-53.958,31.771c-22.545,2.639-46.208-3.539-63.9-17.66S0,89.691,0,67.164,11.639,22.218,30.662,9.908C48.015-1.32,72.944-4.522,90.361,8.325c8.8,6.5,14.675,16.077,23.443,22.591C114.5,31.434,115.217,31.944,115.933,32.435Z" transform="translate(0 63.197)" fill="#fff" opacity="0.1"/>
        <path id="Shape-4" data-name="Shape" d="M80.337,104.375a1.14,1.14,0,0,0-.064-.455A24.275,24.275,0,0,0,60.516,83.768a77.421,77.421,0,0,1-25.269-9.617c-5.5-3.321-10.759-7.388-16.968-9.18A27.825,27.825,0,0,0,0,66.017c5.219-5.459,14.152-7.815,21.3-5.359-4.944-7.515-9.291-15.6-11.006-24.411s-.5-18.47,4.861-25.7A26.2,26.2,0,0,1,55.4,8.415c5.3,5.75,8.255,13.848,11.777,20.835,2.495,5.022,5.081,10.163,9.172,13.984C82.565,49,91.517,51.086,97.965,56.609c7.338,6.26,10.465,16.277,10.5,25.858a75.721,75.721,0,0,1-2.834,19.107,73.187,73.187,0,0,1-26.452,16.04,28.153,28.153,0,0,0,1.156-13.238Z" transform="translate(31.817 84.888)" opacity="0.1"/>
        <path id="Shape-5" data-name="Shape" d="M.012,63.852A65.907,65.907,0,0,1,56.548,0a47.317,47.317,0,0,1,6.42,1.065C29.135,2.838,2.432,30.241,1.792,63.843,1.379,84.769,11.716,106.169,29.445,121c13.9,11.619,32.349,19.325,52.637,22.1-.431.055-.862.118-1.3.164-1.834.218-3.669.364-5.5.464C57.254,140.26,40.928,132.891,28.3,122.318,10.156,107.206-.41,85.333.012,63.852Z" transform="translate(12.095 63.424)" fill="#fff"/>
        <path id="Shape-6" data-name="Shape" d="M15.381.974a67.006,67.006,0,0,0-1.128,10.463l-2.5-.91A6.521,6.521,0,0,0,4.8,12.1l-.119.127a2.528,2.528,0,0,1-3.476.155h0a2.458,2.458,0,0,1-.862-1.82L0,0Z" transform="translate(120.39 181.284)" fill="#f6cba4"/>
        <path id="Shape-7" data-name="Shape" d="M11.309,20.408c5.191,5.514,14.748,10.327,21.7,5.623l-.78,1.756c-6.952,4.695-16.509-.118-21.7-5.623S8.695,12.838,4.036,7.952A16.843,16.843,0,0,1,0,2C.2,1.474.4.782.651,0A20.979,20.979,0,0,0,4.815,6.2C9.484,11.082,6.118,14.9,11.309,20.408Z" transform="translate(114.805 201.109)" fill="#f5f5f5"/>
        <path id="Shape-8" data-name="Shape" d="M2.559,5.286A10.076,10.076,0,0,0,4.192,1.529,2.183,2.183,0,0,1,5.219,0l.055,1.774a2.458,2.458,0,0,0,.862,1.82,2.528,2.528,0,0,0,3.476-.155l.119-.127a6.521,6.521,0,0,1,6.952-1.574l2.541.955a1.929,1.929,0,0,1,1.266,1.82c-.165,7.224,3.238,16.814,6.806,22.082,3.669,1.51,6.833,6.469,5.219,10.108l-.156.355c-6.952,4.7-16.509-.109-21.7-5.623S8.823,22.109,4.164,17.223A20.979,20.979,0,0,1,0,11.027,22.491,22.491,0,0,1,2.559,5.286Z" transform="translate(115.456 190.064)" fill="#ba68c8"/>
        <path id="Shape-9" data-name="Shape" d="M2.559,5.286A10.076,10.076,0,0,0,4.192,1.529,2.183,2.183,0,0,1,5.219,0l.055,1.774a2.458,2.458,0,0,0,.862,1.82,2.528,2.528,0,0,0,3.476-.155l.119-.127a6.521,6.521,0,0,1,6.952-1.574l2.541.955a1.929,1.929,0,0,1,1.266,1.82c-.165,7.224,3.238,16.814,6.806,22.082,3.669,1.51,6.833,6.469,5.219,10.108l-.156.355c-6.952,4.7-16.509-.109-21.7-5.623S8.823,22.109,4.164,17.223A20.979,20.979,0,0,1,0,11.027,22.491,22.491,0,0,1,2.559,5.286Z" transform="translate(115.456 190.064)" opacity="0.3"/>
        <path id="Shape-10" data-name="Shape" d="M2.559,5.286A10.076,10.076,0,0,0,4.192,1.529,2.183,2.183,0,0,1,5.219,0l.055,1.774a2.458,2.458,0,0,0,.862,1.82,2.528,2.528,0,0,0,3.476-.155l.119-.127a6.521,6.521,0,0,1,6.952-1.574l2.541.955a1.929,1.929,0,0,1,1.266,1.82c-.165,7.224,3.238,16.814,6.806,22.082,3.669,1.51,6.833,6.469,5.219,10.108l-.156.355c-6.952,4.7-16.509-.109-21.7-5.623S8.823,22.109,4.164,17.223A20.979,20.979,0,0,1,0,11.027,22.491,22.491,0,0,1,2.559,5.286Z" transform="translate(115.456 190.064)" fill="#fff" opacity="0.2"/>
        <path id="Shape-11" data-name="Shape" d="M1.109,2.863A.92.92,0,0,1,.1,2.393.9.9,0,0,1,.292,1.307a10.16,10.16,0,0,1,9.97,0q.238.846.5,1.692A9.891,9.891,0,0,0,1.109,2.863Z" transform="translate(127.059 202.914)" fill="#fff"/>
        <path id="Shape-12" data-name="Shape" d="M1.268,2.856A.921.921,0,0,1,.084,2.464.906.906,0,0,1,.451,1.3a10.705,10.705,0,0,1,10.373.082c.1.582.229,1.174.358,1.765C8.156,1.564,5.1.936,1.268,2.856Z" transform="translate(125.626 199.018)" fill="#fff"/>
        <path id="Shape-13" data-name="Shape" d="M1.268,2.864a.921.921,0,0,1-1.183-.4A.906.906,0,0,1,.451,1.3a10.16,10.16,0,0,1,9.759-.1c.22.619.449,1.21.688,1.82A9.761,9.761,0,0,0,1.268,2.864Z" transform="translate(128.304 206.807)" fill="#fff"/>
        <path id="Shape-14" data-name="Shape" d="M16.39,1.229c3.669,1.51,6.833,6.469,5.219,10.108l-.156.355C14.611,16.323,5.237,11.692,0,6.315,4.366-2.192,13.5-.081,16.39,1.229Z" transform="translate(126.361 215.448)" fill="#fff"/>
        <path id="Shape-15" data-name="Shape" d="M1.26,2.864a.921.921,0,0,1-1.174-.4A.906.906,0,0,1,.444,1.3a10.16,10.16,0,0,1,9.777-.091c.312.682.633,1.319.917,1.947C8.158,1.572,5.094.935,1.26,2.864Z" transform="translate(129.843 210.601)" fill="#fff"/>
        <path id="Shape-16" data-name="Shape" d="M14.455,0a63.431,63.431,0,0,0,3.219,10.008l-2.669.146a6.47,6.47,0,0,0-5.723,4.222l-.055.164a2.527,2.527,0,0,1-3.118,1.538h0a2.535,2.535,0,0,1-1.523-1.3L0,5.241Z" transform="translate(132.231 203.266)" fill="#f6cba4"/>
        <path id="Shape-17" data-name="Shape" d="M18.059,14.4c6.989,2.966,17.693,3.539,22.141-3.539v1.92c-4.448,7.079-15.152,6.5-22.141,3.539S12.556,8.516,6.338,5.914A16.9,16.9,0,0,1,.22,2.093,19.865,19.865,0,0,0,0,0,21.237,21.237,0,0,0,6.338,4C12.593,6.605,11.1,11.446,18.059,14.4Z" transform="translate(135.762 228.641)" fill="#f5f5f5"/>
        <path id="Shape-18" data-name="Shape" d="M.183,9.084a9.93,9.93,0,0,0,0-4.094A2.16,2.16,0,0,1,.5,3.17l.77,1.6a2.53,2.53,0,0,0,4.641-.237l.055-.164A6.47,6.47,0,0,1,11.694.149L14.446,0A1.936,1.936,0,0,1,16.353,1.2c2.8,6.678,9.8,14.093,15.216,17.487,3.971-.091,8.888,3.175,8.888,7.151v.391C36.009,33.3,25.305,32.73,18.316,29.764s-5.5-7.8-11.722-10.4a21.237,21.237,0,0,1-6.338-4A22.656,22.656,0,0,1,.183,9.084Z" transform="translate(135.579 213.27)" fill="#ba68c8"/>
        <path id="Shape-19" data-name="Shape" d="M.183,9.084a9.93,9.93,0,0,0,0-4.094A2.16,2.16,0,0,1,.5,3.17l.77,1.6a2.53,2.53,0,0,0,4.641-.237l.055-.164A6.47,6.47,0,0,1,11.694.149L14.446,0A1.936,1.936,0,0,1,16.353,1.2c2.8,6.678,9.8,14.093,15.216,17.487,3.971-.091,8.888,3.175,8.888,7.151v.391C36.009,33.3,25.305,32.73,18.316,29.764s-5.5-7.8-11.722-10.4a21.237,21.237,0,0,1-6.338-4A22.656,22.656,0,0,1,.183,9.084Z" transform="translate(135.579 213.27)" opacity="0.3"/>
        <path id="Shape-20" data-name="Shape" d="M.183,9.084a9.93,9.93,0,0,0,0-4.094A2.16,2.16,0,0,1,.5,3.17l.77,1.6a2.53,2.53,0,0,0,4.641-.237l.055-.164A6.47,6.47,0,0,1,11.694.149L14.446,0A1.936,1.936,0,0,1,16.353,1.2c2.8,6.678,9.8,14.093,15.216,17.487,3.971-.091,8.888,3.175,8.888,7.151v.391C36.009,33.3,25.305,32.73,18.316,29.764s-5.5-7.8-11.722-10.4a21.237,21.237,0,0,1-6.338-4A22.656,22.656,0,0,1,.183,9.084Z" transform="translate(135.579 213.27)" fill="#fff" opacity="0.2"/>
        <path id="Shape-21" data-name="Shape" d="M1.557,5.13a.922.922,0,0,1-1.238.118A.9.9,0,0,1,.172,4.029,10.124,10.124,0,0,1,9.3.053c.376.455.761.91,1.146,1.356A9.782,9.782,0,0,0,1.557,5.13Z" transform="translate(147.743 222.692)" fill="#fff"/>
        <path id="Shape-22" data-name="Shape" d="M1.465,5.24A.923.923,0,0,1,.344,5.22.905.905,0,0,1,.08,4.139,10.7,10.7,0,0,1,9.609.054c.33.5.688.992,1.046,1.483C7.289,1.3,4.189,1.937,1.465,5.24Z" transform="translate(145.075 219.525)" fill="#fff"/>
        <path id="Shape-23" data-name="Shape" d="M1.465,5.127a.923.923,0,0,1-1.121-.02A.905.905,0,0,1,.08,4.026,10.122,10.122,0,0,1,8.967.032c.459.473.917.91,1.367,1.374A9.716,9.716,0,0,0,1.465,5.127Z" transform="translate(150.697 225.707)" fill="#fff"/>
        <path id="Shape-24" data-name="Shape" d="M12.932,0C16.9-.089,21.82,3.177,21.82,7.153v.391C17.436,14.523,6.989,14.059,0,11.184.578,1.685,9.8-.035,12.932,0Z" transform="translate(154.106 231.96)" fill="#fff"/>
        <path id="Shape-25" data-name="Shape" d="M1.451,5.128A.923.923,0,0,1,.341,5.1.905.905,0,0,1,.075,4.027,10.123,10.123,0,0,1,8.981.033c.559.491,1.119.955,1.669,1.392C7.22,1.188,4.2,1.834,1.451,5.128Z" transform="translate(153.664 228.544)" fill="#fff"/>
        <path id="Shape-26" data-name="Shape" d="M48.207,0,83.2,19.343a17.15,17.15,0,0,1,8.612,18.2l-6.8,36.284,5.577,17.56c-4.779,6.378-15.785,6.678-15.785,6.678-6.154-12.246-10.667-17.442-14.161-27.7s-5.833-17.332-5.833-17.332L25.755,45.146A34.258,34.258,0,0,1,.514,16.077C.018,11.719,0,8.744,0,8.744Z" transform="translate(57.379 113.056)" fill="#263238"/>
        <path id="Shape-27" data-name="Shape" d="M3.916,0A16.3,16.3,0,0,1,0,10.581L24.7,25.912a17.606,17.606,0,0,1,7.548,9.772l8.741,28.35L33.111,32.508a14.32,14.32,0,0,0-6.42-8.734L3.889,9.763C6.219,3.967,3.916,0,3.916,0Z" transform="translate(101.432 122.809)" opacity="0.2"/>
        <path id="Shape-28" data-name="Shape" d="M.078,9.417a.975.975,0,0,0,0,.455h0a2.177,2.177,0,0,0,.183.355h0a1.825,1.825,0,0,0,.321.346h0a3.027,3.027,0,0,0,.468.328L26.658,25.666a4.55,4.55,0,0,0,.743.318l.275.091.376.091.459.073h1.541a2.648,2.648,0,0,0,.6-.109h.11l.514-.155h.092a3.609,3.609,0,0,0,.569-.264L74.187,1.51a2.338,2.338,0,0,0,.477-.337,1.636,1.636,0,0,0,.119-.127A1.368,1.368,0,0,0,75,.8a.825.825,0,0,0,.083-.155,1.5,1.5,0,0,0,.128-.237,1.129,1.129,0,0,0,0-.173,1.057,1.057,0,0,0,0-.237V1.483q-.031.2-.064.409a1.179,1.179,0,0,1-.128.237,1.37,1.37,0,0,1-.083.164,1.323,1.323,0,0,1-.22.237l-.119.136A3.357,3.357,0,0,1,74.122,3L31.867,27.195a3.609,3.609,0,0,1-.569.264h-.092l-.514.155h-.11c-.193.045-.394.073-.6.1H29.9a4.623,4.623,0,0,1-.615,0h-.1a4.918,4.918,0,0,1-.633,0h-.1l-.459-.082-.376-.091-.275-.082a4.6,4.6,0,0,1-.743-.328L.986,12.374a3.842,3.842,0,0,1-.468-.337h0A1.907,1.907,0,0,1,.2,11.682h0a2.177,2.177,0,0,1-.183-.355h0a1,1,0,0,1,0-.328h0V9.389Z" transform="translate(77.617 126.949)" fill="#e0e0e0"/>
        <path id="Shape-29" data-name="Shape" d="M.078,9.417a.975.975,0,0,0,0,.455h0a2.177,2.177,0,0,0,.183.355h0a1.825,1.825,0,0,0,.321.346h0a3.027,3.027,0,0,0,.468.328L26.658,25.666a4.55,4.55,0,0,0,.743.318l.275.091.376.091.459.073h1.541a2.648,2.648,0,0,0,.6-.109h.11l.514-.155h.092a3.609,3.609,0,0,0,.569-.264L74.187,1.51a2.338,2.338,0,0,0,.477-.337,1.636,1.636,0,0,0,.119-.127A1.368,1.368,0,0,0,75,.8a.825.825,0,0,0,.083-.155,1.5,1.5,0,0,0,.128-.237,1.129,1.129,0,0,0,0-.173,1.057,1.057,0,0,0,0-.237V1.483q-.031.2-.064.409a1.179,1.179,0,0,1-.128.237,1.37,1.37,0,0,1-.083.164,1.323,1.323,0,0,1-.22.237l-.119.136A3.357,3.357,0,0,1,74.122,3L31.867,27.195a3.609,3.609,0,0,1-.569.264h-.092l-.514.155h-.11c-.193.045-.394.073-.6.1H29.9a4.623,4.623,0,0,1-.615,0h-.1a4.918,4.918,0,0,1-.633,0h-.1l-.459-.082-.376-.091-.275-.082a4.6,4.6,0,0,1-.743-.328L.986,12.374a3.842,3.842,0,0,1-.468-.337h0A1.907,1.907,0,0,1,.2,11.682h0a2.177,2.177,0,0,1-.183-.355h0a1,1,0,0,1,0-.328h0V9.389Z" transform="translate(77.617 126.949)" opacity="0.2"/>
        <path id="Shape-30" data-name="Shape" d="M75.163,17.3a1.5,1.5,0,0,1-.128.237.825.825,0,0,1-.083.155,1.368,1.368,0,0,1-.22.246,1.636,1.636,0,0,1-.119.127,2.338,2.338,0,0,1-.477.337L31.881,42.6a3.609,3.609,0,0,1-.569.264h-.092l-.514.155H30.6a4.863,4.863,0,0,0-.6.109H28.46L28,43.056l-.376-.091-.275-.091a4.55,4.55,0,0,1-.743-.318L1,27.789a3.027,3.027,0,0,1-.468-.328h0a1.825,1.825,0,0,1-.321-.346h0a2.177,2.177,0,0,1-.183-.355h0a.975.975,0,0,1,0-.455,1.876,1.876,0,0,1,1.082-1.438L43.282.621a5.866,5.866,0,0,1,5.255,0L74.145,15.388a1.82,1.82,0,0,1,1.082,1.51,1.055,1.055,0,0,1,0,.237,1.132,1.132,0,0,1-.064.164Z" transform="translate(77.751 110.114)" fill="#e0e0e0"/>
        <path id="Shape-31" data-name="Shape" d="M56.875,8.425,15.822,31.935l-.165.073h-.092a2.085,2.085,0,0,1-.312.1l-.229.045H14.9a4.014,4.014,0,0,1-.4,0h-.413l-.275-.055-.33-.082A1.557,1.557,0,0,1,13.2,31.9L0,24.284,42.392,0Z" transform="translate(92.517 118.578)" fill="#e0e0e0"/>
        <path id="Shape-32" data-name="Shape" d="M13.246.179l7.714,4.549a.779.779,0,0,1,0,1.347L9.4,12.634a1.293,1.293,0,0,1-1.293,0L.387,8.131a.779.779,0,0,1,0-1.347L11.934.179a1.293,1.293,0,0,1,1.312,0Z" transform="translate(97.101 120.356)" fill="#e0e0e0"/>
        <path id="Shape-33" data-name="Shape" d="M56.875,8.425,15.822,31.935l-.165.073h-.092a2.085,2.085,0,0,1-.312.1l-.229.045H14.9a4.014,4.014,0,0,1-.4,0h-.413l-.275-.055-.33-.082A1.557,1.557,0,0,1,13.2,31.9L0,24.284,42.392,0Z" transform="translate(92.517 118.578)" opacity="0.4"/>
        <path id="Shape-34" data-name="Shape" d="M13.246.179l7.714,4.549a.779.779,0,0,1,0,1.347L9.4,12.634a1.293,1.293,0,0,1-1.293,0L.387,8.131a.779.779,0,0,1,0-1.347L11.934.179a1.293,1.293,0,0,1,1.312,0Z" transform="translate(97.101 120.356)" opacity="0.4"/>
        <path id="Shape-35" data-name="Shape" d="M.035,55.966l4.375-27.6A5.1,5.1,0,0,1,6.9,24.731L49.444.166A1.293,1.293,0,0,1,50.581.1h0L51.59.6,51.251.73a1.265,1.265,0,0,1,.11.746L46.986,29.135a5.1,5.1,0,0,1-2.495,3.639L1.952,57.34a1.787,1.787,0,0,1-.275.118v.4L.7,57.385h0A1.261,1.261,0,0,1,.035,55.966Z" transform="translate(107.212 95.248)" fill="#e0e0e0"/>
        <path id="Shape-36" data-name="Shape" d="M.035,55.966l4.375-27.6A5.1,5.1,0,0,1,6.9,24.731L49.444.166A1.293,1.293,0,0,1,50.581.1h0L51.59.6,51.251.73a1.265,1.265,0,0,1,.11.746L46.986,29.135a5.1,5.1,0,0,1-2.495,3.639L1.952,57.34a1.787,1.787,0,0,1-.275.118v.4L.7,57.385h0A1.261,1.261,0,0,1,.035,55.966Z" transform="translate(107.212 95.248)" opacity="0.3"/>
        <path id="Shape-37" data-name="Shape" d="M6.879,24.743,49.427.177A1.284,1.284,0,0,1,50.8.223a1.26,1.26,0,0,1,.534,1.256L46.96,29.065A5.076,5.076,0,0,1,44.475,32.7L1.926,57.27a1.284,1.284,0,0,1-1.373-.045,1.26,1.26,0,0,1-.534-1.256L4.393,28.382a5.094,5.094,0,0,1,2.486-3.639Z" transform="translate(108.091 95.691)" fill="#e0e0e0"/>
        <path id="Shape-38" data-name="Shape" d="M4.253.547A9.326,9.326,0,0,0,.034,6.579C-.241,8.735,1.19,9.536,3.253,8.353A9.345,9.345,0,0,0,7.472,2.321C7.747.146,6.353-.627,4.253.547Z" transform="translate(131.335 120.597)" fill="#fff"/>
        <path id="Shape-39" data-name="Shape" d="M0,13.629l11.529,9.289,7.6-12.228L9.566,0C1.165,3.694,0,13.629,0,13.629Z" transform="translate(110.466 65.599)" fill="#ed9e76"/>
        <path id="Shape-40" data-name="Shape" d="M0,.252c9.062-1.01,9.906.983,15.776,6.478s11.85,11.682,11.85,11.682C18.564,22.807,17.537,33.5,17.537,33.5c-4.934-3.8-9.108-6.8-9.108-6.8Z" transform="translate(93.553 47.386)" fill="#455a64"/>
        <path id="Shape-41" data-name="Shape" d="M0,.252c9.062-1.01,9.906.983,15.776,6.478s11.85,11.682,11.85,11.682C18.564,22.807,17.537,33.5,17.537,33.5c-4.934-3.8-9.108-6.8-9.108-6.8Z" transform="translate(93.553 47.386)" fill="#fff" opacity="0.5"/>
        <path id="Shape-42" data-name="Shape" d="M6.464,7.142C19.35,1.146,29.008.446,39.547,0c15.776,10.072,9.869,18.461,9.6,31.908S45.921,53.48,55.322,67.464C34.649,83.841,8.546,78.664,2.3,74.743-1.727,37.5-.544,10.017,6.464,7.142Z" transform="translate(54.007 47.638)" fill="#455a64"/>
        <path id="Shape-43" data-name="Shape" d="M6.464,7.142C19.35,1.146,29.008.446,39.547,0c15.776,10.072,9.869,18.461,9.6,31.908S45.921,53.48,55.322,67.464C34.649,83.841,8.546,78.664,2.3,74.743-1.727,37.5-.544,10.017,6.464,7.142Z" transform="translate(54.007 47.638)" fill="#fff" opacity="0.7"/>
        <path id="Shape-44" data-name="Shape" d="M36.229,27.276a10.855,10.855,0,0,0,1.165-14.7,5.943,5.943,0,0,0,2.522-3.057A3.17,3.17,0,0,0,38.81,6.137a3.231,3.231,0,0,0-3.572-.26A4.466,4.466,0,0,0,32.771.937a4.256,4.256,0,0,0-5.109,1.638A2.875,2.875,0,0,0,25.351.045a5.919,5.919,0,0,0-3.6.7c-1.11.546-2.137,1.265-3.265,1.82a26.642,26.642,0,0,1-6.09,1.583A12.768,12.768,0,0,0,6.622,6.5c-1.6,1.347-2.8,4.176-1.559,6.314a3.474,3.474,0,0,0-2.651-.983A3.39,3.39,0,0,0,0,13.238c1.412.637,2.752,1.328,4.192,1.965-1.385-.419-3.219.755-3.77,2.084a7.936,7.936,0,0,0-.147,4.249A55.959,55.959,0,0,0,5.237,37.093c1.247,2.538,2.9,5.186,5.595,6.078Z" transform="translate(63.525 0)" fill="#37474f"/>
        <path id="Shape-45" data-name="Shape" d="M35.526,0a13.676,13.676,0,0,1-9.034,3.776c-3.183,0-6.255-1.01-9.319-1.82a7.1,7.1,0,0,1-2.11,3.867A8.122,8.122,0,0,1,10.725,7.7a27.521,27.521,0,0,1,0,8.589,1.623,1.623,0,0,1-1.1,1.319c-1.027.3-1.715-.755-2.22-1.6a6.943,6.943,0,0,0-2.238-2.475A3.472,3.472,0,0,0,1.938,13.2,3.309,3.309,0,0,0,.232,15.258a6.058,6.058,0,0,0-.138,2.73,8.155,8.155,0,0,0,1.779,4.167,5.72,5.72,0,0,0,3.99,2.038A4.157,4.157,0,0,0,9.7,22.309l.064.282a11.515,11.515,0,0,0,8.787,8.434c1.944.4,4.1.792,6.3,1.119,1.082.164,2.165.318,3.247.446a7.833,7.833,0,0,0,8.658-6.369C38.213,17.9,38.7,8.225,35.526,0Z" transform="translate(64.081 14.084)" fill="#f6cba4"/>
        <path id="Shape-46" data-name="Shape" d="M0,0V14.457a16.083,16.083,0,0,0,11.731,6.469,5.712,5.712,0,0,0,4.21-1.074,3.369,3.369,0,0,0-.422-5.359,1.816,1.816,0,0,1-.853-1.547v-4.7c-2.2-.328-4.357-.719-6.3-1.119A11.411,11.411,0,0,1,0,0Z" transform="translate(74.237 37.949)" fill="#f6cba4"/>
        <path id="Shape-47" data-name="Shape" d="M9.456,9.662a30.812,30.812,0,0,0,4.925.864V7.6c-2.2-.328-4.357-.719-6.3-1.119A11.409,11.409,0,0,1,0,0,11.554,11.554,0,0,0,2.944,6.05,14.036,14.036,0,0,0,9.456,9.662Z" transform="translate(74.522 38.595)" opacity="0.2"/>
        <path id="Shape-48" data-name="Shape" d="M21.169,11.593a6.359,6.359,0,0,1-3.027-.464,5.1,5.1,0,0,1-2.3-2.92c-.45-1.238-.376-1.947-.917-3.43a1.018,1.018,0,0,0-.917-.682,1.092,1.092,0,0,0-1.027.682c-.578,1.483-.5,2.193-.963,3.43a5.188,5.188,0,0,1-2.468,2.92,7.157,7.157,0,0,1-3.228.464,5.818,5.818,0,0,1-3.87-.992,5.127,5.127,0,0,1-1.44-3.43A20.831,20.831,0,0,0,.523,3.3L0,3.022V1.066A13.854,13.854,0,0,1,13.033,2.385h1.835A12.29,12.29,0,0,1,27.13,1.057V3.022l-.5.282a21.627,21.627,0,0,0-.449,3.867,5.328,5.328,0,0,1-1.349,3.43,5.272,5.272,0,0,1-3.669.992Z" transform="translate(78.401 22.189)" fill="#ba68c8"/>
        <path id="Shape-49" data-name="Shape" d="M10.612,0,0,3.776a4.6,4.6,0,0,1,2.082.964c.11.1,8.53-2.784,8.53-2.784Z" transform="translate(67.744 23.255)" fill="#ba68c8"/>
        <path id="Shape-50" data-name="Shape" d="M0,0,5.347,6.433.44,8.152,0,0Z" transform="translate(92.315 26.448)" fill="#ed9e76"/>
        <path id="Shape-51" data-name="Shape" d="M0,1.447A1.453,1.453,0,1,0,.434.417,1.441,1.441,0,0,0,0,1.447Z" transform="translate(84.757 25.811)" fill="#37474f"/>
        <path id="Shape-52" data-name="Shape" d="M0,1.447A1.468,1.468,0,1,0,1.477,0,1.474,1.474,0,0,0,.436.42,1.45,1.45,0,0,0,0,1.447Z" transform="translate(97.103 25.411)" fill="#37474f"/>
        <path id="Shape-53" data-name="Shape" d="M0,1.277l3.935.446A2.082,2.082,0,0,0,2.284,0,2.462,2.462,0,0,0,0,1.277Z" transform="translate(96.323 19.112)" fill="#37474f"/>
        <path id="Shape-54" data-name="Shape" d="M3.694.653.025,2.327A2.087,2.087,0,0,1,1.062.189,2.492,2.492,0,0,1,3.694.653Z" transform="translate(83.549 19.245)" fill="#37474f"/>
        <path id="Shape-55" data-name="Shape" d="M.057,0,4.414,1.447A2.705,2.705,0,0,1,1.424,2.72,2.415,2.415,0,0,1,.057,0Z" transform="translate(87.406 37.312)" fill="#ed9e76"/>
        <path id="Shape-56" data-name="Shape" d="M.057,0,4.414,1.447A2.705,2.705,0,0,1,1.424,2.72,2.415,2.415,0,0,1,.057,0Z" transform="translate(87.406 37.312)" opacity="0.3"/>
        <path id="Shape-57" data-name="Shape" d="M2.816,2.027a2.514,2.514,0,0,1-1.44,0A2.175,2.175,0,0,1,0,.025,2.512,2.512,0,0,1,2.816,1.982Z" transform="translate(87.454 37.96)" fill="#ed9e76"/>
        <path id="Shape-58" data-name="Shape" d="M4.587.664.872,2.356a1.479,1.479,0,0,0-.787.85A1.463,1.463,0,0,0,.157,4.358h0a1.5,1.5,0,0,0,1.6.792l9.172-1.629L8.173,0Z" transform="translate(96.524 57.11)" fill="#ed9e76"/>
        <path id="Shape-59" data-name="Shape" d="M16.986,15.285,28.543,42.253a8.039,8.039,0,0,0,10.245,4.322h0a7.924,7.924,0,0,0,3.384-12.4L23.287,10.864a11.1,11.1,0,0,0-2.265-2.12l-5.76-4.031A12.385,12.385,0,0,0,9.8,2.584h0L6.989.537A2.853,2.853,0,0,0,4.32.182L0,1.838H0A2.822,2.822,0,0,0,3.247,3.394l1.724-.419L6.989,4.449,4.366,8.089a2.235,2.235,0,0,0,.468,3.1l4.944,3.776a1.846,1.846,0,0,0,1.6.291h0a1.755,1.755,0,0,0,1.22-2.038h0a6.3,6.3,0,0,0,4.393,2.065Z" transform="translate(92.315 45.737)" fill="#f6cba4"/>
        <path id="Shape-60" data-name="Shape" d="M1.642,1.474A6.759,6.759,0,0,1,3.476,0L0,.255Z" transform="translate(97.662 48.712)" fill="#ed9e76"/>
        <path id="Shape-61" data-name="Shape" d="M21.522,3.557,17.578,16.95,41.664,33.928l8.1,3.375a12.824,12.824,0,0,1,5.366,4.231l6.6,9.1c.743,1.519-2.706,3.994-4.357,4.413h0a5.932,5.932,0,0,1-5.5-1.365l-5.1-4.631-1.412-.491a21.346,21.346,0,0,1-10.236-7.615h0L6.893,30.025A10.7,10.7,0,0,1,.363,17.287L5.05,0Z" transform="translate(42.369 86.052)" fill="#f6cba4"/>
        <path id="Shape-62" data-name="Shape" d="M18.656,37.436l6.677-19.825s.229-18.2-7.539-17.6S6.09,5.046.128,31.95L0,32.532a32.521,32.521,0,0,0,18.656,4.9Z" transform="translate(45.263 54.047)" fill="#455a64"/>
        <path id="Shape-63" data-name="Shape" d="M18.656,37.436l6.677-19.825s.229-18.2-7.539-17.6S6.09,5.046.128,31.95L0,32.532a32.521,32.521,0,0,0,18.656,4.9Z" transform="translate(45.263 54.047)" fill="#fff" opacity="0.5"/>
      </g>
      <g id="Light_bulb" transform="translate(110.493 46.638)">
        <g id="freepik--light--inject-77" transform="translate(13.253 12.964)">
          <path id="Shape-64" data-name="Shape" d="M6.475,3.158A3.238,3.238,0,1,1,3.173,0,3.252,3.252,0,0,1,5.485.9,3.2,3.2,0,0,1,6.475,3.158Z" transform="translate(12.695 38.96)" fill="#37474f"/>
          <path id="Shape-65" data-name="Shape" d="M1.645,5.435C-.519,4.244-.556,2.251,1.581.977A8.665,8.665,0,0,1,9.359.868c2.155,1.2,2.192,3.194.064,4.449A8.665,8.665,0,0,1,1.645,5.435Z" transform="translate(10.353 37.019)" fill="#455a64"/>
          <path id="Shape-66" data-name="Shape" d="M1.695,5.6C-.534,4.368-.571,2.32,1.621,1.01A8.97,8.97,0,0,1,9.638.883c2.238,1.246,2.275,3.294.064,4.595A8.868,8.868,0,0,1,1.695,5.6Z" transform="translate(10.175 35.694)" fill="#37474f"/>
          <path id="Shape-67" data-name="Shape" d="M1.741,5.721C-.552,4.448-.589,2.337,1.686,1.045A9.183,9.183,0,0,1,9.94.917c2.311,1.265,2.348,3.394.092,4.731A9.238,9.238,0,0,1,1.741,5.721Z" transform="translate(9.991 34.403)" fill="#455a64"/>
          <path id="Shape-68" data-name="Shape" d="M1.793,5.952C-.573,4.651-.6,2.468,1.729,1.085A9.469,9.469,0,0,1,10.241.939c2.366,1.319,2.4,3.494.073,4.886A9.524,9.524,0,0,1,1.793,5.952Z" transform="translate(9.783 32.917)" fill="#37474f"/>
          <path id="Shape-69" data-name="Shape" d="M1.851,6.084C-.6,4.692-.607,2.517,1.768,1.1A9.663,9.663,0,0,1,10.463.971c2.421,1.328,2.458,3.557.073,4.968a9.672,9.672,0,0,1-8.686.146Z" transform="translate(9.597 31.511)" fill="#455a64"/>
          <path id="Shape-70" data-name="Shape" d="M15.208.019A15.344,15.344,0,0,0,0,15.486v.073C.185,27.715,10.32,29.589,10.42,34.475a2.632,2.632,0,0,0,1.6,2.138,8.407,8.407,0,0,0,7.53-.109,2.62,2.62,0,0,0,1.5-2.174h0c-.073-4.9,10.007-7.079,9.814-19.252A15.36,15.36,0,0,0,15.263,0Z" transform="translate(0 0)" fill="#ba68c8"/>
          <g id="Group" transform="translate(0 0)" opacity="0.6">
            <path id="Shape-71" data-name="Shape" d="M15.208.019A15.344,15.344,0,0,0,0,15.486v.073C.185,27.715,10.32,29.589,10.42,34.475a2.632,2.632,0,0,0,1.6,2.138,8.407,8.407,0,0,0,7.53-.109,2.62,2.62,0,0,0,1.5-2.174h0c-.073-4.9,10.007-7.079,9.814-19.252A15.36,15.36,0,0,0,15.263,0Z" transform="translate(0 0)" fill="#fff"/>
          </g>
          <path id="Shape-72" data-name="Shape" d="M1.19,3.944c-1.532-.91-1.605-2.32-.1-3.23A6.328,6.328,0,0,1,6.766.632c1.532.91,1.6,2.32.046,3.239a6.3,6.3,0,0,1-5.622.073Z" transform="translate(11.771 32.05)" fill="#ba68c8"/>
          <path id="Shape-73" data-name="Shape" d="M5.485,18.355A36.148,36.148,0,0,0,4.293,9.894a15.951,15.951,0,0,0-.816-2.411A3.275,3.275,0,0,1,.542,6.673,1.656,1.656,0,0,1,.275,4.534a1.428,1.428,0,0,1,1.431-.618A3.947,3.947,0,0,1,4.054,6.263a6.221,6.221,0,0,0,1.211-.6A8.248,8.248,0,0,0,7.2,3.961,3.789,3.789,0,0,1,6.384,1.05,1.393,1.393,0,0,1,7.778,0,1.375,1.375,0,0,1,9.2,1a3.788,3.788,0,0,1-.715,2.939,7.981,7.981,0,0,0,1.981,1.637,6.159,6.159,0,0,0,1.22.555,4.027,4.027,0,0,1,2.284-2.411,1.409,1.409,0,0,1,1.431.618,1.638,1.638,0,0,1-.193,2.139,3.291,3.291,0,0,1-2.907.91,17.415,17.415,0,0,0-.742,2.438,35.776,35.776,0,0,0-.917,8.5.539.539,0,0,1-.514.546l.045-.018a.52.52,0,0,1-.522-.5A37.012,37.012,0,0,1,10.566,9.6,19.229,19.229,0,0,1,11.3,7.155a7.34,7.34,0,0,1-1.357-.637A9.029,9.029,0,0,1,7.851,4.8,8.941,8.941,0,0,1,5.833,6.536,6.68,6.68,0,0,1,4.5,7.2a18.98,18.98,0,0,1,.807,2.429A36.111,36.111,0,0,1,6.53,18.373a.521.521,0,0,1-.522.51A.531.531,0,0,1,5.485,18.355Z" transform="translate(7.641 15.055)" fill="#fff"/>
        </g>
        <path id="Shape-74" data-name="Shape" d="M1.386,7.179a.859.859,0,0,1-.266.045A1.013,1.013,0,0,1,.4,6.944a1,1,0,0,1-.308-.7L0,1.028A1,1,0,0,1,.918,0h0A1.024,1.024,0,0,1,1.954.983l.11,5.222A1,1,0,0,1,1.386,7.179Z" transform="translate(27.084 0)" fill="#e0e0e0"/>
        <path id="Shape-75" data-name="Shape" d="M3.984,6.331a.994.994,0,0,1-1.137-.437L.1,1.436A1.006,1.006,0,0,1,.492.145,1.023,1.023,0,0,1,1.829.4L4.58,4.848a.987.987,0,0,1-.339,1.374.571.571,0,0,1-.257.109Z" transform="translate(13.333 4.078)" fill="#e0e0e0"/>
        <path id="Shape-76" data-name="Shape" d="M5.889,4.473a1.007,1.007,0,0,1-.78-.082L.524,1.88A1,1,0,0,1,.125.52,1.014,1.014,0,0,1,1.5.124l4.586,2.5a1,1,0,0,1,.4,1.356A1.034,1.034,0,0,1,5.889,4.473Z" transform="translate(3.411 14.27)" fill="#e0e0e0"/>
        <path id="Shape-77" data-name="Shape" d="M6.531,1.9a.756.756,0,0,1-.238.091l-5.265.118A1.006,1.006,0,0,1,0,1.2H0A1,1,0,0,1,.973.173h0L6.228,0a1.014,1.014,0,0,1,1,1.019.984.984,0,0,1-.7.91Z" transform="translate(0 28.032)" fill="#e0e0e0"/>
        <path id="Shape-78" data-name="Shape" d="M6.434,1.956a.783.783,0,0,1-.238.1L.913,2.12a1,1,0,0,1,0-1.993L6.168,0a1,1,0,0,1,.3,1.956Z" transform="translate(50.23 26.867)" fill="#e0e0e0"/>
        <path id="Shape-79" data-name="Shape" d="M1.305,4.627a1.011,1.011,0,0,1-1.22-.554A1,1,0,0,1,.5,2.808L4.974.151A1,1,0,0,1,6.34.46h0a.987.987,0,0,1-.321,1.365h0L1.525,4.555A1.208,1.208,0,0,1,1.305,4.627Z" transform="translate(46.875 13.26)" fill="#e0e0e0"/>
        <path id="Shape-80" data-name="Shape" d="M1.293,6.435A1.023,1.023,0,0,1,.225,6.1,1,1,0,0,1,.119,4.988L2.669.439A1.023,1.023,0,0,1,4.082.175,1,1,0,0,1,4.439,1.4L1.908,5.953a.989.989,0,0,1-.615.482Z" transform="translate(38.467 3.482)" fill="#e0e0e0"/>
      </g>
      <g id="Window" transform="translate(231.838 108.794)">
        <path id="Shape-81" data-name="Shape" d="M4.944,10.072l-.018-7.26L0,0,.018,7.1h0v.155l4.925,2.82Z" transform="translate(0 81.753)" fill="#e0e0e0"/>
        <path id="Shape-82" data-name="Shape" d="M5.164,108.625,4.925,2.82,0,0,.248,105.65a1.56,1.56,0,0,0,.642,1.419h0l4.87,2.939a1.577,1.577,0,0,1-.6-1.383Z" transform="translate(0.018 89.004)" fill="#ba68c8"/>
        <path id="Shape-83" data-name="Shape" d="M5.164,108.625,4.925,2.82,0,0,.248,105.65a1.56,1.56,0,0,0,.642,1.419h0l4.87,2.939a1.577,1.577,0,0,1-.6-1.383Z" transform="translate(0.018 89.004)" fill="#fff" opacity="0.2"/>
        <path id="Shape-84" data-name="Shape" d="M.44,0A3.166,3.166,0,0,1,0,.209,3.166,3.166,0,0,0,.44,0Z" transform="translate(7.016 198.912)" fill="#455a64"/>
        <path id="Path" d="M.092,0h0Z" transform="translate(6.613 199.185)" fill="#455a64"/>
        <path id="Shape-85" data-name="Shape" d="M4.934,84.546V80.361a4.933,4.933,0,0,1,2.256-3.876l127.8-73.2a1.588,1.588,0,0,1,1.578-.164L131.7.168h0A1.588,1.588,0,0,0,130.067.3L2.256,73.5A4.96,4.96,0,0,0,0,77.385v4.185H0v.173l4.925,2.811Z" transform="translate(0 0)" fill="#ba68c8"/>
        <path id="Shape-86" data-name="Shape" d="M4.934,84.546V80.361a4.933,4.933,0,0,1,2.256-3.876l127.8-73.2a1.588,1.588,0,0,1,1.578-.164L131.7.168h0A1.588,1.588,0,0,0,130.067.3L2.256,73.5A4.96,4.96,0,0,0,0,77.385v4.185H0v.173l4.925,2.811Z" transform="translate(0 0)" fill="#fff" opacity="0.3"/>
        <path id="Shape-87" data-name="Shape" d="M4.944,10.072l-.018-7.26L0,0,.018,7.1h0v.155l4.925,2.82Z" transform="translate(0 81.753)" opacity="0.2"/>
        <path id="Shape-88" data-name="Shape" d="M130.048.3c1.247-.71,2.265-.136,2.265,1.292V5.781L0,81.562V77.376A4.933,4.933,0,0,1,2.256,73.5Z" transform="translate(4.934 2.984)" fill="#ba68c8"/>
        <path id="Shape-89" data-name="Shape" d="M1.211.164C1.88-.218,2.421.091,2.421.846a2.607,2.607,0,0,1-1.2,2.074C.55,3.3.009,3,0,2.238A2.644,2.644,0,0,1,1.211.164Z" transform="translate(125.206 10.048)" fill="#fff"/>
        <path id="Shape-90" data-name="Shape" d="M1.2.166c.67-.382,1.22-.082,1.22.682A2.644,2.644,0,0,1,1.211,2.922C.541,3.3,0,3,0,2.231A2.653,2.653,0,0,1,1.2.166Z" transform="translate(128.902 7.936)" fill="#fff"/>
        <path id="Shape-91" data-name="Shape" d="M1.211.164c.66-.382,1.211-.073,1.211.691A2.644,2.644,0,0,1,1.211,2.93C.55,3.312,0,3,0,2.238A2.671,2.671,0,0,1,1.211.164Z" transform="translate(132.589 5.818)" fill="#fff"/>
        <path id="Shape-92" data-name="Shape" d="M26.608,56.4a.84.84,0,0,1,1.192.127l1.2,1.82c.238.364.7.419,1.2.127L132.3,0V7.279L0,83.077V75.8l3.916-2.247a2.97,2.97,0,0,0,1.192-1.5l1.183-3.2a2.952,2.952,0,0,1,1.192-1.492Z" transform="translate(4.944 8.757)" fill="#e0e0e0"/>
        <path id="Shape-93" data-name="Shape" d="M132.323,0l.248,105.8a4.951,4.951,0,0,1-2.256,3.876L2.513,182.868c-1.257.719-2.265.146-2.275-1.274L0,75.78Z" transform="translate(4.944 16.044)" fill="#ba68c8"/>
        <g id="Group-2" data-name="Group" transform="translate(4.944 16.044)" opacity="0.4">
          <path id="Shape-94" data-name="Shape" d="M132.323,0l.248,105.8a4.951,4.951,0,0,1-2.256,3.876L2.513,182.868c-1.257.719-2.265.146-2.275-1.274L0,75.78Z" transform="translate(0 0)" fill="#fff"/>
        </g>
        <path id="Shape-95" data-name="Shape" d="M113.621.219c.917-.51,1.605-.1,1.605.91a3.47,3.47,0,0,1-1.6,2.73L1.614,68.038c-.917.51-1.605.1-1.614-.91A3.5,3.5,0,0,1,1.605,64.4Z" transform="translate(18.417 13.023)" fill="#fff"/>
        <path id="Shape-96" data-name="Shape" d="M1.339.027a.138.138,0,0,1,.165,0c.083.055.073.218,0,.373L.8,1.538,2.632.482A.141.141,0,0,1,2.862.6a.491.491,0,0,1-.229.391L.8,2.056l.706.337c.092.045.1.2,0,.355a.393.393,0,0,1-.174.173.148.148,0,0,1-.147,0L.046,2.384,0,2.338H0v-.2H0V2.047L1.137.227A.42.42,0,0,1,1.339.027Z" transform="translate(5.723 85.183)" fill="#e0e0e0"/>
        <path id="Shape-97" data-name="Shape" d="M1.486.016a.194.194,0,0,1,.156,0L2.779.553h.046V.762h0V.853L1.688,2.673a.5.5,0,0,1-.156.155.157.157,0,0,1-.165,0c-.083-.055-.083-.218,0-.373l.7-1.137L.229,2.373c-.119.073-.22,0-.229-.127a.5.5,0,0,1,.229-.382L2.064.8,1.357.462c-.092,0-.1-.2,0-.355A.541.541,0,0,1,1.486.016Z" transform="translate(9.585 82.892)" fill="#e0e0e0"/>
        <path id="Shape-98" data-name="Shape" d="M1.266.485A1.006,1.006,0,0,1,2.027.349L2.2.121A.649.649,0,0,1,2.32.012a.176.176,0,0,1,.128,0c.073,0,.11.091.1.2L2.449.9a.58.58,0,0,1-.092.237.485.485,0,0,1-.128.109H2.174l-.55.146c-.083,0-.147,0-.165-.109a.416.416,0,0,1,.1-.318L1.614.895A.673.673,0,0,0,1.266,1,1.817,1.817,0,0,0,.449,2.4c0,.519.367.719.816.464a1.722,1.722,0,0,0,.715-.91.547.547,0,0,1,.2-.246h.11c.11,0,.147.146.092.3a2.8,2.8,0,0,1-1.11,1.383C.578,3.788,0,3.47,0,2.669A2.789,2.789,0,0,1,1.266.485Z" transform="translate(13.62 80.239)" fill="#e0e0e0"/>
        <g id="Group-3" data-name="Group" transform="translate(5.723 85.183)" opacity="0.3">
          <path id="Shape-99" data-name="Shape" d="M1.339.027a.138.138,0,0,1,.165,0c.083.055.073.218,0,.373L.8,1.538,2.632.482A.141.141,0,0,1,2.862.6a.491.491,0,0,1-.229.391L.8,2.056l.706.337c.092.045.1.2,0,.355a.393.393,0,0,1-.174.173.148.148,0,0,1-.147,0L.046,2.384,0,2.338H0v-.2H0V2.047L1.137.227A.42.42,0,0,1,1.339.027Z" transform="translate(0 0)"/>
        </g>
        <g id="Group-4" data-name="Group" transform="translate(9.585 82.892)" opacity="0.3">
          <path id="Shape-100" data-name="Shape" d="M1.486.016a.194.194,0,0,1,.156,0L2.779.553h.046V.762h0V.853L1.688,2.673a.5.5,0,0,1-.156.155.157.157,0,0,1-.165,0c-.083-.055-.083-.218,0-.373l.7-1.137L.229,2.373c-.119.073-.22,0-.229-.127a.5.5,0,0,1,.229-.382L2.064.8,1.357.462c-.092,0-.1-.2,0-.355A.541.541,0,0,1,1.486.016Z" transform="translate(0 0)"/>
        </g>
        <g id="Group-5" data-name="Group" transform="translate(13.62 80.239)" opacity="0.3">
          <path id="Shape-101" data-name="Shape" d="M1.266.485A1.006,1.006,0,0,1,2.027.349L2.2.121A.649.649,0,0,1,2.32.012a.176.176,0,0,1,.128,0c.073,0,.11.091.1.2L2.449.9a.58.58,0,0,1-.092.237.485.485,0,0,1-.128.109H2.174l-.55.146c-.083,0-.147,0-.165-.109a.416.416,0,0,1,.1-.318L1.614.895A.673.673,0,0,0,1.266,1,1.817,1.817,0,0,0,.449,2.4c0,.519.367.719.816.464a1.722,1.722,0,0,0,.715-.91.547.547,0,0,1,.2-.246h.11c.11,0,.147.146.092.3a2.8,2.8,0,0,1-1.11,1.383C.578,3.788,0,3.47,0,2.669A2.789,2.789,0,0,1,1.266.485Z" transform="translate(0 0)"/>
        </g>
        <path id="Shape-102" data-name="Shape" d="M69.807,0l.2,71.713L.211,111.691,0,39.978,69.807,0Z" transform="translate(12.593 74.565)" fill="#fff"/>
        <path id="Shape-103" data-name="Shape" d="M35.935,0,4.494,49.6l.055,12.283,6.044-11.919L4.549,61.887,0,49.331,35.935,0Z" transform="translate(36.752 95.391)" fill="#ba68c8"/>
        <path id="Shape-104" data-name="Shape" d="M35.935,0,4.494,49.6l.055,12.283,6.044-11.919L4.549,61.887,0,49.331,35.935,0Z" transform="translate(36.752 95.391)" opacity="0.3"/>
        <path id="Shape-105" data-name="Shape" d="M0,0,6.1.364.055,12.283,0,0Z" transform="translate(41.246 144.995)" fill="#ba68c8"/>
        <path id="Shape-106" data-name="Shape" d="M0,0,6.1.364.055,12.283,0,0Z" transform="translate(41.246 144.995)" opacity="0.5"/>
        <path id="Shape-107" data-name="Shape" d="M50.968,0,15.033,49.331,0,48.431,50.968,0Z" transform="translate(21.719 95.391)" fill="#ba68c8"/>
        <path id="Shape-108" data-name="Shape" d="M0,49.6,31.441,0,24.874,51.087,6.1,49.968,0,49.6Z" transform="translate(41.246 95.391)" fill="#ba68c8"/>
        <path id="Shape-109" data-name="Shape" d="M0,48.431l15.033.9,4.549,12.556,6.044-11.919h0L44.4,51.087,50.968,0,0,48.431Z" transform="translate(21.719 95.391)" fill="#fff" opacity="0.3"/>
        <path id="Shape-110" data-name="Shape" d="M102.615.313c1.275-.728,2.311-.146,2.311,1.31a4.987,4.987,0,0,1-2.293,3.949L2.32,63.056c-1.275.737-2.311.155-2.32-1.3a5.015,5.015,0,0,1,2.3-3.949Z" transform="translate(28.616 22.291)" fill="#ba68c8"/>
        <g id="Group-6" data-name="Group" transform="translate(28.616 22.291)" opacity="0.7">
          <path id="Shape-111" data-name="Shape" d="M102.615.313c1.275-.728,2.311-.146,2.311,1.31a4.987,4.987,0,0,1-2.293,3.949L2.32,63.056c-1.275.737-2.311.155-2.32-1.3a5.015,5.015,0,0,1,2.3-3.949Z" transform="translate(0 0)" fill="#fff"/>
        </g>
        <path id="Shape-112" data-name="Shape" d="M11.226.318c1.275-.737,2.311-.146,2.32,1.3a5.015,5.015,0,0,1-2.3,3.949L2.32,10.808c-1.275.728-2.311.146-2.32-1.3A5.051,5.051,0,0,1,2.3,5.549Z" transform="translate(12.437 83.773)" fill="#ba68c8"/>
        <path id="Shape-113" data-name="Shape" d="M19.729.313C21-.415,22.04.168,22.04,1.624a5,5,0,0,1-2.293,3.949L2.32,15.635c-1.275.728-2.311.146-2.32-1.3a5.051,5.051,0,0,1,2.3-3.958Z" transform="translate(12.18 89)" fill="#ba68c8"/>
        <path id="Shape-114" data-name="Shape" d="M19.729.313C21-.415,22.04.168,22.04,1.624a5.014,5.014,0,0,1-2.293,3.949L2.32,15.635c-1.275.728-2.311.146-2.32-1.3a5.051,5.051,0,0,1,2.3-3.958Z" transform="translate(37.174 74.57)" fill="#ba68c8"/>
        <path id="Shape-115" data-name="Shape" d="M19.729.313C21-.415,22.04.168,22.04,1.624a5.014,5.014,0,0,1-2.293,3.949L2.32,15.635c-1.275.728-2.311.146-2.32-1.3a5.051,5.051,0,0,1,2.3-3.958Z" transform="translate(62.167 60.122)" fill="#ba68c8"/>
        <path id="Shape-116" data-name="Shape" d="M19.729.313C21-.415,22.04.168,22.04,1.624a5.014,5.014,0,0,1-2.293,3.949L2.32,15.635c-1.275.728-2.311.146-2.32-1.3a5.033,5.033,0,0,1,2.3-3.958Z" transform="translate(87.16 45.71)" fill="#ba68c8"/>
        <path id="Shape-117" data-name="Shape" d="M19.729.314C21-.414,22.04.168,22.04,1.615a5.014,5.014,0,0,1-2.293,3.958L2.32,15.635c-1.275.728-2.311.146-2.32-1.3a5.033,5.033,0,0,1,2.3-3.958Z" transform="translate(112.154 31.28)" fill="#ba68c8"/>
        <g id="Group-7" data-name="Group" transform="translate(12.18 31.28)" opacity="0.2">
          <path id="Shape-118" data-name="Shape" d="M19.729.313C21-.415,22.04.168,22.04,1.624a5,5,0,0,1-2.293,3.949L2.32,15.635c-1.275.728-2.311.146-2.32-1.3a5.051,5.051,0,0,1,2.3-3.958Z" transform="translate(0 57.72)" fill="#fff"/>
          <path id="Shape-119" data-name="Shape" d="M19.729.313C21-.415,22.04.168,22.04,1.624a5.014,5.014,0,0,1-2.293,3.949L2.32,15.635c-1.275.728-2.311.146-2.32-1.3a5.051,5.051,0,0,1,2.3-3.958Z" transform="translate(24.993 43.29)" fill="#fff"/>
          <path id="Shape-120" data-name="Shape" d="M19.729.313C21-.415,22.04.168,22.04,1.624a5.014,5.014,0,0,1-2.293,3.949L2.32,15.635c-1.275.728-2.311.146-2.32-1.3a5.051,5.051,0,0,1,2.3-3.958Z" transform="translate(49.987 28.842)" fill="#fff"/>
          <path id="Shape-121" data-name="Shape" d="M19.729.313C21-.415,22.04.168,22.04,1.624a5.014,5.014,0,0,1-2.293,3.949L2.32,15.635c-1.275.728-2.311.146-2.32-1.3a5.033,5.033,0,0,1,2.3-3.958Z" transform="translate(74.98 14.43)" fill="#fff"/>
          <path id="Shape-122" data-name="Shape" d="M19.729.314C21-.414,22.04.168,22.04,1.615a5.014,5.014,0,0,1-2.293,3.958L2.32,15.635c-1.275.728-2.311.146-2.32-1.3a5.033,5.033,0,0,1,2.3-3.958Z" transform="translate(99.974 0)" fill="#fff"/>
        </g>
        <path id="Shape-123" data-name="Shape" d="M24.856,0l.018,4.458L.009,18.734,0,14.284,24.856,0Z" transform="translate(90.123 57.087)" fill="#ba68c8"/>
        <g id="Group-8" data-name="Group" transform="translate(90.16 71.708)">
          <path id="Shape-124" data-name="Shape" d="M25.635,0l.009,2.72L.009,17.56,0,14.839,25.635,0Z" transform="translate(0.028 8.307)" fill="#ba68c8"/>
          <path id="Shape-125" data-name="Shape" d="M31.019,0l.009,2.72L.009,20.426,0,17.705,31.019,0Z" transform="translate(0.009 0)" fill="#ba68c8"/>
          <path id="Shape-126" data-name="Shape" d="M14.51,0l.009,2.72L0,11.027V8.316L14.51,0Z" transform="translate(0 3.958)" fill="#ba68c8"/>
        </g>
        <path id="Shape-127" data-name="Shape" d="M31.019,0l.009,2.72L.009,20.426,0,17.714,31.019,0Z" transform="translate(90.141 60.826)" fill="#ba68c8"/>
        <g id="Group-9" data-name="Group" transform="translate(90.123 57.087)" opacity="0.1">
          <path id="Shape-128" data-name="Shape" d="M24.856,0l.018,4.458L.009,18.734,0,14.284,24.856,0Z" transform="translate(0 0)" fill="#fff"/>
          <g id="Group-10" data-name="Group" transform="translate(0.037 14.621)">
            <path id="Shape-129" data-name="Shape" d="M25.635,0l.009,2.72L.009,17.56,0,14.839,25.635,0Z" transform="translate(0.028 8.307)" fill="#fff"/>
            <path id="Shape-130" data-name="Shape" d="M31.019,0l.009,2.72L.009,20.426,0,17.705,31.019,0Z" transform="translate(0.009 0)" fill="#fff"/>
            <path id="Shape-131" data-name="Shape" d="M14.51,0l.009,2.72L0,11.027V8.316L14.51,0Z" transform="translate(0 3.958)" fill="#fff"/>
          </g>
          <path id="Shape-132" data-name="Shape" d="M31.019,0l.009,2.72L.009,20.426,0,17.714,31.019,0Z" transform="translate(0.018 3.739)" fill="#fff"/>
        </g>
        <path id="Shape-133" data-name="Shape" d="M28.836,0l.009,2.83L.009,19.443,0,16.614,28.836,0Z" transform="translate(91.04 112.014)" fill="#ba68c8"/>
        <path id="Shape-134" data-name="Shape" d="M41.842,0l.009,2.811L.009,26.949,0,24.138,41.842,0Z" transform="translate(91.022 99.385)" fill="#ba68c8"/>
        <g id="Group-11" data-name="Group" transform="translate(91.022 99.385)" opacity="0.1">
          <path id="Shape-135" data-name="Shape" d="M28.836,0l.009,2.83L.009,19.443,0,16.614,28.836,0Z" transform="translate(0.018 12.629)" fill="#fff"/>
          <path id="Shape-136" data-name="Shape" d="M41.842,0l.009,2.811L.009,26.949,0,24.138,41.842,0Z" transform="translate(0 0)" fill="#fff"/>
        </g>
      </g>
      <g id="Icon" transform="translate(17.757 35.82)">
        <path id="Shape-137" data-name="Shape" d="M64.2,2.375h0A4.368,4.368,0,0,0,60.534,0a1.5,1.5,0,0,0-.477.091L1.587,33.618A3.143,3.143,0,0,0,0,36.348v48a2.989,2.989,0,0,0,1.354,2.327,3.038,3.038,0,0,0,2.69.312h0a.544.544,0,0,0,.128-.055L62.69,53.362a3.116,3.116,0,0,0,1.587-2.73V2.7A.8.8,0,0,0,64.2,2.375Z" transform="translate(0 0.018)" fill="#ba68c8"/>
        <path id="Shape-138" data-name="Shape" d="M0,1.365v48a2.988,2.988,0,0,0,1.348,2.339,3.038,3.038,0,0,0,2.7.317h0a.785.785,0,0,1-.714-.094A.772.772,0,0,1,3,51.3V3.312a3.076,3.076,0,0,1,.532-1.72L.312,0A3.145,3.145,0,0,0,0,1.365Z" transform="translate(0 34.983)" fill="#fff" opacity="0.2"/>
        <path id="Shape-139" data-name="Shape" d="M60.25,0a1.5,1.5,0,0,0-.477.091L1.266,33.637A3.149,3.149,0,0,0,0,34.983l3.219,1.592a3.136,3.136,0,0,1,1.055-.992L62.791,2.038a.792.792,0,0,1,1.091.346h0A4.367,4.367,0,0,0,60.25,0Z" transform="translate(0.321 0)" fill="#fff" opacity="0.4"/>
        <path id="Shape-140" data-name="Shape" d="M64.2,2.375h0A4.368,4.368,0,0,0,60.534,0a1.5,1.5,0,0,0-.477.091L1.587,33.618A3.143,3.143,0,0,0,0,36.348v48a2.989,2.989,0,0,0,1.354,2.327,3.038,3.038,0,0,0,2.69.312h0a.69.69,0,0,0,.119-.055L62.681,53.362a3.116,3.116,0,0,0,1.587-2.73V2.7A.8.8,0,0,0,64.2,2.375Z" transform="translate(0 0.018)" fill="#fff" opacity="0.3"/>
        <g id="Group-12" data-name="Group" transform="translate(25.36 36.384)" opacity="0.6">
          <path id="Shape-141" data-name="Shape" d="M0,0,19.931,1.7.073,26.185,0,0Z" transform="translate(0 0)" fill="#fff"/>
        </g>
      </g>
      <g id="Pictures">
        <path id="Shape-142" data-name="Shape" d="M41.576.482l.459-.255L42.484,0V6.887l-19.94,11.3L0,30.925V25.184l.11-.118.459-.437a18.5,18.5,0,0,1,3.21-2.366l.119-.073.193-.109A17.285,17.285,0,0,1,6.365,20.99l.624-.227a39.542,39.542,0,0,1,8.145-1.438l.789-.109a20.3,20.3,0,0,0,6.65-2.056l.5-.282.422-.255c3.825-2.329,7.338-6.451,10.878-10.108l.541-.546.257-.264.486-.482.248-.237A31.994,31.994,0,0,1,41.411.61Z" transform="translate(3.724 174.07)" fill="#ba68c8"/>
        <path id="Shape-143" data-name="Shape" d="M41.576.482l.459-.255L42.484,0V6.887l-19.94,11.3L0,30.925V25.184l.11-.118.459-.437a18.5,18.5,0,0,1,3.21-2.366l.119-.073.193-.109A17.285,17.285,0,0,1,6.365,20.99l.624-.227a39.542,39.542,0,0,1,8.145-1.438l.789-.109a20.3,20.3,0,0,0,6.65-2.056l.5-.282.422-.255c3.825-2.329,7.338-6.451,10.878-10.108l.541-.546.257-.264.486-.482.248-.237A31.994,31.994,0,0,1,41.411.61Z" transform="translate(3.724 174.07)" opacity="0.4"/>
        <path id="Shape-144" data-name="Shape" d="M4.458.605C6.934-.8,8.943.333,8.943,3.144A9.711,9.711,0,0,1,4.494,10.8C2.018,12.215.009,11.078,0,8.266A9.757,9.757,0,0,1,4.458.605Z" transform="translate(17.151 172.081)" fill="#fff"/>
        <path id="Shape-145" data-name="Shape" d="M6.65,0A20.3,20.3,0,0,1,0,2.056,20.3,20.3,0,0,0,6.65,0Z" transform="translate(19.619 191.229)" fill="#5d3464"/>
        <path id="Shape-146" data-name="Shape" d="M4.357,18.91a5.166,5.166,0,0,1,1.009-.455,5.8,5.8,0,0,1,2.953,0l5.723.983a4.661,4.661,0,0,0,3.063-.71A10.628,10.628,0,0,0,20.05,16.09a13.107,13.107,0,0,1,3.32-3.339l.119-.073a3.825,3.825,0,0,1,2.752-.3,4.542,4.542,0,0,0,3.082-.682,10.688,10.688,0,0,0,3.183-2.957c1.082-1.474,2.183-2.957,3.192-4.395a15.132,15.132,0,0,1,2.669-3.175,7.285,7.285,0,0,1,.7-.473A6.169,6.169,0,0,1,42.53.031V5.49l-.449.227-.431.237-.257.146a31.994,31.994,0,0,0-5.5,4.376l-.248.237-.486.482-.257.264L34.358,12c-3.55,3.639-7.053,7.779-10.878,10.108l-.413.255-.514.282a20.3,20.3,0,0,1-6.65,2.056l-.789.109a39.542,39.542,0,0,0-8.145,1.438l-.624.227a17.289,17.289,0,0,0-2.256,1.055l-.193.109-.119.073a18.5,18.5,0,0,0-3.21,2.366L.11,30.52,0,30.638V23.25c.385-.537.78-1.055,1.192-1.547A12.414,12.414,0,0,1,4.357,18.91Z" transform="translate(3.66 168.598)" fill="#ba68c8"/>
        <g id="Group-13" data-name="Group" transform="translate(3.66 168.598)" opacity="0.2">
          <path id="Shape-147" data-name="Shape" d="M4.357,18.91a5.166,5.166,0,0,1,1.009-.455,5.8,5.8,0,0,1,2.953,0l5.723.983a4.661,4.661,0,0,0,3.063-.71A10.628,10.628,0,0,0,20.05,16.09a13.107,13.107,0,0,1,3.32-3.339l.119-.073a3.825,3.825,0,0,1,2.752-.3,4.542,4.542,0,0,0,3.082-.682,10.688,10.688,0,0,0,3.183-2.957c1.082-1.474,2.183-2.957,3.192-4.395a15.132,15.132,0,0,1,2.669-3.175,7.285,7.285,0,0,1,.7-.473A6.169,6.169,0,0,1,42.53.031V5.49l-.449.227-.431.237-.257.146a31.994,31.994,0,0,0-5.5,4.376l-.248.237-.486.482-.257.264L34.358,12c-3.55,3.639-7.053,7.779-10.878,10.108l-.413.255-.514.282a20.3,20.3,0,0,1-6.65,2.056l-.789.109a39.542,39.542,0,0,0-8.145,1.438l-.624.227a17.289,17.289,0,0,0-2.256,1.055l-.193.109-.119.073a18.5,18.5,0,0,0-3.21,2.366L.11,30.52,0,30.638V23.25c.385-.537.78-1.055,1.192-1.547A12.414,12.414,0,0,1,4.357,18.91Z" transform="translate(0 0)"/>
        </g>
        <path id="Shape-148" data-name="Shape" d="M0,28.514,49.785,0l.11,39.432L.11,67.956Z" transform="translate(0 148.904)" fill="#ba68c8"/>
        <g id="Group-14" data-name="Group" transform="translate(0 148.904)" opacity="0.6">
          <path id="Shape-149" data-name="Shape" d="M0,28.514,49.785,0l.11,39.432L.11,67.956Z" transform="translate(0 0)" fill="#fff"/>
        </g>
        <path id="Shape-150" data-name="Shape" d="M0,24.056,22.545,11.318,42.5,0V5.323L.018,29.661Z" transform="translate(3.724 180.957)" fill="#455a64"/>
        <path id="Shape-151" data-name="Shape" d="M0,24.347,42.5,0V13.438a6.174,6.174,0,0,0-3.467.664,7.338,7.338,0,0,0-.7.473,15.154,15.154,0,0,0-2.669,3.175c-1.009,1.438-2.11,2.921-3.192,4.395A10.687,10.687,0,0,1,29.35,25.1a4.541,4.541,0,0,1-3.081.682,3.821,3.821,0,0,0-2.752.3l-.119.072a13.11,13.11,0,0,0-3.357,3.376A10.628,10.628,0,0,1,17.1,32.172a4.66,4.66,0,0,1-3.064.709L8.31,31.9a5.8,5.8,0,0,0-2.954,0,5.141,5.141,0,0,0-1.009.454,12.428,12.428,0,0,0-3.137,2.729C.8,35.574.4,36.093.018,36.63Z" transform="translate(3.669 155.163)" fill="#ba68c8"/>
        <path id="Shape-152" data-name="Shape" d="M2.256,0A17.288,17.288,0,0,0,0,1.055,17.288,17.288,0,0,1,2.256,0Z" transform="translate(7.833 195.06)" fill="#5d3464"/>
        <path id="Shape-153" data-name="Shape" d="M0,31.616,55.215,0l.156,56.273L.156,87.9Z" transform="translate(252.411 70.831)" fill="#ba68c8"/>
        <path id="Shape-154" data-name="Shape" d="M0,31.616,55.215,0l.156,56.273L.156,87.9Z" transform="translate(252.411 70.831)" fill="#fff" opacity="0.6"/>
        <path id="Shape-155" data-name="Shape" d="M13.529,0,26.516,1.1,12.987,17.851,0,16.75,13.529,0Z" transform="translate(266.884 97.316)" fill="#fafafa"/>
        <path id="Shape-156" data-name="Shape" d="M13.529,0l.009,17.014L0,33.764V16.75L13.529,0Z" transform="translate(279.871 98.417)" fill="#ebebeb"/>
        <path id="Shape-157" data-name="Shape" d="M0,0,12.987,1.1V18.115L0,17.014V0Z" transform="translate(266.884 114.066)" fill="#e0e0e0"/>
        <path id="Shape-158" data-name="Shape" d="M0,25.657,44.8,0l.129,44.409L.1,70.067Z" transform="translate(257.629 79.747)" fill="#ba68c8"/>
        <g id="Group-15" data-name="Group" transform="translate(257.629 79.747)" opacity="0.2">
          <path id="Shape-159" data-name="Shape" d="M0,25.657,44.8,0l.129,44.409L.1,70.067Z" transform="translate(0 0)" fill="#fff"/>
        </g>
        <path id="Shape-160" data-name="Shape" d="M0,14.558,25.361,0l.1,37.958L.1,52.515Z" transform="translate(303.59 34.21)" fill="#ba68c8"/>
        <path id="Shape-161" data-name="Shape" d="M1.477,0V.091A1.236,1.236,0,0,1,.936.946L.55,1.165C.275,1.319.037,1.219,0,.937V.864L.092.81,1.412.055Z" transform="translate(315.623 74.943)" fill="#37474f"/>
        <path id="Shape-162" data-name="Shape" d="M4.99,0V.273a4.136,4.136,0,0,1-1.834,2.9L1.834,3.93C.917,4.467.1,4.131,0,3.148V2.911Z" transform="translate(313.899 71.822)" fill="#455a64"/>
        <path id="Shape-163" data-name="Shape" d="M0,3.275V2.921L5.09,0V.355L0,3.275Z" transform="translate(313.789 69.775)" fill="#37474f"/>
        <path id="Shape-164" data-name="Shape" d="M5.962,0V1.037l-.431.246L.44,4.2,0,4.449V3.421l.44-.255L5.531.255,5.962,0Z" transform="translate(313.349 68.492)" fill="#455a64"/>
        <path id="Shape-165" data-name="Shape" d="M5.7.1a.481.481,0,0,1,.78.437V4.292a2.867,2.867,0,0,1-.4,1.356L5.456,6.712a2.144,2.144,0,0,0-.312,1.046v3.548l-.312.182V7.94a2.714,2.714,0,0,1,.4-1.347L5.86,5.52a2.144,2.144,0,0,0,.312-1.046V.707C6.171.425,5.96.3,5.7.452a1,1,0,0,0-.459.782v3.43a1.644,1.644,0,0,1-.77,1.319c-.422.246-.77.055-.77-.437V2.126c0-.291-.211-.409-.468-.264a1,1,0,0,0-.459.792V6.075A1.681,1.681,0,0,1,2.007,7.4a.478.478,0,0,1-.77-.446V3.537c0-.291-.211-.409-.468-.264a1.036,1.036,0,0,0-.459.792V7.831a.735.735,0,0,0,.321.682l.624.355a.907.907,0,0,1,.413.91v3.548l-.312.182V9.96a.726.726,0,0,0-.321-.691L.411,8.914A.961.961,0,0,1,.008,8V4.237A1.69,1.69,0,0,1,.769,2.918a.485.485,0,0,1,.78.437v3.43c0,.291.2.409.459.264a1.008,1.008,0,0,0,.468-.792V2.827a1.662,1.662,0,0,1,.761-1.319c.431-.246.77-.045.77.437v3.43a.286.286,0,0,0,.468.264.981.981,0,0,0,.459-.792V1.417A1.681,1.681,0,0,1,5.7.1Z" transform="translate(313.056 56.422)" fill="#fff"/>
        <path id="Shape-166" data-name="Shape" d="M0,18.406,32.1,0l.129,45.683L.129,64.089Z" transform="translate(300.205 28.441)" fill="#ba68c8"/>
        <g id="Group-16" data-name="Group" transform="translate(300.205 28.441)" opacity="0.6">
          <path id="Shape-167" data-name="Shape" d="M0,18.406,32.1,0l.129,45.683L.129,64.089Z" transform="translate(0 0)" fill="#fff"/>
        </g>
        <path id="Shape-168" data-name="Shape" d="M0,3.567V2.911L5.09,0,5.1.655,0,3.567Z" transform="translate(313.789 71.167)" fill="#37474f"/>
        <path id="Shape-169" data-name="Shape" d="M5.962,0l.009,1.028-.44.255L.44,4.194.009,4.44,0,3.412l.44-.246L5.531.246,5.962,0Z" transform="translate(313.349 69.884)" fill="#455a64"/>
        <path id="Shape-170" data-name="Shape" d="M0,2.921,5.1,0V.355L.009,3.266,0,2.921Z" transform="translate(313.78 68.392)" fill="#37474f"/>
        <path id="Shape-171" data-name="Shape" d="M7.549,1.026c4.21-2.393,7.613-.455,7.631,4.322a15.479,15.479,0,0,1-2.449,7.806A10.573,10.573,0,0,0,11.2,17.348v.146a6.1,6.1,0,0,1-.6,1.92l-1.091.619V16.484a2.144,2.144,0,0,1,.312-1.046l.624-1.065a2.867,2.867,0,0,0,.4-1.356V9.26c0-.482-.349-.682-.78-.437a1.681,1.681,0,0,0-.77,1.319v3.43a.981.981,0,0,1-.459.792.292.292,0,0,1-.468-.264V10.67c0-.482-.339-.682-.77-.437a1.662,1.662,0,0,0-.761,1.319v3.43a1.008,1.008,0,0,1-.468.792.284.284,0,0,1-.459-.264V12.08c0-.482-.358-.673-.78-.437a1.69,1.69,0,0,0-.761,1.319v3.767a.961.961,0,0,0,.4.91l.624.355a.744.744,0,0,1,.321.691v3.548l-1.082.619a1.951,1.951,0,0,1-.615-1.219V21.47a3.019,3.019,0,0,0-1.568-2.411C.955,18.331.01,16.6,0,14.091-.054,9.3,3.367,3.418,7.549,1.026Z" transform="translate(308.725 47.696)" fill="#ba68c8"/>
        <path id="Shape-172" data-name="Shape" d="M4.929,6.2a2.714,2.714,0,0,0-.4,1.347V11.1l-3.164,1.82V9.369a.907.907,0,0,0-.413-.91L.325,8.1A.735.735,0,0,1,0,7.422V3.674a1.036,1.036,0,0,1,.459-.792.29.29,0,0,1,.468.264V6.567c0,.491.349.691.77.446a1.681,1.681,0,0,0,.77-1.328V2.264a1,1,0,0,1,.459-.792.29.29,0,0,1,.468.264V5.157c0,.491.349.682.77.437a1.644,1.644,0,0,0,.77-1.319V.844A1,1,0,0,1,5.4.062a.286.286,0,0,1,.468.255V4.083A2.144,2.144,0,0,1,5.553,5.13Z" transform="translate(313.336 56.812)" fill="#ba68c8"/>
        <g id="Group-17" data-name="Group" transform="translate(308.725 47.696)" opacity="0.4">
          <path id="Shape-173" data-name="Shape" d="M7.549,1.026c4.21-2.393,7.613-.455,7.631,4.322a15.479,15.479,0,0,1-2.449,7.806A10.573,10.573,0,0,0,11.2,17.348v.146a6.1,6.1,0,0,1-.6,1.92l-1.091.619V16.484a2.144,2.144,0,0,1,.312-1.046l.624-1.065a2.867,2.867,0,0,0,.4-1.356V9.26c0-.482-.349-.682-.78-.437a1.681,1.681,0,0,0-.77,1.319v3.43a.981.981,0,0,1-.459.792.292.292,0,0,1-.468-.264V10.67c0-.482-.339-.682-.77-.437a1.662,1.662,0,0,0-.761,1.319v3.43a1.008,1.008,0,0,1-.468.792.284.284,0,0,1-.459-.264V12.08c0-.482-.358-.673-.78-.437a1.69,1.69,0,0,0-.761,1.319v3.767a.961.961,0,0,0,.4.91l.624.355a.744.744,0,0,1,.321.691v3.548l-1.082.619a1.951,1.951,0,0,1-.615-1.219V21.47a3.019,3.019,0,0,0-1.568-2.411C.955,18.331.01,16.6,0,14.091-.054,9.3,3.367,3.418,7.549,1.026Z" transform="translate(0 0)" fill="#fff"/>
          <path id="Shape-174" data-name="Shape" d="M4.929,6.2a2.714,2.714,0,0,0-.4,1.347V11.1l-3.164,1.82V9.369a.907.907,0,0,0-.413-.91L.325,8.1A.735.735,0,0,1,0,7.422V3.674a1.036,1.036,0,0,1,.459-.792.29.29,0,0,1,.468.264V6.567c0,.491.349.691.77.446a1.681,1.681,0,0,0,.77-1.328V2.264a1,1,0,0,1,.459-.792.29.29,0,0,1,.468.264V5.157c0,.491.349.682.77.437a1.644,1.644,0,0,0,.77-1.319V.844A1,1,0,0,1,5.4.062a.286.286,0,0,1,.468.255V4.083A2.144,2.144,0,0,1,5.553,5.13Z" transform="translate(4.61 9.116)" fill="#fff"/>
        </g>
        <path id="Shape-175" data-name="Shape" d="M5.953,0l.009,1.037-.431.246L.431,4.2,0,4.449V3.412L5.953,0Z" transform="translate(313.349 67.109)" fill="#455a64"/>
        <path id="Shape-176" data-name="Shape" d="M.2,0H.3L3.053.237c.1,0,.138.136.083.282a.483.483,0,0,1-.183.218h-.1L.1.5C.008.5-.029.364.026.218A.474.474,0,0,1,.2,0Z" transform="translate(305.664 56.346)" fill="#fff"/>
        <path id="Shape-177" data-name="Shape" d="M.2,0H.383L1.988,2.247a.335.335,0,0,1-.073.364l-.1.091H1.639L.025.464A.335.335,0,0,1,.1.1.238.238,0,0,1,.2,0Z" transform="translate(320.523 63.416)" fill="#fff"/>
        <path id="Shape-178" data-name="Shape" d="M3.414.025c.119-.064.211,0,.211.118A.445.445,0,0,1,3.414.5l-3.2,1.82a.129.129,0,0,1-.148.015A.127.127,0,0,1,0,2.2a.454.454,0,0,1,.211-.355Z" transform="translate(324.94 50.325)" fill="#fff"/>
        <path id="Shape-179" data-name="Shape" d="M2.947,0H3.13a.326.326,0,0,1-.073.355L.305,3.776l-.1.091a.138.138,0,0,1-.183,0A.344.344,0,0,1,.1,3.5L2.855.091A.429.429,0,0,1,2.947,0Z" transform="translate(323.729 44.427)" fill="#fff"/>
        <path id="Shape-180" data-name="Shape" d="M2.957.034a.129.129,0,0,1,.174,0A.353.353,0,0,1,3.058.4L.306,3.81.2,3.9a.129.129,0,0,1-.174,0A.353.353,0,0,1,.1,3.537L2.847.125a.366.366,0,0,1,.11-.091Z" transform="translate(305.723 66.593)" fill="#fff"/>
        <path id="Shape-181" data-name="Shape" d="M1.8.01a.129.129,0,0,1,.1,0c.092,0,.128.127.073.273L.383,4.368a.465.465,0,0,1-.174.218h-.1c-.1,0-.138-.136-.083-.273L1.621.229A.4.4,0,0,1,1.8.01Z" transform="translate(320.468 41.924)" fill="#fff"/>
        <path id="Shape-182" data-name="Shape" d="M3.412.032A.129.129,0,0,1,3.56.016.127.127,0,0,1,3.623.15.454.454,0,0,1,3.412.5l-3.2,1.82C.092,2.388,0,2.324,0,2.206a.445.445,0,0,1,.211-.355Z" transform="translate(304.067 62.247)" fill="#fff"/>
        <path id="Shape-183" data-name="Shape" d="M.211.025a.126.126,0,0,1,.2.118V3.783a.445.445,0,0,1-.2.346C.1,4.2.009,4.129,0,4.01V.371A.445.445,0,0,1,.211.025Z" transform="translate(316.045 43.51)" fill="#fff"/>
        <path id="Shape-184" data-name="Shape" d="M.2.035a.138.138,0,0,1,.183,0L1.988,2.282a.326.326,0,0,1-.073.355l-.1.1H1.639L.025.49A.335.335,0,0,1,.1.126.476.476,0,0,1,.2.035Z" transform="translate(310.049 48.778)" fill="#fff"/>
        <path id="Shape-185" data-name="Shape" d="M.209.01a.139.139,0,0,1,.1,0L3.061.246c.1,0,.128.136.073.282a.392.392,0,0,1-.174.218h-.1L.108.51C.007.51-.029.373.026.228A.419.419,0,0,1,.209.01Z" transform="translate(323.733 57.883)" fill="#fff"/>
        <path id="Shape-186" data-name="Shape" d="M1.8.006a.25.25,0,0,1,.11,0c.092,0,.128.136.073.282L.384,4.337a.5.5,0,0,1-.174.227H.1c-.092,0-.128-.136-.073-.282L1.622.206A.5.5,0,0,1,1.8.006Z" transform="translate(310.113 68.45)" fill="#fff"/>
        <path id="Shape-187" data-name="Shape" d="M6.8,2.129,13.143,0,7.466,10.281,0,19.307,6.8,2.129Z" transform="translate(207.459 101.51)" fill="#455a64"/>
        <path id="Shape-188" data-name="Shape" d="M36.522,0,28.937,27.04l-12.125,13.9-3.2,9.035L0,57.765l9.108-14.1,7.466-9.026,5.677-10.281L36.522,0Z" transform="translate(198.351 77.154)" fill="#37474f"/>
        <path id="Shape-189" data-name="Shape" d="M60.14,0l.1,37.576-5.43-6.069-3.467,3.849L36.651,23.91,22.379,48.267,16.032,50.4l-6.8,17.178L.128,81.676l13.611-7.788L29.1,65.09,36.752,60.7,60.269,47.239.128,81.676,0,34.437,60.14,0Z" transform="translate(198.223 53.244)" fill="#ba68c8"/>
        <path id="Shape-190" data-name="Shape" d="M60.14,0l.1,37.576-5.43-6.069-3.467,3.849L36.651,23.91,22.379,48.267,16.032,50.4l-6.8,17.178L.128,81.676l13.611-7.788L29.1,65.09,36.752,60.7,60.269,47.239.128,81.676,0,34.437,60.14,0Z" transform="translate(198.223 53.244)" opacity="0.2"/>
        <path id="Shape-191" data-name="Shape" d="M18.059,0l5.43,6.069.028,9.662L0,29.2l2.21-4.322,6.182-6.587L18.059,0Z" transform="translate(234.975 84.751)" fill="#455a64"/>
        <path id="Shape-192" data-name="Shape" d="M22.911,0,37.6,11.446,24.232,26.294,15.363,41.179,0,49.977l3.2-9.035,12.125-13.9L22.911,0Z" transform="translate(211.962 77.154)" fill="#455a64"/>
        <path id="Shape-193" data-name="Shape" d="M0,40.406,70.55,0l.174,59.14L.174,99.545Z" transform="translate(192.995 44.327)" fill="#ba68c8"/>
        <path id="Shape-194" data-name="Shape" d="M0,40.406,70.55,0l.174,59.14L.174,99.545Z" transform="translate(192.995 44.327)" fill="#fff" opacity="0.6"/>
        <path id="Shape-195" data-name="Shape" d="M25.709,0,16.042,18.288,9.86,24.875,7.649,29.2,0,33.582,8.869,18.7,22.242,3.849,25.709,0Z" transform="translate(227.325 84.751)" fill="#37474f"/>
        <path id="Shape-196" data-name="Shape" d="M35.917,0,36,28.214.083,48.785,0,20.571,35.917,0Z" transform="translate(45.117 111.446)" fill="#ba68c8"/>
        <g id="Group-18" data-name="Group" transform="translate(45.117 111.446)" opacity="0.1">
          <path id="Shape-197" data-name="Shape" d="M35.917,0,36,28.214.083,48.785,0,20.571,35.917,0Z" transform="translate(0 0)"/>
        </g>
        <path id="Shape-198" data-name="Shape" d="M0,24.129,42.135,0l.1,35.3L.1,59.467Z" transform="translate(41.998 106.123)" fill="#ba68c8"/>
        <g id="Group-19" data-name="Group" transform="translate(41.998 106.123)" opacity="0.6">
          <path id="Shape-199" data-name="Shape" d="M0,24.129,42.135,0l.1,35.3L.1,59.467Z" transform="translate(0 0)" fill="#fff"/>
        </g>
        <path id="Shape-200" data-name="Shape" d="M6.173.156C6.815-.207,7.338.084,7.338.821V17.2A2.553,2.553,0,0,1,6.182,19.19L.064,22.72a21.265,21.265,0,0,0,4.4-12.055C4.458,6.707,2.687,4.214,0,3.678Z" transform="translate(68.725 119.396)" fill="#37474f"/>
        <path id="Shape-201" data-name="Shape" d="M0,12.767A15.027,15.027,0,0,1,6.879.939C10.685-1.245,13.785.511,13.8,4.851A15.027,15.027,0,0,1,6.924,16.679a6.338,6.338,0,0,1-3.1.94C1.565,17.62.013,15.845,0,12.767Z" transform="translate(56.215 127.039)" fill="#263238"/>
        <path id="Shape-202" data-name="Shape" d="M7.292,0A21.212,21.212,0,0,0,2.88,12.055c.009,3.958,1.779,6.451,4.458,6.988L1.22,22.564c-.642.364-1.174.073-1.174-.655L0,5.532a2.562,2.562,0,0,1,1.165-2Z" transform="translate(50.143 129.561)" fill="#37474f"/>
        <path id="Shape-203" data-name="Shape" d="M2.137.29C3.311-.383,4.274.154,4.283,1.5A4.652,4.652,0,0,1,2.146,5.14C.963,5.822.009,5.276,0,3.93A4.652,4.652,0,0,1,2.137.29Z" transform="translate(58.829 130.963)" fill="#fff"/>
        <path id="Shape-204" data-name="Shape" d="M4.458,25.65C1.779,25.113.009,22.629,0,18.662A21.189,21.189,0,0,1,4.411,6.607a18.962,18.962,0,0,1,5.65-5.222A8.308,8.308,0,0,1,15.767.075c2.687.537,4.448,3.03,4.467,6.988a21.2,21.2,0,0,1-4.4,12.055,19.022,19.022,0,0,1-5.7,5.277A8.312,8.312,0,0,1,4.458,25.65Z" transform="translate(53.023 122.999)" fill="#455a64"/>
        <path id="Shape-205" data-name="Shape" d="M0,25.94,45.291,0l.129,46.165L.129,72.1Z" transform="translate(246.146)" fill="#ba68c8"/>
        <path id="Shape-206" data-name="Shape" d="M0,25.94,45.291,0l.129,46.165L.129,72.1Z" transform="translate(246.146)" fill="#fff" opacity="0.6"/>
        <path id="Shape-207" data-name="Shape" d="M36.752,0,0,21.044l.1,36.43L36.853,36.43,36.752,0Z" transform="translate(250.429 7.315)" fill="#ba68c8"/>
        <g id="Group-20" data-name="Group" transform="translate(257.795 19.853)">
          <path id="Shape-208" data-name="Shape" d="M2.119.38A6.468,6.468,0,0,1,4.87.025a5.544,5.544,0,0,1,.66.109c1.752.419,1.568,1.82.917,3.485a5.015,5.015,0,0,1-1.963,2.73,3.285,3.285,0,0,1-1.532.428,4.623,4.623,0,0,1-.706,0A4.314,4.314,0,0,1,0,5.984l.394-.646A15.242,15.242,0,0,0,1.412,3.246a13.836,13.836,0,0,0,.633-2.129C2.055.817,2.119.6,2.119.38Z" transform="translate(15.243 12.876)" fill="#fff"/>
          <path id="Shape-209" data-name="Shape" d="M1.954,0a2.6,2.6,0,0,0,.917,1.292c.138-.209.275-.428.4-.646-.128.218-.266.437-.4.646a13.649,13.649,0,0,1-.917,1.283A12.474,12.474,0,0,1,.917,3.7L.5,4.1l.422-.4A2.647,2.647,0,0,0,0,2.384,10.3,10.3,0,0,0,1.954,0Z" transform="translate(12.308 17.496)" fill="#e0e0e0"/>
          <path id="Shape-210" data-name="Shape" d="M2.045.473A5.635,5.635,0,0,1,3.082,0a4.358,4.358,0,0,1-.11.664,13.836,13.836,0,0,1-.633,2.129A15.242,15.242,0,0,1,1.321,4.886c-.128.218-.266.437-.4.646A2.6,2.6,0,0,1,0,4.24,10.322,10.322,0,0,0,1.238,1.046,5.31,5.31,0,0,1,2.045.473Z" transform="translate(14.289 13.256)" fill="#f0f0f0"/>
          <path id="Shape-211" data-name="Shape" d="M3.32.395c2.128-.983,2.55,0,2.55,1.5A4.871,4.871,0,0,1,3.329,6.309a5.545,5.545,0,0,0-.624-.091A6.635,6.635,0,0,0,0,6.582,8.4,8.4,0,0,0,.1,5.235,7.4,7.4,0,0,0,0,4.007a17.865,17.865,0,0,0,2.7-2.73C2.907.959,3.128.668,3.32.395Z" transform="translate(17.407 6.683)" fill="#f0f0f0"/>
          <path id="Shape-212" data-name="Shape" d="M4.736,0a8.589,8.589,0,0,1,.459,3v.91A4.913,4.913,0,0,1,2.608,8.307C1.3,9.062.224,9.217.013,6.878a8.24,8.24,0,0,1,0-.91,13.77,13.77,0,0,1,.44-3.521l.431-.091a6.836,6.836,0,0,0,1.743-.71A10.57,10.57,0,0,0,4.378.355Z" transform="translate(8.516 21.199)" fill="#fff"/>
          <path id="Shape-213" data-name="Shape" d="M1.862,0a6.509,6.509,0,0,1,.11,1.228,8.4,8.4,0,0,1-.1,1.347,4.291,4.291,0,0,1-.11.673,5.282,5.282,0,0,1,.11-.664,5.635,5.635,0,0,0-1.036.473,5.311,5.311,0,0,0-.825.573A6.87,6.87,0,0,0,.147,2.275,5.237,5.237,0,0,0,0,1.083,3.831,3.831,0,0,0,.835.71,7.522,7.522,0,0,0,1.862,0Z" transform="translate(15.499 10.672)" fill="#e0e0e0"/>
          <path id="Shape-214" data-name="Shape" d="M3.43,0a2.647,2.647,0,0,1,.917,1.319l-.422.4A10.568,10.568,0,0,1,2.174,3.03a6.836,6.836,0,0,1-1.743.71L0,3.83A9.959,9.959,0,0,1,.917,1.456,5.27,5.27,0,0,0,2.174.937,8.341,8.341,0,0,0,3.43,0Z" transform="translate(8.905 19.879)" fill="#f0f0f0"/>
          <path id="Shape-215" data-name="Shape" d="M4.718,0a2.114,2.114,0,0,0,.128.528,4.26,4.26,0,0,0,.633,1.4,3.111,3.111,0,0,0,1.036.91,3.093,3.093,0,0,0,.394.182A20.449,20.449,0,0,1,4.663,6.387c-.238.309-.477.582-.7.819A6.908,6.908,0,0,1,2.434,8.534,1.3,1.3,0,0,1,.471,8.1c-.66-.91-.844-2.111.917-4.549.193-.273.413-.555.651-.855A17.866,17.866,0,0,1,4.718,0Z" transform="translate(0.032 20.48)" fill="#fff"/>
          <path id="Shape-216" data-name="Shape" d="M3.363,0a3.693,3.693,0,0,0,.917.218A3.994,3.994,0,0,0,5.317.164a13.77,13.77,0,0,0-.44,3.521,8.241,8.241,0,0,0,0,.91A5.746,5.746,0,0,1,2.8,7.324a2.318,2.318,0,0,1-1.44.291C.227,7.524-.47,6.915.373,4.185c.22-.237.459-.51.7-.819A20.79,20.79,0,0,0,3.363,0Z" transform="translate(3.579 23.528)" fill="#f0f0f0"/>
          <path id="Shape-217" data-name="Shape" d="M1.321,0A2.772,2.772,0,0,0,3.265.164a9.959,9.959,0,0,0-.917,2.375l.431-.091-.431.091a3.994,3.994,0,0,1-1.036.055,3.693,3.693,0,0,1-.917-.218C.257,2.311.128,2.256,0,2.184a3.093,3.093,0,0,0,.394.182A9.553,9.553,0,0,0,1.321,0Z" transform="translate(6.557 21.153)" fill="#e0e0e0"/>
          <path id="Shape-218" data-name="Shape" d="M.936,0A3.161,3.161,0,0,1,2.366,1.11a4.8,4.8,0,0,1,.752,1.938,7.522,7.522,0,0,1-1.027.71,3.831,3.831,0,0,1-.835.373A2.63,2.63,0,0,0,0,2.375,9.743,9.743,0,0,1,.936,0Z" transform="translate(14.243 7.624)" fill="#f0f0f0"/>
          <path id="Shape-219" data-name="Shape" d="M4.5.275A1.308,1.308,0,0,1,6.466.7c.66.91.844,2.12-.917,4.549-.193.273-.413.564-.66.864a17.865,17.865,0,0,1-2.7,2.73,4.944,4.944,0,0,0-.761-1.938A3.161,3.161,0,0,0,0,5.8,20.449,20.449,0,0,1,2.247,2.432c.238-.3.477-.573.7-.81A6.277,6.277,0,0,1,4.5.275Z" transform="translate(15.151 1.844)" fill="#fff"/>
          <path id="Shape-220" data-name="Shape" d="M.908.067A3.994,3.994,0,0,1,1.944.012,3.065,3.065,0,0,1,2.862.23a9.742,9.742,0,0,0-.917,2.375A2.679,2.679,0,0,0,0,2.441,10.131,10.131,0,0,0,.908.067Z" transform="translate(12.308 7.375)" fill="#e0e0e0"/>
          <path id="Shape-221" data-name="Shape" d="M1.018.364A3.96,3.96,0,0,1,1.844,0,2.648,2.648,0,0,0,3.1,1.756a9.552,9.552,0,0,1-.917,2.366,3.093,3.093,0,0,1-.394-.182A3.111,3.111,0,0,1,.752,3.03a4.26,4.26,0,0,1-.633-1.4A4.907,4.907,0,0,1,0,1.1,7.959,7.959,0,0,1,1.018.364Z" transform="translate(4.778 19.397)" fill="#f0f0f0"/>
          <path id="Shape-222" data-name="Shape" d="M4.54.655A4.606,4.606,0,0,1,5.8.136,2.466,2.466,0,0,1,7.864.346a2.429,2.429,0,0,1,1.161,1.71,5.237,5.237,0,0,1,.147,1.192A6.87,6.87,0,0,1,9.034,4.6a10.606,10.606,0,0,1-3.173,5.577,8.344,8.344,0,0,1-1.257.91,5.27,5.27,0,0,1-1.257.519A2.772,2.772,0,0,1,1.4,11.446,2.648,2.648,0,0,1,.147,9.69,5.417,5.417,0,0,1,0,8.489,6.843,6.843,0,0,1,.138,7.142a10.377,10.377,0,0,1,1.247-3.2A10.251,10.251,0,0,1,3.311,1.565,7.251,7.251,0,0,1,4.54.655Z" transform="translate(6.502 9.699)" fill="#ba68c8"/>
          <g id="Group-21" data-name="Group" transform="translate(6.502 9.699)" opacity="0.5">
            <path id="Shape-223" data-name="Shape" d="M4.54.655A4.606,4.606,0,0,1,5.8.136,2.466,2.466,0,0,1,7.864.346a2.429,2.429,0,0,1,1.161,1.71,5.237,5.237,0,0,1,.147,1.192A6.87,6.87,0,0,1,9.034,4.6a10.606,10.606,0,0,1-3.173,5.577,8.344,8.344,0,0,1-1.257.91,5.27,5.27,0,0,1-1.257.519A2.772,2.772,0,0,1,1.4,11.446,2.648,2.648,0,0,1,.147,9.69,5.417,5.417,0,0,1,0,8.489,6.843,6.843,0,0,1,.138,7.142a10.377,10.377,0,0,1,1.247-3.2A10.251,10.251,0,0,1,3.311,1.565,7.251,7.251,0,0,1,4.54.655Z" transform="translate(0 0)" fill="#fff"/>
          </g>
          <path id="Shape-224" data-name="Shape" d="M2.42.441A3.516,3.516,0,0,1,3.952.014a4.623,4.623,0,0,1,.706,0A4.4,4.4,0,0,1,6.905.8a16.546,16.546,0,0,0-1.412,2.73A12.918,12.918,0,0,0,4.75,6.319a6.468,6.468,0,0,1-2.706.373,6.043,6.043,0,0,1-.67-.109C-.368,6.164-.184,4.763.458,3.089A5.007,5.007,0,0,1,2.42.441Z" transform="translate(0 11.55)" fill="#fff"/>
          <path id="Shape-225" data-name="Shape" d="M.1,1.055A6.619,6.619,0,0,0,1.128.573,5.394,5.394,0,0,0,1.963,0a6.843,6.843,0,0,0-.138,1.347,5.417,5.417,0,0,0,.147,1.2,3.96,3.96,0,0,0-.825.364A7.962,7.962,0,0,0,.11,3.63a4.907,4.907,0,0,0,.119.528A4.907,4.907,0,0,1,.11,3.63,6.545,6.545,0,0,1,0,2.393,8.368,8.368,0,0,1,.1,1.055Z" transform="translate(4.649 16.85)" fill="#e0e0e0"/>
          <path id="Shape-226" data-name="Shape" d="M2.467.309A2.308,2.308,0,0,1,3.907.018c1.137.091,1.834.7.991,3.43-.22.237-.459.51-.7.81A20.449,20.449,0,0,0,1.954,7.624a3.065,3.065,0,0,0-.917-.218A4.419,4.419,0,0,0,0,7.451,13.707,13.707,0,0,0,.44,3.939a8.538,8.538,0,0,0,0-.91A5.754,5.754,0,0,1,2.467.309Z" transform="translate(13.225 0)" fill="#f0f0f0"/>
          <path id="Shape-227" data-name="Shape" d="M2.174.8A6.453,6.453,0,0,1,4.347,0,10.131,10.131,0,0,1,3.43,2.375a4.606,4.606,0,0,0-1.257.519A7.253,7.253,0,0,0,.917,3.8,2.647,2.647,0,0,1,0,2.484,10.766,10.766,0,0,1,2.174.8Z" transform="translate(8.868 7.46)" fill="#f0f0f0"/>
          <path id="Shape-228" data-name="Shape" d="M1.926,0a2.638,2.638,0,0,0,.917,1.328A10.251,10.251,0,0,0,.917,3.7,2.621,2.621,0,0,0,0,2.42,13.175,13.175,0,0,1,1.954,0Z" transform="translate(6.942 9.944)" fill="#e0e0e0"/>
          <path id="Shape-229" data-name="Shape" d="M2.653.494c1.3-.746,2.385-.91,2.6,1.419a8.538,8.538,0,0,1,0,.91,13.707,13.707,0,0,1-.44,3.512,6.683,6.683,0,0,0-2.174.81A10.765,10.765,0,0,0,.461,8.837a8.661,8.661,0,0,1-.459-3v-.91C.269,2.332,1.342,1.24,2.653.494Z" transform="translate(8.37 1.153)" fill="#fff"/>
          <path id="Shape-230" data-name="Shape" d="M2.8.242A1.558,1.558,0,0,1,4.886.624v.91a8.571,8.571,0,0,0,.459,2.993A12.618,12.618,0,0,0,4.281,5.7a15.57,15.57,0,0,0-.917,1.274,4.4,4.4,0,0,0-2.247-.782,4.623,4.623,0,0,0-.706,0c-.917-1.71-.165-3.157.963-4.549A5.8,5.8,0,0,1,2.8.242Z" transform="translate(3.551 5.38)" fill="#f0f0f0"/>
        </g>
        <path id="Shape-231" data-name="Shape" d="M2.192,0a2.621,2.621,0,0,1,.917,1.283,10.377,10.377,0,0,0-1.247,3.2,5.394,5.394,0,0,1-.835.573A5.837,5.837,0,0,1,0,5.532,12.918,12.918,0,0,1,.743,2.739,15.506,15.506,0,0,1,2.192,0Z" transform="translate(262.518 32.217)" fill="#f0f0f0"/>
        <path id="Shape-232" data-name="Shape" d="M2.531.255A6.043,6.043,0,0,0,3.2.364,6.635,6.635,0,0,0,5.907,0a8.368,8.368,0,0,0-.1,1.337,7.429,7.429,0,0,0,.1,1.237A17.865,17.865,0,0,0,3.21,5.3c-.238.3-.459.582-.651.855C.422,7.151,0,6.16,0,4.667A4.887,4.887,0,0,1,2.531.255Z" transform="translate(256.639 37.758)" fill="#f0f0f0"/>
        <path id="Shape-233" data-name="Shape" d="M1.99,0A4.314,4.314,0,0,0,4.237.792a4.623,4.623,0,0,0,.706,0c.917,1.71.165,3.157-.963,4.549A5.8,5.8,0,0,1,2.541,6.7,1.558,1.558,0,0,1,.459,6.314V5.4A8.589,8.589,0,0,0,0,2.4,12.474,12.474,0,0,0,1.036,1.274,15.713,15.713,0,0,0,1.99,0Z" transform="translate(271.02 38.641)" fill="#f0f0f0"/>
      </g>
    </g>
  </g>
</svg>
