<svg id="Group_14" data-name="Group 14" xmlns="http://www.w3.org/2000/svg" xmlns:xlink="http://www.w3.org/1999/xlink" width="295.227" height="243.229" viewBox="0 0 295.227 243.229">
  <defs>
    <linearGradient id="linear-gradient" x1="0.5" y1="1" x2="0.5" gradientUnits="objectBoundingBox">
      <stop offset="0" stop-color="#baf49f"/>
      <stop offset="1" stop-color="#90e7c8"/>
    </linearGradient>
    <clipPath id="clip-path">
      <path id="Rectangle_13" data-name="Rectangle 13" d="M0,0H295.227V243.229H0Z" fill="url(#linear-gradient)"/>
    </clipPath>
    <linearGradient id="linear-gradient-3" x1="0.5" y1="0.043" x2="0.5" y2="0.986" gradientUnits="objectBoundingBox">
      <stop offset="0" stop-color="#fab961"/>
      <stop offset="1" stop-color="#f7901c"/>
    </linearGradient>
  </defs>
  <path id="Rectangle_13-2" data-name="Rectangle 13" d="M0,0H295.227V243.229H0Z" fill="url(#linear-gradient)"/>
  <g id="Group_14-2" data-name="Group 14" clip-path="url(#clip-path)">
    <g id="Group_23" data-name="Group 23" transform="translate(53.822 15.849)">
      <g id="Group_21" data-name="Group 21" transform="translate(0 0)">
        <path id="Fill_1" data-name="Fill 1" d="M0,243.718H31.678V0H0Z" transform="translate(132.719)" fill="#a7f9b7"/>
        <path id="Fill_3" data-name="Fill 3" d="M0,169.379H31.678V0H0Z" transform="translate(88.479 74.34)" fill="#a7f9b7"/>
        <path id="Fill_5" data-name="Fill 5" d="M0,190.915H31.678V0H0Z" transform="translate(177.595 52.804)" fill="#a7f9b7"/>
        <path id="Fill_7" data-name="Fill 7" d="M0,198.423H31.678V0H0Z" transform="translate(44.24 45.296)" fill="#a7f9b7"/>
        <path id="Fill_9" data-name="Fill 9" d="M0,139.591H31.678V0H0Z" transform="translate(0 104.127)" fill="#a7f9b7"/>
        <path id="Fill_11" data-name="Fill 11" d="M0,187.548H31.678V0H0Z" transform="translate(132.719 56.17)" fill="#67dba5"/>
        <path id="Fill_13" data-name="Fill 13" d="M0,130.342H31.678V0H0Z" transform="translate(88.479 113.377)" fill="#67dba5"/>
        <path id="Fill_15" data-name="Fill 15" d="M0,146.914H31.678V0H0Z" transform="translate(177.595 96.804)" fill="#67dba5"/>
        <path id="Fill_17" data-name="Fill 17" d="M0,152.692H31.678V0H0Z" transform="translate(44.24 91.027)" fill="#67dba5"/>
      </g>
      <path id="Fill_22" data-name="Fill 22" d="M199.38,18.975l9.629.61L148.753,125,115.39,75.278,68.194,184.7,37.837,141.843,0,195.006l2.381,9.515,35.44-49.554,32.089,45.3L116.933,91.249l32.371,48.24,66.71-116.7,6.193,6.62L224.622,0Z" transform="translate(0.048 1.865)" fill="url(#linear-gradient-3)"/>
    </g>
    <g id="_4Asset_1" data-name="4Asset 1" transform="translate(-41.158 60.415)">
      <path id="Shape" d="M167.338,130.669C123.9,96.393,87.395,52.058,59.754,0L0,47.559C31.956,107.75,74.163,159.011,124.4,198.643Q145.871,164.656,167.338,130.669Z" transform="translate(27.563)" fill="#3c8f7c"/>
      <path id="Shape-2" data-name="Shape" d="M39.631,0,2.512,30.023C5.46,35.471,4.391,42.808,0,46.531,28.094,95.747,63.3,138.51,104.3,173.207a9.57,9.57,0,0,1,14.219-2.3l27.072-42.213c-4.171-3.361-4.774-10.226-1.424-15.206-36-30.47-66.926-68.021-91.59-111.24C48.191,5.979,42.344,5.008,39.631,0Z" transform="translate(38.33 12.43)" fill="#76d4a2"/>
      <path id="Shape-3" data-name="Shape" d="M42.041,47.9c9.275-11.861,9.188-29.36.438-39.823S18.714-2.859,8.352,7.7-2.991,36.955,6.872,48.71,32.783,59.737,42.041,47.9Z" transform="translate(85.923 77.041)" fill="#50bfa5"/>
      <path id="Shape-4" data-name="Shape" d="M31.01,4.269l-3.5,3.845c2.789,5.072,2.2,10.3-.808,13.713s-6.435,3.757-11.614.721c-3.763-2.106-5.572-2.728-6.717-1.5-.971,1.039-1.293,2.925.758,5.5a14.168,14.168,0,0,0,3.223,2.989,3.431,3.431,0,0,1,.921,4.382h0a2.512,2.512,0,0,1-3.712,1.067,19.737,19.737,0,0,1-3.392-3.12L3.138,35.171Q1.566,33.21,0,31.223q1.646-1.766,3.291-3.537c-2.654-5.1-2.133-10.162.948-13.376,3.413-3.55,7.358-2.461,11.882.351,3.138,1.939,4.954,2.254,6.257.813,1.369-1.514.923-3.819-.8-6a15.351,15.351,0,0,0-3.913-3.483,3.29,3.29,0,0,1-.8-4.381c.032-.054.064-.111.1-.165A2.52,2.52,0,0,1,20.508.367a20.758,20.758,0,0,1,4.3,3.783L28.1.6Q29.55,2.445,31.01,4.269Z" transform="translate(96.34 87.011)" fill="#3c8f7c"/>
      <path id="Shape-5" data-name="Shape" d="M33.306,26.674Q18.455,14.075,4.708,0L0,6.067q13.929,14.261,29.008,27.05Z" transform="translate(128.885 128.783)" fill="#50bfa5"/>
      <path id="Shape-6" data-name="Shape" d="M186.047,53.316C131.479,46.46,77.961,28.37,28.306,0L0,65.729c57.4,32.8,119.28,53.724,182.375,61.645Q184.212,90.344,186.047,53.316Z" transform="translate(0 63.533)" fill="#3c8f7c"/>
      <path id="Shape-7" data-name="Shape" d="M17.355,4.281,0,45.483c5.24,2.94,7.936,9.268,5.972,14.276a487.636,487.636,0,0,0,152.91,51.689c.446-5.526,5.443-9.253,11.186-8.483q1.327-23.088,2.641-46.176c-5.28-.71-9.186-5.88-8.74-11.4A428.4,428.4,0,0,1,29.69,0,8.455,8.455,0,0,1,17.355,4.281Z" transform="translate(8.985 73.5)" fill="#76d4a2"/>
      <path id="Shape-8" data-name="Shape" d="M49.946,33.055C52.132,19.3,43.429,5.453,30.67,1.243,17.912-2.934,4.678,3.7.9,16.93S5.513,45.46,19.863,50.179,47.769,46.786,49.946,33.055Z" transform="translate(75.256 110.596)" fill="#50bfa5"/>
      <path id="Shape-9" data-name="Shape" d="M18.532,1.548q-.569,2.344-1.138,4.7c4.916,2.712,6.988,7.138,6.067,11.271-.931,4.155-3.72,6-9.711,6.011-4.3.092-6.175.445-6.56,1.959-.328,1.279.324,2.927,3.377,4.007a14.922,14.922,0,0,0,4.266.862A3.208,3.208,0,0,1,17.794,33.4h0a2.452,2.452,0,0,1-2.69,2.585,20.882,20.882,0,0,1-4.48-.887q-.493,2.019-.99,4.042-2.343-.819-4.683-1.666Q5.509,35.3,6.06,33.127C1.237,30.33-.8,26.06.287,22.062c1.206-4.416,5.165-5.4,10.471-5.286,3.674.069,5.4-.539,5.821-2.284.44-1.841-1.083-3.462-3.653-4.384a16.249,16.249,0,0,0-5.119-.93,3.059,3.059,0,0,1-2.853-3.1V5.887A2.457,2.457,0,0,1,7.494,3.37a22.045,22.045,0,0,1,5.6.984Q13.637,2.175,14.184,0,16.351.785,18.532,1.548Z" transform="translate(89.536 115.679)" fill="#3c8f7c"/>
      <path id="Shape-10" data-name="Shape" d="M24.44,3.328a33.653,33.653,0,0,1-3.883-1.54A19.791,19.791,0,0,0,16.126.14c-2.45-.376-6.66-.124-8.985,2.367C4.244,5.608-.9,3.07.136,19.315,1.308,37.707,11.665,35.69,11.917,35.378s9.237-11.763,9.237-11.763S24.3,30.4,24.3,30.152,40.341,8.614,24.44,3.328Z" transform="translate(136.549 4.411)" fill="#0e2e35"/>
      <path id="Shape-11" data-name="Shape" d="M139.618,0C96.685,16.807,49.313,24.489,0,22.643Q4.91,53.825,9.819,85.008c57.016,2.134,111.788-6.749,161.429-26.182Z" transform="translate(32.288 128.99)" fill="#3c8f7c"/>
      <path id="Shape-12" data-name="Shape" d="M0,27.574Q3.223,47.04,6.446,66.51c5.18.152,10.077,3.96,10.966,8.641,47.434.344,93.122-7.067,135.348-21.952a7.8,7.8,0,0,1,4.217-11.1Q147.242,23.693,137.51,5.284c-4.171,1.591-9.415-.828-11.649-5.284C88.775,13.059,48.653,19.566,7,19.269,7.887,23.937,4.764,27.722,0,27.574Z" transform="translate(37.45 135.891)" fill="#76d4a2"/>
      <path id="Shape-13" data-name="Shape" d="M44.09,17.126C39.31,5.588,26.549-1.6,15.31.306,4.082,2.243-2.489,12.739.887,24.517S17.462,44.741,30.1,42.571,48.866,28.641,44.09,17.126Z" transform="translate(95.9 157.276)" fill="#50bfa5"/>
      <path id="Shape-14" data-name="Shape" d="M8.223,0l1.34,4.089c4.838.109,8.4,2.7,9.639,6.263,1.248,3.593.07,6.152-4.289,8.59-3.075,1.815-4.287,2.846-3.866,4.176.353,1.127,1.593,2.134,4.317,1.734a11.9,11.9,0,0,0,3.507-1.061,2.91,2.91,0,0,1,3.57,1.159h0a2.053,2.053,0,0,1-.758,3.092,16.642,16.642,0,0,1-3.674,1.127q.569,1.764,1.151,3.53-2.086.316-4.182.609L13.77,29.49C8.96,29.279,5.5,26.8,4.44,23.263,3.27,19.354,5.7,16.991,9.62,14.926c2.709-1.435,3.686-2.607,3.181-4.133-.531-1.6-2.393-2.243-4.692-1.914a12.833,12.833,0,0,0-4.16,1.358A2.786,2.786,0,0,1,.432,8.99l-.08-.139a2.06,2.06,0,0,1,.684-2.979,17.513,17.513,0,0,1,4.529-1.5L4.349.554Q6.289.291,8.223,0Z" transform="translate(107.037 160.89)" fill="#3c8f7c"/>
      <path id="Shape-15" data-name="Shape" d="M31.252,0Q15.935,5.378,0,9.358q1.229,2.94,2.465,5.876,16.144-4.035,31.69-9.49Q32.7,2.874,31.252,0Z" transform="translate(145.12 162.618)" fill="#50bfa5"/>
      <path id="Shape-16" data-name="Shape" d="M0,0V15.231c0,2.461,27.722,4.458,61.919,4.458s61.919-2,61.919-4.458V0Z" transform="translate(101.07 197.553)" fill="#e59f39"/>
      <path id="Shape-17" data-name="Shape" d="M44.81,19.515V0H0V15.231C0,17.265,18.942,18.982,44.81,19.515Z" transform="translate(101.07 197.553)" fill="#eab054"/>
      <path id="Shape-18" data-name="Shape" d="M0,19.557c4.81.086,9.842.131,15.023.131,7.72,0,15.111-.1,21.926-.287V0H0Z" transform="translate(147.966 197.553)" fill="#eab054"/>
      <path id="Shape-19" data-name="Shape" d="M0,19.329c22.061-.684,37.511-2.254,37.511-4.1V0H0Z" transform="translate(187.397 197.553)" fill="#eab054"/>
      <path id="Oval" d="M61.919,0c34.2,0,61.919,2,61.919,4.458S96.116,8.915,61.919,8.915,0,6.919,0,4.458,27.722,0,61.919,0Z" transform="translate(101.07 192.934)" fill="#e59f39"/>
      <path id="Shape-20" data-name="Shape" d="M101.978,3.09c0,1.708-22.829,3.09-50.989,3.09S0,4.8,0,3.09,22.829,0,50.989,0,101.978,1.383,101.978,3.09Z" transform="translate(112 194.302)" fill="#f7cc7f"/>
      <path id="Shape-21" data-name="Shape" d="M0,0V15.236C0,17.7,27.722,19.7,61.919,19.7s61.921-2,61.921-4.459V0Z" transform="translate(90.476 181.438)" fill="#e59f39"/>
      <path id="Shape-22" data-name="Shape" d="M44.81,19.515V0H0V15.236C0,17.263,18.935,18.98,44.81,19.515Z" transform="translate(90.476 181.438)" fill="#eab054"/>
      <path id="Shape-23" data-name="Shape" d="M0,19.557c4.81.086,9.844.133,15.023.133,7.722,0,15.112-.1,21.928-.289V0H0Z" transform="translate(137.371 181.438)" fill="#eab054"/>
      <path id="Shape-24" data-name="Shape" d="M0,19.327c22.061-.682,37.513-2.254,37.513-4.1V0H0Z" transform="translate(176.803 181.438)" fill="#eab054"/>
      <path id="Oval-2" data-name="Oval" d="M61.919,0c34.2,0,61.919,2,61.919,4.458S96.116,8.915,61.919,8.915,0,6.919,0,4.458,27.722,0,61.919,0Z" transform="translate(90.476 176.819)" fill="#e59f39"/>
      <path id="Shape-25" data-name="Shape" d="M101.98,3.092c0,1.706-22.829,3.09-51,3.09S0,4.8,0,3.092,22.829,0,50.989,0,101.98,1.39,101.98,3.092Z" transform="translate(101.406 178.179)" fill="#f7cc7f"/>
      <path id="Shape-26" data-name="Shape" d="M0,0V15.231c0,2.463,27.722,4.458,61.919,4.458s61.921-1.995,61.921-4.458V0Z" transform="translate(97.534 164.893)" fill="#e59f39"/>
      <path id="Shape-27" data-name="Shape" d="M44.81,19.515V0H0V15.231C0,17.265,18.935,18.982,44.81,19.515Z" transform="translate(97.534 164.893)" fill="#eab054"/>
      <path id="Shape-28" data-name="Shape" d="M0,19.557c4.81.086,9.842.131,15.023.131,7.72,0,15.111-.1,21.928-.287V0H0Z" transform="translate(144.43 164.893)" fill="#eab054"/>
      <path id="Shape-29" data-name="Shape" d="M0,19.329c22.061-.684,37.513-2.254,37.513-4.1V0H0Z" transform="translate(183.861 164.893)" fill="#eab054"/>
      <path id="Oval-3" data-name="Oval" d="M61.919,0c34.2,0,61.919,2,61.919,4.458S96.116,8.915,61.919,8.915,0,6.919,0,4.458,27.722,0,61.919,0Z" transform="translate(97.534 160.273)" fill="#e59f39"/>
      <path id="Shape-30" data-name="Shape" d="M101.984,3.1c0,1.708-22.829,3.09-51,3.09S0,4.79,0,3.1,22.829,0,50.983,0,101.984,1.383,101.984,3.1Z" transform="translate(108.464 161.641)" fill="#f7cc7f"/>
      <path id="Shape-31" data-name="Shape" d="M0,0V15.227c0,2.463,27.722,4.458,61.919,4.458s61.921-1.995,61.921-4.458V0Z" transform="translate(90.476 148.574)" fill="#e59f39"/>
      <path id="Shape-32" data-name="Shape" d="M44.81,19.515V0H0V15.227C0,17.265,18.935,18.984,44.81,19.515Z" transform="translate(90.476 148.574)" fill="#eab054"/>
      <path id="Shape-33" data-name="Shape" d="M0,19.557c4.81.086,9.844.131,15.023.131,7.722,0,15.112-.1,21.928-.287V0H0Z" transform="translate(137.371 148.574)" fill="#eab054"/>
      <path id="Shape-34" data-name="Shape" d="M0,19.329c22.061-.682,37.513-2.254,37.513-4.1V0H0Z" transform="translate(176.803 148.574)" fill="#eab054"/>
      <path id="Oval-4" data-name="Oval" d="M61.919,0c34.2,0,61.919,2,61.919,4.458S96.116,8.915,61.919,8.915,0,6.919,0,4.458,27.722,0,61.919,0Z" transform="translate(90.476 143.955)" fill="#e59f39"/>
      <path id="Shape-35" data-name="Shape" d="M101.99,3.09c0,1.708-22.829,3.092-51,3.092S0,4.8,0,3.09,22.829,0,50.989,0,101.99,1.384,101.99,3.09Z" transform="translate(101.396 145.323)" fill="#f7cc7f"/>
      <path id="Shape-36" data-name="Shape" d="M0,1.807S1.471,9.546,1.473,9.561c.082,1.009.051,3.558.271,4.439.827,3.308,14.874-4.734,11.186-5.38a15.258,15.258,0,0,1-3.3-3.509A30.5,30.5,0,0,1,7.777,0Z" transform="translate(202.883 197.48)" fill="#f6cba4"/>
      <path id="Shape-37" data-name="Shape" d="M13.26,1.116A55.456,55.456,0,0,1,7.788,2.187C5.944,2.369,3.574-.469,2.25.068.794.658,0,9.67,0,9.67s23.17,1.044,28.647-.453C30.816,8.624,20.47,3.853,13.26,1.116Z" transform="translate(201.86 204.501)" fill="#f47458"/>
      <path id="Shape-38" data-name="Shape" d="M0,1.807S1.471,9.546,1.473,9.561c.082,1.009.051,3.558.271,4.439.827,3.308,14.616-4.2,10.93-4.85A20.431,20.431,0,0,1,9.628,5.111,30.5,30.5,0,0,1,7.779,0Z" transform="translate(235.192 197.121)" fill="#f6cba4"/>
      <path id="Shape-39" data-name="Shape" d="M13.26,1.116A55.456,55.456,0,0,1,7.788,2.187C5.944,2.369,3.574-.469,2.25.068.794.658,0,9.67,0,9.67s23.17,1.044,28.647-.453C30.816,8.624,20.468,3.853,13.26,1.116Z" transform="translate(233.812 204.501)" fill="#f47458"/>
      <path id="Shape-40" data-name="Shape" d="M.748,11.653,42.9,1.966s18.9-4.952,23.468.862S90.3,88.861,90.3,88.861s-10,.862-10.646.432l-23.4-41.138A35.72,35.72,0,0,1,51.946,35.5L50.287,23.718,33.121,28.661S13.348,32.966,5.31,28.014.748,11.653.748,11.653Z" transform="translate(154.108 109.819)" fill="#0e2e35"/>
      <path id="Shape-41" data-name="Shape" d="M6.372,0c.667.026,2.491.629,5.159,5.607,3.413,6.359,8.386,25.564,8.386,25.564L5.055,36.637,3.145,32.629,0,1.766S6.188-.007,6.372,0Z" transform="translate(164.669 49.473)" fill="#bac4c9"/>
      <path id="Shape-42" data-name="Shape" d="M26.357,0C30.608,0,41.125,1.23,46,2.769c0,0,3.587,30.431-3.223,53.557-1.517,5.175,1.261,21.458,1.261,21.458L0,77.208S5.214,37.847,3.248,31.49,1.232,2.974,1.232,2.974s.3-.045,9.895-1.691A100.876,100.876,0,0,1,26.357,0Z" transform="translate(125.036 46.704)" fill="#bac4c9"/>
      <path id="Shape-43" data-name="Shape" d="M6.868.046C10.986-1.479,13,35.158,13.555,50.237c7.294.693,20,0,23.168-.229,1.488-.111,4.92-1.351,6.4-1.542a14.986,14.986,0,0,1,3.638-.171c.273.047,7.874,3.116,8.532,3.791.808.834,2.986,2.94,2.618,3.851S53.72,53.4,53.72,53.4l-1.877-1.031c2.33,2.241,6.765,5.2,6.122,6.272s-4.626-1.95-7.479-3.994c2.446,2.183,5.487,6.088,4.787,6.7-.629.549-4.09-3.975-7.785-5.277-1.371-.483-2.736.855-3.813,1.014a7.713,7.713,0,0,1-2.791.154l-3.708-.359a19.546,19.546,0,0,0-3.066.441c-1.6.336-4.22.689-6.257,1.182-11.723,2.827-15.632,4.133-19.219,4.133C-2.234,62.634-2.864,3.651,6.868.046Z" transform="translate(118.925 53.014)" fill="#f6cba4"/>
      <path id="Shape-44" data-name="Shape" d="M.3,37.866C-.474,22.42-.36,3.382,8.409.132c3.46-1.281,9.559,6.424,8.463,38.048C12.191,38.561,5.317,38.868.3,37.866Z" transform="translate(117.68 49.591)" fill="#bac4c9"/>
      <path id="Shape-45" data-name="Shape" d="M78.589.007,37.094,2.693a2.707,2.707,0,0,0-2.383,1.826l-10.75,31.7L1.085,37.7a1.164,1.164,0,0,0-.8.389A1.143,1.143,0,0,0,0,38.926H0a1.144,1.144,0,0,0,.393.789A1.165,1.165,0,0,0,1.237,40l65.106-4.213a4.546,4.546,0,0,0,3.981-2.927l11-29.227a2.668,2.668,0,0,0-.367-2.551A2.723,2.723,0,0,0,78.589.007Z" transform="translate(137.06 78.009)" fill="#f4f4f4"/>
      <path id="Shape-46" data-name="Shape" d="M4.533,2.7A2.434,2.434,0,0,1,2.119,5.136,2.426,2.426,0,0,1,.005,2.445,2.45,2.45,0,0,1,2.419,0,2.429,2.429,0,0,1,4.533,2.7Z" transform="translate(190.441 94.903)" fill="#9b9b9b"/>
      <path id="Shape-47" data-name="Shape" d="M.381,8.633,46.313.775S66.173-2.23,70.737,3.593,88.558,84.752,88.558,84.752s-9.993.86-10.646.43c-.5-.334-12.606-25.453-18.04-36.771a42.679,42.679,0,0,1-3.6-11.323L54.523,26.831,48.744,28.8A71.2,71.2,0,0,1,17.1,32.159c-4.463-.549-8.628-1.5-11.213-3.086C-2.16,24.121.381,8.633.381,8.633Z" transform="translate(124.679 114.286)" fill="#184655"/>
      <path id="Shape-48" data-name="Shape" d="M10.63,10.345l.895,6.575s2,9.467-.569,11.293S0,16.649,0,16.649L.88,0Z" transform="translate(142.496 30.807)" fill="#f6cba4"/>
      <path id="Shape-49" data-name="Shape" d="M0,5.391A18.975,18.975,0,0,0,10.8,15.911l-.758-5.571L.286,0Z" transform="translate(143.09 30.807)" fill="#c2946a"/>
      <path id="Shape-50" data-name="Shape" d="M11.252.112A8.836,8.836,0,0,1,21.473,8.974a65.782,65.782,0,0,1-.747,8.429C19.537,24.99,14.3,31.67,10.831,31.073S-1.356,23.934.18,13.137C1.128,6.472,5.522,1.025,11.252.112Z" transform="translate(141.346 12.568)" fill="#f6cba4"/>
      <path id="Shape-51" data-name="Shape" d="M5.042,3.481A2.847,2.847,0,0,1,2.02,6.072,2.827,2.827,0,0,1,.056,2.623,2.848,2.848,0,0,1,3.078.031,2.829,2.829,0,0,1,5.042,3.481Z" transform="translate(138.887 23.512)" fill="#f6cba4"/>
      <path id="Shape-52" data-name="Shape" d="M1.333,13.493s4.192,1.029,5.747-1.632,7.115-8.4,14.185-6.024S15.044.047,14.479.047,7.127,0,7.127,0,1.9,4.249,1.706,4.717,0,10.273,0,10.273Z" transform="translate(140.632 10.05)" fill="#0e2e35"/>
    </g>
  </g>
</svg>
