<svg id="Group_37" data-name="Group 37" xmlns="http://www.w3.org/2000/svg" xmlns:xlink="http://www.w3.org/1999/xlink" width="98.409" height="34.229" viewBox="0 0 98.409 34.229">
  <defs>
    <linearGradient id="linear-gradient" x1="0.5" x2="0.5" y2="0.998" gradientUnits="objectBoundingBox">
      <stop offset="0" stop-color="#1d36a0"/>
      <stop offset="1" stop-color="#0e0e55"/>
    </linearGradient>
  </defs>
  <path id="Combined_Shape" data-name="Combined Shape" d="M17.115,0h64.18a17.115,17.115,0,1,1,0,34.229H17.115A17.115,17.115,0,0,1,17.115,0Z" fill="url(#linear-gradient)"/>
  <g id="logo" transform="translate(13.002 9.1)">
    <path id="Fill_1" data-name="Fill 1" d="M0,8.232H2.337V0H0Z" transform="translate(0 4.64)" fill="#fff"/>
    <path id="Fill_2" data-name="Fill 2" d="M2.32.191v.938c.075-.085.165-.185.271-.3a2.744,2.744,0,0,1,.494-.4A3.028,3.028,0,0,1,3.812.1,2.853,2.853,0,0,1,4.6,0a4.406,4.406,0,0,1,.447.032A2.787,2.787,0,0,1,6.34.541a2.418,2.418,0,0,1,.606.651,2.6,2.6,0,0,1,.311.66,3.907,3.907,0,0,1,.144.691,6.373,6.373,0,0,1,.039.707V8.423H5.024V4.116c0-.159,0-.328.009-.508A2.871,2.871,0,0,0,5,3.083a1.629,1.629,0,0,0-.151-.477.994.994,0,0,0-.35-.381,2.017,2.017,0,0,0-.27-.143A1.085,1.085,0,0,0,3.784,2a1.181,1.181,0,0,0-.8.278,2.242,2.242,0,0,0-.373.421,1.8,1.8,0,0,0-.191.7q-.016.207-.023.461t-.008.588V8.423H0V.191Z" transform="translate(3.681 4.45)" fill="#fff"/>
    <path id="Fill_4" data-name="Fill 4" d="M5.153,2.877a1.354,1.354,0,0,1-.048-.23,1.139,1.139,0,0,0-.129-.374,1.241,1.241,0,0,0-.442-.389A1.714,1.714,0,0,0,3.672,1.7q-1.143,0-1.143.685a1.069,1.069,0,0,0,.016.152.292.292,0,0,0,.112.183.837.837,0,0,0,.264.168,3.262,3.262,0,0,0,.36.127q.192.056.368.1c.117.026.218.045.3.056q1.056.223,1.7.422A3.375,3.375,0,0,1,6.7,4.106a2.4,2.4,0,0,1,.488.5,1.954,1.954,0,0,1,.264.51,2.383,2.383,0,0,1,.1.462,3.258,3.258,0,0,1,.024.343,2.761,2.761,0,0,1-.088.732,2.723,2.723,0,0,1-.216.558,1.809,1.809,0,0,1-.28.4c-.1.106-.195.2-.28.271a2.929,2.929,0,0,1-.816.486,5.052,5.052,0,0,1-.832.247,4.265,4.265,0,0,1-.712.088c-.208.005-.35.008-.424.008s-.253-.006-.5-.016a5.306,5.306,0,0,1-.864-.119,4.682,4.682,0,0,1-1-.341,2.721,2.721,0,0,1-.912-.7A4.239,4.239,0,0,1,.384,7.16,2.284,2.284,0,0,1,.1,6.5a2.177,2.177,0,0,1-.088-.509Q0,5.769,0,5.658l2.24-.08q.048.271.08.421a.85.85,0,0,0,.112.279,1.2,1.2,0,0,0,.523.493,2.322,2.322,0,0,0,1.054.19,1.514,1.514,0,0,0,.909-.215A.675.675,0,0,0,5.2,6.182.743.743,0,0,0,5.168,6a.622.622,0,0,0-.144-.246,1.123,1.123,0,0,0-.53-.262Q4.14,5.4,3.916,5.34q-.417-.1-.819-.191t-.819-.206q-.209-.063-.546-.183a2.4,2.4,0,0,1-.666-.373A2.218,2.218,0,0,1,.5,3.7a2.22,2.22,0,0,1-.241-1.1A4.61,4.61,0,0,1,.3,2.13a1.872,1.872,0,0,1,.249-.7A2.448,2.448,0,0,1,.962.89a2.553,2.553,0,0,1,.65-.453A3.989,3.989,0,0,1,2.536.119,5.591,5.591,0,0,1,3.756,0Q3.9,0,4.229.016a4.2,4.2,0,0,1,.739.11,4.382,4.382,0,0,1,.849.3,2.757,2.757,0,0,1,.808.583,3.419,3.419,0,0,1,.328.4,2.317,2.317,0,0,1,.328.736,3.484,3.484,0,0,1,.064.389c.01.111.016.193.016.246Z" transform="translate(11.89 4.402)" fill="#fff"/>
    <path id="Fill_6" data-name="Fill 6" d="M2.352,11.013H0V.206H2.288v.97c.058-.07.116-.143.176-.223A1.236,1.236,0,0,1,2.656.747a3.186,3.186,0,0,1,.7-.485A2.691,2.691,0,0,1,4.64,0,3.216,3.216,0,0,1,5.689.159a3.385,3.385,0,0,1,.792.39,2.624,2.624,0,0,1,.544.484c.143.175.253.315.336.429a3.907,3.907,0,0,1,.4.866,5.987,5.987,0,0,1,.208.85,6.818,6.818,0,0,1,.08.707c.013.245.015.373.015.437,0,.126-.008.334-.023.588a4.864,4.864,0,0,1-.16.93,5.09,5.09,0,0,1-.424,1.065,3.314,3.314,0,0,1-.816.993l-.061.045-.252.186a2.236,2.236,0,0,1-.447.246,3.9,3.9,0,0,1-.6.19,3.285,3.285,0,0,1-.752.079c-.069,0-.169,0-.288-.008a3.236,3.236,0,0,1-.448-.055,2.39,2.39,0,0,1-.8-.3,3.979,3.979,0,0,1-.64-.556v3.288ZM4.064,1.907a2.647,2.647,0,0,0-.416.048,1.3,1.3,0,0,0-.56.27,1.741,1.741,0,0,0-.568.756,3.566,3.566,0,0,0-.184,1.375,5.516,5.516,0,0,0,.1,1.049,1.57,1.57,0,0,0,.519.906,1.334,1.334,0,0,0,.488.294,1.8,1.8,0,0,0,.568.087c.047,0,.129-.005.232-.015a1.262,1.262,0,0,0,.36-.1,1.715,1.715,0,0,0,.76-.795,3.5,3.5,0,0,0,.312-1.62,4.365,4.365,0,0,0-.088-.874,2,2,0,0,0-.36-.795A1.354,1.354,0,0,0,4.064,1.907Z" transform="translate(20.355 4.434)" fill="#fff"/>
    <path id="Fill_9" data-name="Fill 9" d="M0,8.232H2.336V0H0Z" transform="translate(29.412 4.64)" fill="#fff"/>
    <path id="Fill_11" data-name="Fill 11" d="M2.3,1.51q.048-.127.16-.358A2.552,2.552,0,0,1,2.8.651,1.742,1.742,0,0,1,3.032.429,2.045,2.045,0,0,1,3.216.3a1.322,1.322,0,0,1,.36-.175A2.238,2.238,0,0,1,3.952.04c.117-.016.224-.026.32-.032S4.433,0,4.464,0a1.807,1.807,0,0,1,.4.032l-.016,2.13c-.054-.01-.126-.021-.216-.032a3.1,3.1,0,0,0-.344-.016H4.136a2.174,2.174,0,0,0-.264.016c-.054.011-.134.029-.24.055a1.855,1.855,0,0,0-.344.127,1.5,1.5,0,0,0-.361.247,1.2,1.2,0,0,0-.288.413,1.851,1.851,0,0,0-.12.342,2.469,2.469,0,0,0-.056.373q-.016.207-.023.461c-.006.17-.009.371-.009.6q-.016.239-.016.477V8.391H0V.159H2.3Z" transform="translate(33.045 4.482)" fill="#fff"/>
    <path id="Fill_12" data-name="Fill 12" d="M0,8.232H2.336V0H0Z" transform="translate(39.078 4.64)" fill="#fff"/>
    <path id="Fill_13" data-name="Fill 13" d="M3.552,0V2.447H4.737v1.78H3.552V10.68H1.2V4.228H0V2.447H1.2V0Z" transform="translate(42.518 2.193)" fill="#fff"/>
    <path id="Fill_14" data-name="Fill 14" d="M2.336,0V4.847c0,.042,0,.13.008.262a1.543,1.543,0,0,0,.072.405,1.289,1.289,0,0,0,.448.692,1.247,1.247,0,0,0,.784.246A1.536,1.536,0,0,0,4.3,6.309a1.236,1.236,0,0,0,.352-.254,1.041,1.041,0,0,0,.216-.373,2.686,2.686,0,0,0,.1-.405,2.027,2.027,0,0,0,.032-.334V0H7.345V4.529a7.991,7.991,0,0,1-.1,1.287A2.971,2.971,0,0,1,6.753,7a3.815,3.815,0,0,1-.408.472,3.02,3.02,0,0,1-.616.465,3.535,3.535,0,0,1-.872.353,4.406,4.406,0,0,1-1.144.136,4.959,4.959,0,0,1-1.08-.12,3.794,3.794,0,0,1-.992-.369A3.2,3.2,0,0,1,.824,7.3a2.608,2.608,0,0,1-.552-.929,2.557,2.557,0,0,1-.144-.517C.1,5.671.072,5.494.055,5.324S.026,5.009.016,4.887,0,4.688,0,4.656V0Z" transform="translate(48.391 4.625)" fill="#fff"/>
    <path id="Fill_15" data-name="Fill 15" d="M2.336,1.287a4.848,4.848,0,0,1,.41-.572,1.982,1.982,0,0,1,.89-.572c.075-.021.2-.05.378-.087A2.869,2.869,0,0,1,4.6,0c.075,0,.19.008.344.024a2.845,2.845,0,0,1,.506.1,2.374,2.374,0,0,1,.562.254,2.021,2.021,0,0,1,.53.477,2.309,2.309,0,0,1,.2.318c.048.1.083.17.1.223.053-.085.1-.154.136-.207s.088-.122.152-.206a3.153,3.153,0,0,1,.3-.294A2.579,2.579,0,0,1,7.907.374,3.233,3.233,0,0,1,8.546.119a2.973,2.973,0,0,1,.822-.1A4.446,4.446,0,0,1,9.823.04a1.946,1.946,0,0,1,.455.1,3.158,3.158,0,0,1,.4.159,2.627,2.627,0,0,1,.5.31,2.242,2.242,0,0,1,.471.516,2.166,2.166,0,0,1,.311.779,2.823,2.823,0,0,1,.064.405q.016.2.024.445c.005.165.01.35.016.556s.008.448.008.723V8.423H9.713V4.529c0-.159,0-.32-.007-.485S9.7,3.719,9.7,3.56c-.011-.1-.021-.2-.032-.31a2.025,2.025,0,0,0-.048-.294c-.022-.064-.053-.143-.1-.239a.943.943,0,0,0-.2-.278,1.084,1.084,0,0,0-.333-.222,1.252,1.252,0,0,0-.5-.087,2.735,2.735,0,0,0-.294.024.937.937,0,0,0-.422.182,1.094,1.094,0,0,0-.461.739,7.142,7.142,0,0,0-.064,1.279V8.423H4.864V3.783A6.2,6.2,0,0,0,4.785,3a1.025,1.025,0,0,0-.416-.652A1.266,1.266,0,0,0,4.1,2.209a1.146,1.146,0,0,0-.456-.079,1.385,1.385,0,0,0-.736.206,1.125,1.125,0,0,0-.344.381,1.654,1.654,0,0,0-.168.517,4.85,4.85,0,0,0-.056.683q-.008.39-.008.866V8.423H0V.191H2.336Z" transform="translate(57.064 4.45)" fill="#fff"/>
    <path id="Fill_16" data-name="Fill 16" d="M2.337,1.16A1.168,1.168,0,1,1,1.169,0,1.164,1.164,0,0,1,2.337,1.16" transform="translate(0 0)" fill="#fff"/>
    <path id="Fill_17" data-name="Fill 17" d="M2.337,1.16A1.168,1.168,0,1,1,1.169,0,1.164,1.164,0,0,1,2.337,1.16" transform="translate(71.466 10.553)" fill="#fff"/>
  </g>
</svg>
