<svg id="Group_19" data-name="Group 19" xmlns="http://www.w3.org/2000/svg" xmlns:xlink="http://www.w3.org/1999/xlink" width="80" height="80" viewBox="0 0 80 80">
  <defs>
    <linearGradient id="linear-gradient" x1="0.5" y1="1" x2="0.5" gradientUnits="objectBoundingBox">
      <stop offset="0" stop-color="#4a82ff"/>
      <stop offset="1" stop-color="#3cddfb"/>
    </linearGradient>
  </defs>
  <path id="Combined_Shape_Copy_6" data-name="Combined Shape Copy 6" d="M-40,0A40,40,0,0,0-80,40,40,40,0,0,0-40,80,40,40,0,0,0,0,40,40,40,0,0,0-40,0Z" transform="translate(80)" fill="url(#linear-gradient)"/>
  <path id="Facebook" d="M36.8,34.013A2.009,2.009,0,0,1,34.769,36H25.391V22.058h4.784l.717-5.433h-5.5V13.157c0-1.573.447-2.646,2.753-2.646h2.941V5.651A40,40,0,0,0,26.8,5.437c-4.24,0-7.143,2.532-7.143,7.182v4.007h-4.8v5.433h4.8V36H2.031A2.009,2.009,0,0,1,0,34.013V1.987A2.009,2.009,0,0,1,2.031,0H34.769A2.009,2.009,0,0,1,36.8,1.987V34.013" transform="translate(21.6 21.6)" fill="#fff"/>
</svg>
