<svg id="logo" xmlns="http://www.w3.org/2000/svg" xmlns:xlink="http://www.w3.org/1999/xlink" width="82.779" height="17.676" viewBox="0 0 82.779 17.676">
  <defs>
    <clipPath id="clip-path">
      <path id="Clip_7" data-name="Clip 7" d="M0,0H9.046V12.6H0Z" transform="translate(0 0)" fill="none"/>
    </clipPath>
    <clipPath id="clip-path-2">
      <path id="Clip_10" data-name="Clip 10" d="M0,17.676H82.779V0H0Z" fill="none"/>
    </clipPath>
  </defs>
  <path id="Fill_1" data-name="Fill 1" d="M0,9.42H2.621V0H0Z" transform="translate(0 5.31)" fill="#1d1d1b"/>
  <g id="Group_18" data-name="Group 18" transform="translate(0 0)">
    <path id="Fill_2" data-name="Fill 2" d="M2.6.218V1.292c.084-.1.185-.212.3-.346A3.09,3.09,0,0,1,3.46.491,3.363,3.363,0,0,1,4.275.118,3.141,3.141,0,0,1,5.16,0a4.846,4.846,0,0,1,.5.036,3.09,3.09,0,0,1,1.45.582,2.746,2.746,0,0,1,.68.745,3,3,0,0,1,.349.755A4.549,4.549,0,0,1,8.3,2.91a7.437,7.437,0,0,1,.044.809V9.638H5.635V4.71c0-.181,0-.375.01-.581a3.35,3.35,0,0,0-.036-.6,1.891,1.891,0,0,0-.17-.546,1.13,1.13,0,0,0-.393-.436,2.247,2.247,0,0,0-.3-.164,1.2,1.2,0,0,0-.5-.091,1.308,1.308,0,0,0-.9.318,2.55,2.55,0,0,0-.419.482,2.141,2.141,0,0,0-.143.373,2.173,2.173,0,0,0-.072.427q-.018.236-.026.527t-.009.672V9.638H0V.218Z" transform="translate(4.129 5.092)" fill="#1d1d1b"/>
    <path id="Fill_4" data-name="Fill 4" d="M5.779,3.291a1.576,1.576,0,0,1-.054-.263A1.321,1.321,0,0,0,5.58,2.6a1.4,1.4,0,0,0-.5-.445,1.891,1.891,0,0,0-.966-.209q-1.282,0-1.282.783a1.247,1.247,0,0,0,.018.174.335.335,0,0,0,.125.209.937.937,0,0,0,.3.192,3.611,3.611,0,0,0,.4.146q.215.064.413.109c.131.03.245.052.341.064q1.184.255,1.9.483A3.756,3.756,0,0,1,7.52,4.7a2.722,2.722,0,0,1,.548.574,2.253,2.253,0,0,1,.3.583,2.773,2.773,0,0,1,.116.529,3.8,3.8,0,0,1,.027.392,3.22,3.22,0,0,1-.1.838,3.153,3.153,0,0,1-.242.638,2.071,2.071,0,0,1-.315.455c-.113.122-.218.225-.314.31a3.272,3.272,0,0,1-.916.556,5.583,5.583,0,0,1-.933.282,4.693,4.693,0,0,1-.8.1c-.233.006-.392.009-.476.009s-.284-.007-.565-.019a5.841,5.841,0,0,1-.969-.136A5.18,5.18,0,0,1,1.759,9.42a3.06,3.06,0,0,1-1.023-.8,4.847,4.847,0,0,1-.305-.427,2.64,2.64,0,0,1-.323-.755,2.536,2.536,0,0,1-.1-.582Q0,6.6,0,6.474l2.513-.091q.054.31.09.482a.984.984,0,0,0,.126.319,1.361,1.361,0,0,0,.587.564A2.559,2.559,0,0,0,4.5,7.965a1.673,1.673,0,0,0,1.02-.246.777.777,0,0,0,.316-.645A.866.866,0,0,0,5.8,6.865a.715.715,0,0,0-.162-.282,1.251,1.251,0,0,0-.594-.3q-.4-.1-.648-.173Q3.924,6,3.475,5.892t-.919-.236q-.234-.073-.612-.209A2.676,2.676,0,0,1,1.2,5.019a2.527,2.527,0,0,1-.639-.782,2.582,2.582,0,0,1-.27-1.255,5.379,5.379,0,0,1,.045-.546,2.17,2.17,0,0,1,.279-.8,2.8,2.8,0,0,1,.468-.618A2.863,2.863,0,0,1,1.809.5,4.415,4.415,0,0,1,2.844.137,6.152,6.152,0,0,1,4.213,0q.162,0,.531.018a4.623,4.623,0,0,1,.828.126,4.85,4.85,0,0,1,.952.342,3.1,3.1,0,0,1,.906.667,3.9,3.9,0,0,1,.368.459,2.678,2.678,0,0,1,.368.843,4.06,4.06,0,0,1,.072.445c.012.128.018.221.018.282Z" transform="translate(13.336 5.037)" fill="#1d1d1b"/>
    <g id="Group_8" data-name="Group 8" transform="translate(22.831 5.074)">
      <path id="Clip_7-2" data-name="Clip 7" d="M0,0H9.046V12.6H0Z" transform="translate(0 0)" fill="none"/>
      <g id="Group_8-2" data-name="Group 8" transform="translate(0 0)" clip-path="url(#clip-path)">
        <path id="Fill_6" data-name="Fill 6" d="M2.638,12.6H0V.236H2.566v1.11c.06-.073.125-.156.2-.254A1.367,1.367,0,0,1,2.979.855,3.626,3.626,0,0,1,3.769.3,2.964,2.964,0,0,1,5.2,0,3.515,3.515,0,0,1,6.38.182a3.754,3.754,0,0,1,.889.445,2.977,2.977,0,0,1,.61.555c.152.189.279.355.377.492a4.5,4.5,0,0,1,.449.991,7.091,7.091,0,0,1,.233.973,7.991,7.991,0,0,1,.09.809c.012.248.018.406.018.5,0,.14-.009.372-.027.674A5.583,5.583,0,0,1,8.84,6.682,5.916,5.916,0,0,1,8.364,7.9a3.79,3.79,0,0,1-.916,1.136l-.027.021L7.1,9.3a2.5,2.5,0,0,1-.5.282,4.32,4.32,0,0,1-.673.218,3.668,3.668,0,0,1-.844.091c-.072,0-.18,0-.323-.009a3.436,3.436,0,0,1-.5-.063,2.65,2.65,0,0,1-.9-.346,4.465,4.465,0,0,1-.717-.636V12.6Zm1.92-10.42a2.926,2.926,0,0,0-.467.055,1.443,1.443,0,0,0-.628.309,1.978,1.978,0,0,0-.638.864,4.164,4.164,0,0,0-.206,1.573,6.44,6.44,0,0,0,.117,1.2A1.808,1.808,0,0,0,3.32,7.219a1.483,1.483,0,0,0,.547.336,1.985,1.985,0,0,0,.638.1c.048,0,.133-.006.26-.018a1.376,1.376,0,0,0,.4-.108,1.949,1.949,0,0,0,.853-.91,4.077,4.077,0,0,0,.35-1.854,5.065,5.065,0,0,0-.1-1,2.306,2.306,0,0,0-.4-.909A1.51,1.51,0,0,0,4.559,2.182Z" transform="translate(0 0)" fill="#1d1d1b"/>
      </g>
    </g>
    <path id="Clip_10-2" data-name="Clip 10" d="M0,17.676H82.779V0H0Z" fill="none"/>
    <g id="Mask_Group_4" data-name="Mask Group 4" clip-path="url(#clip-path-2)">
      <path id="Fill_9" data-name="Fill 9" d="M0,9.42H2.62V0H0Z" transform="translate(32.99 5.31)" fill="#1d1d1b"/>
      <path id="Fill_11" data-name="Fill 11" d="M2.584,1.727q.054-.145.179-.409A2.925,2.925,0,0,1,3.141.745,1.971,1.971,0,0,1,3.4.491,2.293,2.293,0,0,1,3.608.345a1.471,1.471,0,0,1,.4-.2,2.469,2.469,0,0,1,.422-.1c.131-.018.251-.03.359-.036S4.972,0,5.007,0a1.988,1.988,0,0,1,.449.036L5.438,2.473c-.06-.012-.141-.024-.243-.036a3.413,3.413,0,0,0-.386-.018H4.639a2.391,2.391,0,0,0-.3.018c-.06.012-.15.033-.269.063a2.055,2.055,0,0,0-.386.146,1.677,1.677,0,0,0-.4.282,1.375,1.375,0,0,0-.323.472,2.147,2.147,0,0,0-.135.391,2.878,2.878,0,0,0-.063.427q-.018.236-.026.527c-.007.194-.01.424-.01.691q-.018.273-.017.546V9.6H0V.182H2.584Z" transform="translate(37.064 5.128)" fill="#1d1d1b"/>
      <path id="Fill_12" data-name="Fill 12" d="M0,9.42H2.62V0H0Z" transform="translate(43.831 5.31)" fill="#1d1d1b"/>
      <path id="Fill_13" data-name="Fill 13" d="M3.984,0V2.8H5.313V4.837H3.984V12.22H1.346V4.837H0V2.8H1.346V0Z" transform="translate(47.69 2.51)" fill="#1d1d1b"/>
      <path id="Fill_14" data-name="Fill 14" d="M2.62,0V5.546c0,.048,0,.148.009.3a1.8,1.8,0,0,0,.081.464,1.477,1.477,0,0,0,.5.791,1.381,1.381,0,0,0,.879.282,1.694,1.694,0,0,0,.736-.164,1.388,1.388,0,0,0,.395-.291A1.2,1.2,0,0,0,5.465,6.5a3.123,3.123,0,0,0,.116-.464,2.365,2.365,0,0,0,.036-.382V0H8.238V5.183a9.324,9.324,0,0,1-.108,1.473,3.437,3.437,0,0,1-.557,1.351,4.342,4.342,0,0,1-.458.54,3.394,3.394,0,0,1-.691.532,3.921,3.921,0,0,1-.978.4,4.849,4.849,0,0,1-1.283.155A5.457,5.457,0,0,1,2.952,9.5,4.2,4.2,0,0,1,1.84,9.078a3.6,3.6,0,0,1-.916-.724A3,3,0,0,1,.3,7.292,2.971,2.971,0,0,1,.144,6.7C.107,6.489.081,6.286.062,6.092s-.033-.361-.044-.5S0,5.364,0,5.328V0Z" transform="translate(54.277 5.292)" fill="#1d1d1b"/>
      <path id="Fill_15" data-name="Fill 15" d="M2.62,1.473A5.548,5.548,0,0,1,3.08.818a2.219,2.219,0,0,1,1-.654C4.162.139,4.3.106,4.5.064A3.156,3.156,0,0,1,5.159,0c.084,0,.213.009.386.027a3.136,3.136,0,0,1,.567.118,2.637,2.637,0,0,1,.63.291,2.282,2.282,0,0,1,.594.546,2.65,2.65,0,0,1,.225.363c.054.109.093.194.117.255.06-.1.11-.176.152-.237s.1-.139.17-.236a3.57,3.57,0,0,1,.34-.336A2.89,2.89,0,0,1,8.869.427,3.585,3.585,0,0,1,9.585.137a3.272,3.272,0,0,1,.922-.118,4.89,4.89,0,0,1,.511.027,2.147,2.147,0,0,1,.51.118,3.5,3.5,0,0,1,.448.181A2.938,2.938,0,0,1,12.531.7a2.548,2.548,0,0,1,.528.591,2.507,2.507,0,0,1,.349.891,3.29,3.29,0,0,1,.071.464q.018.228.027.509c.006.188.012.4.018.637s.009.512.009.827V9.638H10.894V5.183c0-.182,0-.366-.008-.555s-.009-.373-.009-.555c-.012-.109-.024-.227-.036-.354a2.36,2.36,0,0,0-.053-.336c-.024-.073-.06-.164-.107-.273a1.079,1.079,0,0,0-.223-.318,1.215,1.215,0,0,0-.374-.254,1.379,1.379,0,0,0-.562-.1,3.009,3.009,0,0,0-.33.027,1.041,1.041,0,0,0-.473.209,1.256,1.256,0,0,0-.517.846,8.335,8.335,0,0,0-.071,1.463V9.638H5.456V4.328a7.235,7.235,0,0,0-.089-.891A1.176,1.176,0,0,0,4.9,2.691a1.412,1.412,0,0,0-.3-.163,1.263,1.263,0,0,0-.511-.091,1.53,1.53,0,0,0-.826.236,1.279,1.279,0,0,0-.386.436,1.919,1.919,0,0,0-.188.591,5.659,5.659,0,0,0-.063.782q-.009.446-.009.991V9.638H0V.219H2.62Z" transform="translate(64.005 5.092)" fill="#1d1d1b"/>
      <path id="Fill_16" data-name="Fill 16" d="M2.621,1.327a1.319,1.319,0,0,1-1.31,1.327A1.319,1.319,0,0,1,0,1.327,1.319,1.319,0,0,1,1.311,0a1.319,1.319,0,0,1,1.31,1.327" transform="translate(0 0)" fill="#1d1d1b"/>
      <path id="Fill_17" data-name="Fill 17" d="M2.621,1.327a1.319,1.319,0,0,1-1.31,1.327A1.319,1.319,0,0,1,0,1.327,1.319,1.319,0,0,1,1.311,0a1.319,1.319,0,0,1,1.31,1.327" transform="translate(80.158 12.075)" fill="#1d1d1b"/>
    </g>
  </g>
</svg>
