<svg id="Group" xmlns="http://www.w3.org/2000/svg" width="19" height="19" viewBox="0 0 19 19">
  <path id="Rectangle" d="M1.6,0H17.4A1.6,1.6,0,0,1,19,1.6V17.4A1.6,1.6,0,0,1,17.4,19H1.6A1.6,1.6,0,0,1,0,17.4V1.6A1.6,1.6,0,0,1,1.6,0Z" fill="#4548e8"/>
  <g id="basic_download" data-name="basic / download" transform="translate(2.375 1.583)">
    <path id="basic_download-2" data-name="basic / download" d="M5.089,3.98,1.435,7.7,0,6.234,6.107,0l6.107,6.234L10.779,7.7,7.125,3.98v7.945H5.089Z" transform="translate(1.018)" fill="#fff"/>
    <path id="basic_download-3" data-name="basic / download" d="M14.25,0V2.078H0V0Z" transform="translate(0 13.755)" fill="#fff"/>
  </g>
</svg>
