<svg xmlns="http://www.w3.org/2000/svg" width="416" height="545" viewBox="0 0 416 545">
  <g id="Group_56" data-name="Group 56" transform="translate(-1460 -1487)">
    <path id="Combined_Shape_Copy_3" data-name="Combined Shape Copy 3" d="M225.92,204.892A224.2,224.2,0,0,1,159,214.841c-87.814,0-159-48.093-159-107.42S71.186,0,159,0,318,48.094,318,107.42c0,34.251-23.722,64.756-60.678,84.426V236Z" transform="translate(1460 1796)" fill="rgba(102,173,255,0.33)" opacity="0.617"/>
    <path id="Combined_Shape" data-name="Combined Shape" d="M54,172.337C21.112,154.667,0,127.264,0,96.5,0,43.2,63.352,0,141.5,0S283,43.2,283,96.5s-63.351,96.5-141.5,96.5a197.8,197.8,0,0,1-59.554-8.938L54,212Z" transform="translate(1568 1487)" fill="#fff"/>
    <path id="Combined_Shape_Copy_2" data-name="Combined Shape Copy 2" d="M138.535,125.019A138.111,138.111,0,0,1,97.5,131.09C43.652,131.09,0,101.744,0,65.545S43.652,0,97.5,0,195,29.345,195,65.545c0,20.9-14.547,39.512-37.209,51.514V144Z" transform="translate(1681 1615)" fill="#cdebfd" opacity="0.712"/>
  </g>
</svg>
