<svg xmlns="http://www.w3.org/2000/svg" width="463.001" height="490" viewBox="0 0 463.001 490">
  <g id="Group_55" data-name="Group 55" transform="translate(-37 -1542)">
    <path id="Combined_Shape_Copy_5" data-name="Combined Shape Copy 5" d="M34.347,109.743C13.428,98.491,0,81.041,0,61.448,0,27.511,40.295,0,90,0s90,27.511,90,61.448S139.705,122.9,90,122.9a125.677,125.677,0,0,1-37.879-5.692L34.347,135Z" transform="translate(108 1897)" fill="#c7e0ef" opacity="0.666"/>
    <path id="Combined_Shape_Copy_4" data-name="Combined Shape Copy 4" d="M74.8,239C29.244,214.491,0,176.489,0,133.82,0,59.914,87.752,0,196,0S392,59.914,392,133.82,304.248,267.641,196,267.641a273.694,273.694,0,0,1-82.492-12.394L74.8,294Z" transform="translate(108 1618)" fill="rgba(255,255,255,0.65)"/>
    <path id="Combined_Shape_Copy" data-name="Combined Shape Copy" d="M-42.551,135.755C-16.636,121.836,0,100.251,0,76.014,0,34.033-49.92,0-111.5,0S-223,34.033-223,76.014s49.92,76.013,111.5,76.013a155.913,155.913,0,0,0,46.928-7.04L-42.551,167Z" transform="translate(260 1542)" fill="#d3e6f9" opacity="0.336"/>
  </g>
</svg>
