<svg xmlns="http://www.w3.org/2000/svg" xmlns:xlink="http://www.w3.org/1999/xlink" width="183.83" height="184.564" viewBox="0 0 183.83 184.564">
  <defs>
    <radialGradient id="radial-gradient" cx="0.341" cy="0.701" r="0.859" gradientUnits="objectBoundingBox">
      <stop offset="0" stop-color="#00e2ff" stop-opacity="0"/>
      <stop offset="0.19" stop-color="#02e2ff" stop-opacity="0.012"/>
      <stop offset="0.33" stop-color="#07e3ff" stop-opacity="0.051"/>
      <stop offset="0.44" stop-color="#11e5ff" stop-opacity="0.11"/>
      <stop offset="0.55" stop-color="#1ee8ff" stop-opacity="0.188"/>
      <stop offset="0.65" stop-color="#2febff" stop-opacity="0.302"/>
      <stop offset="0.74" stop-color="#44efff" stop-opacity="0.439"/>
      <stop offset="0.83" stop-color="#5df3ff" stop-opacity="0.6"/>
      <stop offset="0.92" stop-color="#79f9ff" stop-opacity="0.78"/>
      <stop offset="1" stop-color="#9ff" stop-opacity="0.988"/>
      <stop offset="1" stop-color="#9bffff"/>
    </radialGradient>
    <clipPath id="clip-path">
      <path id="Oval" d="M91.717,0A91.915,91.915,0,1,1,0,91.915,91.816,91.816,0,0,1,91.717,0Z" transform="translate(0.362 184.297) rotate(-90)" fill="url(#radial-gradient)"/>
    </clipPath>
    <radialGradient id="radial-gradient-3" cx="0.086" cy="0.902" r="0.878" gradientUnits="objectBoundingBox">
      <stop offset="0" stop-color="#0060ff"/>
      <stop offset="0.13" stop-color="#0065ff"/>
      <stop offset="0.28" stop-color="#0073ff"/>
      <stop offset="0.44" stop-color="#0089ff"/>
      <stop offset="0.6" stop-color="#00a9ff"/>
      <stop offset="0.77" stop-color="#00d2ff"/>
      <stop offset="0.78" stop-color="#00d5ff"/>
      <stop offset="0.81" stop-color="#08d8ff"/>
      <stop offset="0.86" stop-color="#20dfff"/>
      <stop offset="0.91" stop-color="#45eaff"/>
      <stop offset="0.98" stop-color="#79faff"/>
      <stop offset="1" stop-color="#8ff"/>
    </radialGradient>
    <radialGradient id="radial-gradient-4" cx="0.542" cy="0.878" r="0.664" gradientUnits="objectBoundingBox">
      <stop offset="0" stop-color="#001878"/>
      <stop offset="0.18" stop-color="#043d98"/>
      <stop offset="0.44" stop-color="#096bc0"/>
      <stop offset="0.63" stop-color="#0d88d9"/>
      <stop offset="0.75" stop-color="#0e93e2"/>
      <stop offset="0.8" stop-color="#0d97e1"/>
      <stop offset="0.84" stop-color="#0ca3df"/>
      <stop offset="0.89" stop-color="#09b7dc"/>
      <stop offset="0.94" stop-color="#06d4d7"/>
      <stop offset="0.99" stop-color="#01f8d0"/>
      <stop offset="1" stop-color="#00ffcf"/>
    </radialGradient>
    <radialGradient id="radial-gradient-5" cx="0.75" cy="1.106" r="0.871" gradientUnits="objectBoundingBox">
      <stop offset="0" stop-color="#fff"/>
      <stop offset="0.12" stop-color="#fff" stop-opacity="0.788"/>
      <stop offset="0.24" stop-color="#fff" stop-opacity="0.58"/>
      <stop offset="0.37" stop-color="#fff" stop-opacity="0.4"/>
      <stop offset="0.5" stop-color="#fff" stop-opacity="0.259"/>
      <stop offset="0.63" stop-color="#fff" stop-opacity="0.141"/>
      <stop offset="0.75" stop-color="#fff" stop-opacity="0.059"/>
      <stop offset="0.88" stop-color="#fff" stop-opacity="0.02"/>
      <stop offset="1" stop-color="#fff" stop-opacity="0"/>
    </radialGradient>
    <radialGradient id="radial-gradient-6" cx="0.981" cy="-0.182" r="1.435" xlink:href="#radial-gradient-5"/>
    <radialGradient id="radial-gradient-7" cx="0.863" cy="0.862" r="1.168" xlink:href="#radial-gradient-5"/>
    <radialGradient id="radial-gradient-8" cx="0.5" cy="0.5" r="0.464" gradientUnits="objectBoundingBox">
      <stop offset="0" stop-color="#9dd1ff"/>
      <stop offset="0.1" stop-color="#9fd2ff" stop-opacity="0.98"/>
      <stop offset="0.22" stop-color="#a5d5ff" stop-opacity="0.922"/>
      <stop offset="0.36" stop-color="#afd9ff" stop-opacity="0.82"/>
      <stop offset="0.51" stop-color="#bde0ff" stop-opacity="0.678"/>
      <stop offset="0.66" stop-color="#cfe8ff" stop-opacity="0.49"/>
      <stop offset="0.83" stop-color="#e4f2ff" stop-opacity="0.271"/>
      <stop offset="0.99" stop-color="#fdfeff" stop-opacity="0.02"/>
      <stop offset="1" stop-color="#fff" stop-opacity="0"/>
    </radialGradient>
    <radialGradient id="radial-gradient-9" cx="0.172" cy="0.474" r="1.272" gradientUnits="objectBoundingBox">
      <stop offset="0" stop-color="#ff8c41"/>
      <stop offset="0.25" stop-color="#ff8f3d"/>
      <stop offset="0.5" stop-color="#ff9a31"/>
      <stop offset="0.75" stop-color="#ffab1c"/>
      <stop offset="1" stop-color="#ffc300"/>
    </radialGradient>
    <linearGradient id="linear-gradient" x1="1.384" y1="-0.064" x2="0.253" y2="0.909" gradientUnits="objectBoundingBox">
      <stop offset="0" stop-color="#ff8c41"/>
      <stop offset="1" stop-color="#ff5023"/>
    </linearGradient>
    <linearGradient id="linear-gradient-2" x1="-46.428" y1="8.665" x2="-46.428" y2="9.255" xlink:href="#linear-gradient"/>
    <linearGradient id="linear-gradient-3" x1="-1.34" y1="0.143" x2="-1.34" y2="1.297" xlink:href="#linear-gradient"/>
    <radialGradient id="radial-gradient-10" cx="0.168" cy="0.474" r="1.279" xlink:href="#radial-gradient-9"/>
    <linearGradient id="linear-gradient-4" x1="-1.282" y1="-0.113" x2="-1.282" y2="1.233" xlink:href="#linear-gradient"/>
    <linearGradient id="linear-gradient-5" x1="-1.678" y1="0.19" x2="-1.678" y2="1.346" xlink:href="#linear-gradient"/>
    <radialGradient id="radial-gradient-11" cx="0.827" cy="0.473" r="1.28" xlink:href="#radial-gradient-9"/>
    <linearGradient id="linear-gradient-6" x1="0.763" y1="-0.13" x2="-0.21" y2="1.001" xlink:href="#linear-gradient"/>
    <linearGradient id="linear-gradient-7" x1="-4.786" y1="-1.029" x2="-4.786" y2="-0.549" xlink:href="#linear-gradient"/>
    <linearGradient id="linear-gradient-8" x1="0.27" y1="-0.156" x2="0.27" y2="0.997" xlink:href="#linear-gradient"/>
    <radialGradient id="radial-gradient-12" cx="0.827" cy="0.474" r="1.28" xlink:href="#radial-gradient-9"/>
    <linearGradient id="linear-gradient-9" x1="0.972" y1="-0.183" x2="-0.001" y2="0.947" xlink:href="#linear-gradient"/>
    <linearGradient id="linear-gradient-10" x1="-3.814" y1="-1.003" x2="-3.814" y2="0.127" xlink:href="#linear-gradient"/>
    <linearGradient id="linear-gradient-11" x1="0.421" y1="-0.133" x2="0.421" y2="1.019" xlink:href="#linear-gradient"/>
  </defs>
  <g id="Group_25" data-name="Group 25" transform="translate(-0.362 -0.535)">
    <g id="Group_26" data-name="Group 26" transform="translate(0 0.802)">
      <path id="Oval-2" data-name="Oval" d="M91.717,0A91.915,91.915,0,1,1,0,91.915,91.816,91.816,0,0,1,91.717,0Z" transform="translate(0.362 184.297) rotate(-90)" fill="url(#radial-gradient)"/>
      <g id="Group_26-2" data-name="Group 26" clip-path="url(#clip-path)">
        <path id="Oval-3" data-name="Oval" d="M88.031,0A88.221,88.221,0,1,1,0,88.221,88.126,88.126,0,0,1,88.031,0Z" transform="translate(4.056 180.611) rotate(-90)" fill="url(#radial-gradient-3)"/>
        <path id="Shape" d="M55.95,164.2l-5.9-6.3-.281-2.291.1-2.287-1.334-1.433-.759-2.887-.663-1.975,1.045-1.337-.839-4-.952-3.052-.281-3.811L45.9,132.05l-.667-2.48.1-2.383s-1.045-4.2-1.137-4.484A33.132,33.132,0,0,0,42,120.127l-3.326-1.715L36.392,116.5l-3.229-6.674-.57-1.908-1.329-1.143a19.653,19.653,0,0,1-1.049-2.387,20.054,20.054,0,0,0-.663-2.194l1.258-1.715L29.384,100l.478-1.718-.188-2.572,1.9-2.66L33.1,91.125l.923-1.059-.571-1.623-.189-2.193-.571-.76v-1.4H31.267L30.6,85.518l-1.618-.189a19.155,19.155,0,0,0-2.755-1.261c-.382,0-1.146-1.718-1.049-2.1s-1.9-2.194-1.9-2.194l-.839-2.862-2.851-.382-2.936-1.622-1.334-1.337-1.618.668-1.518-.954L9.9,72.9,8.567,71.469,0,74.323,4.873,45.144l8.379-10.952,20.93-20.219,6.29-1.555,3.426-.895L46.385,12l.839-.458.666-.4-.951-.765L50.583,7.8,52.39,5.615l4.45.764,2.566-.189L58.454,5.9l.57-.765,1.43-.378-1.333-.291-1.615.669-1.145-.383,2.474-1.429,2-.474,1.619.383L60.933,4.383,62.078,4h1.975l1.141-.668-1.9-.479,2.1-.475h6.692c.285,0,2.764-.189,3.045-.189s2.378-.572,2.378-.572L80.44,2.1l-2.57.954-3.523.841L69.114,5.224,66.832,5.7l-4.47-.479L60.555,6h2.286l.666.669L66.17,8.292s3.422.861,3.137,1.433l.951.954,2.936.878-2.378.9s-1.619,1.269-2.382.7l-.948-.7H66.363l.284.8.785,1.088-.952.193L66,15.373l-.1.841h-2.1l-2.471-1.53-4,.093-.667-1.332,1.523-.571,1.9-.42,1.9-.9,2.19-.686L62.387,10.3l-1.522-.575-1.426.571-1.715-.669H54.588l-1.334-.668,1.9-1.261L56.777,7.6,56.3,8.649l1.522-.841,3.426-.378s1.14.571,1.426-.189l-1.044-.383-1.807-.1-1.435.076-2.1.113L53.53,6a7.928,7.928,0,0,1-1.14,2L51.035,9.044,49.987,10v.685a3.455,3.455,0,0,1,1.523.878h2l1.141-.878h3.044l-.662,1.761H55.51l-2.378.6h-2L49.622,14.4l-1.711.954-2.474.572-1.145.378-3.141,1.143L39.344,18.5l-1.237,1.429.839.378.285,1.017h1.2l2.662,1.656,2,.1.662,1.152-.839.471.285.882,1.258,1.5h1.426l1.049-.715-1.049-2.144.575-.765.759.19,1.807-.379,1.619-.572-.285-.614.478-1.58-.382-1.051,1.334-1.143,1.711-2,1.258-.382H58.47l1.615.84,1.334,1.261L60.274,19.29l.839.841.952-.189.57-.383.382-.76h1.523l.1-1.261H65.6l1.044,2.29.391,2.286,1.9.992,1.334,1.147L69.7,26.4l-2,.2-1.619.89-2.281.475H59.607l-2,.479H55.8l-1.619,1.421h1.329l2.286-.921s2.092.458,2.378.458-.1.466-.1.466l-.839.774a1.039,1.039,0,0,0-.285.841s1.044.76,1.9,1.428l1.329.479h.839l-.382.841-1.237.382-1.329.379-1.523.84-1.715.383.194-1.336,1.426-1.526-3.141,1.623-3.137.95-.839,1.715-1.711,1.169-2.856.945-2.19,2.6-1.257-.42-.479,2.291.093,1.618L36,50.317l-1.715,3.694.281,2.4-.1,2.193-.1,1.812-1.807.286.289-1.051-.763-1.047-.759-2.29,1.14-1.047S32,54.125,31.439,54.012l-2.579.21s-1.9-.474-2.47,0l.126.681-1.258.063s-3.136-.29-3.233.378l-1.711-.382-1.258.379-1.334,1.239-1.43,1.05-.473,1.236-1.238,1.051-.1,2.286-.574.954L12.673,64.3a21.246,21.246,0,0,0,.952,3.434l2,2,2.935-.668,1.9-.841v-2.19s1.061-.571,1.43-.765a14.744,14.744,0,0,1,2.935,0s1.212.626,0,1.261c-.306.143-.57.841-.57.841L23.3,68.9,22.255,71l-.9,1.429L23.312,73h2.474l1.807,1.143-.478,2.795-.574,2.669,1.031,1.971a14.514,14.514,0,0,0,2.185,1.429,16.62,16.62,0,0,0,2.189-.95l2.1,1.715.382-1.047,1.334-1.239.57-1.24,2.856-.841,1.141-1.337.839.382-.382,1.143-.839,1.623v.954l.951.668v-2.58l2.475-1.138,2,.575s2.378.858,2.759.954,2-.954,2-.954l1.426.954,1.342,2.66,2.378,1.908,2.378,2.291h2.759l2.567,1.433s1.706,3.8,2.184,4.11-.382,1.993-.382,1.993l-.1.954h.952l1.145.462V97.6l1.618-.572s2.093,1.24,2.378,1.337.1,1.429.1,1.429h.948l2.377,1.261h2.756l3.141,2,1.807.382.377,2.219.776,3.513-2,1.908-2.663,3.531.713,3.038-.478,3.051v3.169L77.3,125.754l-1.715,2.857h-2.1l-3.141,2.572a25.636,25.636,0,0,1,0,3.816c-.188.285-2.189,3.908-2.189,3.908L67.1,141.384s-.86,1.143-1.43,2-2.281,0-2.281,0H62.249l.951,1.525,1.141.954v1.525l-.952,1.143L61.1,149.872s-1.33-.475-1.523,0l.763,1.526-1.011.765-.511-.765H57.565l.092,1.24h1.309s.788.861,0,1.143v1.307l-.94,1.526-.939.841v1.337l1.878.841v1.757l-1.875,1.105v2.941ZM131.7,149.019l-.419-2.051s.319-1.332.419-1.844-.608-1.538-.714-1.845-1.229-3.073-1.229-3.073l-1.224-2.563.839-3.362-.919-3.589-1.43-1.534.306-1.025-.817-1.437-.709-6.35,2.353-4.1.306-2.152-.3-3.782-1.329-2.972-1.43-3.076-1.938-4,.818-1.946-.419-1.232.839-2.354s-.919-2.05-2.759-2.05-2.143-.82-2.655-1.744-2.146-.924-2.146-.924l-4.911,2.66-3.983-1.231-4.1,1.648-6.11-4.666.088-2.1-2.961-4.2L94.07,79.858,93.231,77.4l2.151-5.018-.918-2.971a14.222,14.222,0,0,1,0-2.971c.205-.412,2.457-5.43,2.457-5.43l1.023-1.946,2.147-.841,2.147-2.047-.419-1.538,1.677-3.48,1.841-1.231,1.535-1.84,2.349.513,1.946-.715,1.836-.1,2.865-1.127,7.259-.815,1.229.719.508,1.74-1.736,2.051,1.429.715,1.942.924,2.759.841.713,1.227,1.84-.2,2.353,1.433.9-.92-.419-1.127.716-.663h2.349l2.965,1.076,1.741-.2,2.654,1.332,1.678-.617H151V52.016l.717-1.639-.49-1.626.2-.79-.553-.357-.747-.315-.839.907-.986.08-1.145-.4-.419-.592-.276.634-.986.236-1.028-.118-.155-.635-1.422.038-.708-1.026-.905-.841a3.624,3.624,0,0,1-.394-.869c.037-.118.511-.4.511-.4l-.708-1.105-.709-.95-.948-.4-.943-.042-.553.752-.356-.42-.474-.08.516.6-.159,1.147.352.71.868.357.277.715-.868.47.235,1.03-.419.353L135.9,46.346l-.314-1.623-2.185-2.273-.273-1.681-1.183-1.3-.708-.08-1.145-.672-1.46-.841-.708-1.261-.474.277-.708-.239-.038-.87L126,35.9l-.315.908.277.869,1.1.554.273.946,1.187.841,1.023.277.591.87.905.554.634.4.075,1.03h-.234l-.08-.841-.671-.079-.234.554.418.841a11.666,11.666,0,0,0-.553,1.03,5.106,5.106,0,0,1-.591.79l-.553-.08-.155.71.038.752-.293.088-.512-.42s-1.615-.752-1.774-.752-.394-.592-.394-.592l.751-.156h2.051a4.863,4.863,0,0,0,.549-1.025c-.038-.122-.784-1.623-.784-1.623L125.1,39.853,122.456,37.4l-2.642.79-.868.475-1.3-.42-1.3.752.118,1.42-.948.315-2.168,1.382-1.028,1.3.277,1.681-1.678,1.382-1.774.236-1.183.512-.708-.117-.948-.517-1.774-.118-1.066-.315.356-1.345s-.473-.833-.554-.95a4.548,4.548,0,0,1-.076-.95l.235-.945.6-1.858-.277-.95.315-.907,1.027-.4,3.234.08,2.956.041.713-1.622.314-1.736s-.788-.2-.905-.2-.671-.672-.671-.672l-.708-.63-1.46-.24.122-1.105.838.118,1.5.122.276-.316-.235-.6.16-.273,1.14.592.755-.488.948-.419.394-.87.612-.479,1.258-.236.553-.71.511-.554.356.356-.041.711-.038.554.868.236.2-.42.315-.79.633-.038.353-.635-1.1-.2-.2-.4,1.066-.315.985-.4a7.279,7.279,0,0,0-.038-.841c-.05-.105-.583-1.038-.583-1.038l.042-.95.986-.987.591.16-.394.474.235.593.276.315-.591.71.474,1.067A7.163,7.163,0,0,0,123,26.4c.117-.038,1.971-.117,1.971-.117l.751.315.473-.42,2.135.122,1.22-.357.968.555.709-.555.968-.617.2-1.228-.08-.865.591-.357.932.361s.428.715.667.752S135.1,23,135.1,23l-.839-.555-.59-.912a2.64,2.64,0,0,1,1.065-.471,2.382,2.382,0,0,1,1.3.42l.906.475.549-.354.973-.277s.834-.282.725-.357-2.625-.588-2.625-.588l-2.184.113L133,20.769l-1.526-.811-.591-1.383.642-.42.839-.869,1.463-.71-.474-.357s-1.266-.437-1.5-.475-.986-.08-.986-.08-.473.517-.473.673-.923,1.025-.923,1.025l-1.8,1.148.2,1.3.549.357.419.315v.74l-1.183.353-.079,1.11-.474,1.42-.868.2-.839.71-1.225-.235-.2-1.067-1.039-1.769-1.342-.71-1.766.975-1.615.235-.419-.672-.314-.635-.419-.353.159-.672-.634-1.383a13.654,13.654,0,0,1,1.3-1.227l2.936-.42,3.2-2.883L126.7,12.49l4.852-.9h3.195l1.46.357a16.35,16.35,0,0,0,1.782.534c.18-.008,4.374.567,4.374.567l2.487.744,1.38,1.118-.839.63a7.9,7.9,0,0,1-1.5-.319c-.08-.117-.709.042-.709.042l-1.027-.122-1.22-.551-1.392-.122.633.769.906.118.788.634.314.71,1.066.357.839.315.67-.235-.713-.16-.511-.315.554-.277.948.159,1.61.236v-1.3h2.247l-.511-1.025-.612-.614H149.2l.713,1.332,1.535.513.713-1.434,2.864-.42h6.441l5.314,4,17.873,29.3,1.123,5.635-4,10.553-1.43-.719-3.271-.718-1.225-1.744-1.84.718L170.438,58.9l-3.38-2.77-1.022,1.127,1.426,2.324,1.123.617,1.225,2.253.839-.205.419,1.743,1.229.841,2.353-.613.612-1.841.839-.189.763,1.87,2.365,2.059,1.736,2.358-1.023,1.433-.742,1.206-1.3,2.379-3.066,2.047v1.231l-2.659.815-1.123,1.026-6.135,1.634-1.329-1.332-.713-1.744-.714-3.892-4.089-4.2.105-1.333-1.43-2.971-1.225-.206-2.247-3.383-.717-1.95L151.84,57.7s-.306,1.534-1.124,1.534l-.419-1.538-1.019-.84-.923-.42.205,1.84,2.248,2.256,2.143,4.817,1.736,2.563.2,2.87,2.34,2.249,1.128,3.686,2.453,1.437,2.453,2.765-.206,1.538L165,83.687l2.353-.614,2.247-.206,1.635-1.328,1.435.513v3.073l-1.535,2.845L169.5,93.121l-5.217,5.421-.612,1.741-2.865,1.74-.716,3.782-1.946,2.867,1.123.924-.306,2.152,1.12,3.484v4.623l-.516,2.664L153.526,126l-2.247,2.148.918,2.664v3.383l-4.336,1.723s-.817,3.786-.923,4.1a20.733,20.733,0,0,1-1.535,2.047l-6.035,6.144-2.453.815ZM161.233,133.2l-.742-.609.742-1.012-.742-.883-.419-1.891,1.082-1.152.943-1.554.273-3.249,1.149-1.963,2.625-.819.675-1.681.473-1.42,1.082-.677.474-1.08.541-.543.482,1.286-.121,1.53.419,2.522h-1.351v3.45l-1.962,2.568s-.541,2.236-.541,2.438-1.149,2.639-1.149,2.639l-1.417,2.1ZM44.72,69.128l-2.436.811-1.87.689-1.862-1.046a1.729,1.729,0,0,0,1.635-1.744,2.51,2.51,0,0,1,2.1,0l4.533-.223s1.568,1.105,0,3.026Zm-9.226-1.29L32.639,65.4H30.961l-4.193-1.437a11.283,11.283,0,0,1,2.071-.663c.944-.228,1.783-.341,1.783-.341l2.96,1.009,2.453,1.088,2.42.866c.524,1.219-1.045,1.917-1.045,1.917Zm85.972-24.047a2.885,2.885,0,0,0,0-.979V41.24a.87.87,0,0,1,.571-.214,1.564,1.564,0,0,1,.784.378v1.412l-.218.976Zm.382-3.038-.377-.812.377-1.084a.668.668,0,0,1,.755.706v1.19ZM69.32,32.108l.163-.895c-.331-.492-1.589-.168-1.589-.168v.735l-1.1-.164-.734-.488-1.14-.655,2.516-1.58.814-1.261,2.286-.487-1.145.979s-.164.68.084.789a5.744,5.744,0,0,0,1.384,0v2.479l-.328,1.144Zm37.653-2.256V29.2h1.191l.55-.559-.6-.42c.055-.274.7-.6.7-.6l-.323-.6.864-.268c.377,0,.487-.652.487-.652l-.323-.652-.7-.42-.7-.488A4.056,4.056,0,0,0,108,23.61l-.109-.382V21.766l.973-.42,1.04,0-.76.706.273.543h1.283l-.109,1.085.109,1.26,1.258.677.814.622-.122.908.864.273.754.328-.595.7-.378.488.219.274c-.256,0-1.514.268-1.514.268l-1.515-.273-1.031.652Zm-3.841-1.3v-.811l.776-.475-.164-.878.328-1.139h.918l.864-1h.7s1.241.567,1.186,1.353l-.5.513.244.975-.512.7-1.137.382h-1.191l-.864.76ZM113.406,25.6l.273-.463,1.027-.592-.65-.3.218-.731.919-.11V22.6l1.514-.488,1.027.379.219,1.084-.651.324v1.341l-.486.353h-.868v.42l-1.673.378ZM83.083,18.866l-1.6-1.749s-.856-1.82-1.372-1.681-.788-2.975-.788-2.975V10.814s2.507-1.042,1.288-2.442a5.457,5.457,0,0,1-.345-2.1,6.332,6.332,0,0,1-1.916,0,10.629,10.629,0,0,1-2.785-1.913,17.489,17.489,0,0,1,3.133,0c.524.185,4.39-1.916,4.39-1.916L88.455,0,97.19,1.631l5.988-.752,6.026.761s1.392,2.21,0,3.429L106.243,6.64l-.767,1.916H100.67l-2.1,3.013H94.745L93.277,12.94l-3.6,1.567-3.657,4.359Z" transform="translate(-1.506 11.733)" fill="url(#radial-gradient-4)"/>
        <path id="Shape-2" data-name="Shape" d="M159.934,35.726c0-1.816-.055-3.618-.147-5.413a91.812,91.812,0,0,0-155.7,88.8A99.52,99.52,0,0,0,59.7,136.063,100.31,100.31,0,0,0,159.934,35.726Z" transform="translate(0.561 0.663)" fill="url(#radial-gradient-5)"/>
        <path id="Shape-3" data-name="Shape" d="M16.774,57.068S48.83-16.767,0,3.531" transform="translate(88.626 -3.166)" fill="none" stroke="#707070" stroke-miterlimit="10" stroke-width="0.5"/>
        <path id="Oval-4" data-name="Oval" d="M33.657,0C52.246,0,67.315,11.777,67.315,26.3s-15.069,26.3-33.657,26.3S0,40.831,0,26.3,15.069,0,33.657,0Z" transform="translate(9.46 91.306) rotate(-73.2)" fill="url(#radial-gradient-6)"/>
        <path id="Shape-4" data-name="Shape" d="M24.841,24.458C19.771,34.544,10.86,40.3,4.934,37.309S-1.675,23.718,3.4,13.628,17.381-2.212,23.289.8,29.915,14.371,24.841,24.458Z" transform="translate(138.724 112.391)" opacity="0.246" fill="url(#radial-gradient-7)"/>
        <path id="Shape-5" data-name="Shape" d="M159.934,35.726c0-1.816-.055-3.618-.147-5.413a91.812,91.812,0,0,0-155.7,88.8A99.52,99.52,0,0,0,59.7,136.063,100.31,100.31,0,0,0,159.934,35.726Z" transform="translate(0.561 0.663)" opacity="0.48" fill="url(#radial-gradient-8)"/>
        <path id="Shape-6" data-name="Shape" d="M.742,16.2h0a4.228,4.228,0,0,0,.482.693h0L6.5,24.514h0L9.46,26.229,4.193,18.593h0a4.409,4.409,0,0,1-.507-.748h0a5.4,5.4,0,0,1-.369-.9V16.9c-.046-.155-.092-.319-.13-.487v-.067c-.034-.155-.063-.319-.084-.483a.286.286,0,0,1,0-.059c-.025-.172-.042-.353-.055-.538a1.112,1.112,0,0,1,0-.122v-.576c0-4.509,2.906-9.884,6.492-12a4.529,4.529,0,0,1,4.034-.609L10.685.32a4.421,4.421,0,0,0-4.194.53h0C2.906,2.951,0,8.338,0,12.848A6.9,6.9,0,0,0,.742,16.2Z" transform="translate(29.4 74.208)" fill="url(#radial-gradient-9)"/>
        <path id="Oval-5" data-name="Oval" d="M9.649,0C14.979,0,19.3,2.459,19.3,5.493s-4.32,5.493-9.649,5.493S0,8.526,0,5.493,4.32,0,9.649,0Z" transform="translate(29.706 91.204) rotate(-64.05)" fill="url(#linear-gradient)"/>
        <path id="Shape-7" data-name="Shape" d="M.075,0h0L0,.2Z" transform="translate(44.547 85.295)" fill="url(#linear-gradient-2)"/>
        <path id="Shape-8" data-name="Shape" d="M5.275,6.724A14.022,14.022,0,0,0,10.622,0L5.288,14.041h0L0,6.43C1.178,7.8,3.1,8.006,5.275,6.724Z" transform="translate(33.594 86.371)" fill="url(#linear-gradient-3)"/>
        <path id="Shape-9" data-name="Shape" d="M7.653,3.063A8.994,8.994,0,0,1,3.829,10.14C1.715,11.389,0,10.246,0,7.585A9,9,0,0,1,3.829.508C5.942-.74,7.653.386,7.653,3.063Z" transform="translate(35.041 79.605)" fill="#fff"/>
        <path id="Shape-10" data-name="Shape" d="M.551,13.306h0a3.194,3.194,0,0,0,.394.572h0l4.311,6.258h0l2.432,1.408-4.3-6.291h0a3.253,3.253,0,0,1-.419-.609h0a4.027,4.027,0,0,1-.306-.735.1.1,0,0,1,0-.034,4.054,4.054,0,0,1-.1-.42V13.4c-.029-.126-.05-.261-.071-.4v-.042c0-.143-.034-.294-.042-.445V11.94c0-3.7,2.382-8.111,5.322-9.847a3.717,3.717,0,0,1,3.317-.5L8.766.261a3.659,3.659,0,0,0-3.43.42h0C2.4,2.421.01,6.829.01,10.528a5.667,5.667,0,0,0,.541,2.778Z" transform="translate(152.563 84.912)" fill="url(#radial-gradient-10)"/>
        <path id="Shape-11" data-name="Shape" d="M10.647,4.258c0,3.7-2.382,8.111-5.326,9.847S0,14.248,0,10.55,2.382,2.439,5.322.7,10.647.556,10.647,4.258Z" transform="translate(154.951 86.319)" fill="url(#linear-gradient-4)"/>
        <path id="Shape-12" data-name="Shape" d="M4.324,5.5A11.608,11.608,0,0,0,8.714,0L4.336,11.507h0L0,5.241C.965,6.384,2.541,6.556,4.324,5.5Z" transform="translate(155.949 94.923)" fill="url(#linear-gradient-5)"/>
        <path id="Shape-13" data-name="Shape" d="M6.282,2.514A7.384,7.384,0,0,1,3.141,8.322C1.4,9.348,0,8.406,0,6.221A7.383,7.383,0,0,1,3.141.413C4.873-.608,6.282.329,6.282,2.514Z" transform="translate(157.132 89.354)" fill="#fff"/>
        <path id="Shape-14" data-name="Shape" d="M11.067,10.539c0-3.7-2.382-8.111-5.326-9.847h0a3.581,3.581,0,0,0-3.43-.42L0,1.6a3.72,3.72,0,0,1,3.313.5c2.935,1.74,5.326,6.148,5.326,9.847v.576a2.993,2.993,0,0,1-.046.42v.046c-.021.139-.042.273-.071.42v.055c-.034.139-.067.273-.1.42v.034a4.49,4.49,0,0,1-.3.735h0a3.274,3.274,0,0,1-.419.614h0L3.3,21.511l2.436-1.387h0l4.328-6.258h0a3.362,3.362,0,0,0,.394-.572h0a5.679,5.679,0,0,0,.608-2.757Z" transform="translate(101.76 29.188)" fill="url(#radial-gradient-11)"/>
        <path id="Oval-6" data-name="Oval" d="M4.5,0c2.483,0,4.5,3.552,4.5,7.934s-2.013,7.934-4.5,7.934S0,12.317,0,7.934,2.013,0,4.5,0Z" transform="translate(97.549 32.803) rotate(-25.95)" fill="url(#linear-gradient-6)"/>
        <path id="Shape-15" data-name="Shape" d="M0,0H0L.063.164C.029.109.029.055,0,0Z" transform="translate(100.338 38.277)" fill="url(#linear-gradient-7)"/>
        <path id="Shape-16" data-name="Shape" d="M4.391,5.5A11.608,11.608,0,0,1,0,0L4.378,11.507v.021h0L8.706,5.27C7.75,6.367,6.173,6.539,4.391,5.5Z" transform="translate(100.674 39.188)" fill="url(#linear-gradient-8)"/>
        <path id="Shape-17" data-name="Shape" d="M0,2.516A7.384,7.384,0,0,0,3.141,8.324c1.736,1.025,3.141.084,3.141-2.1A7.389,7.389,0,0,0,3.141.415C1.409-.611,0,.331,0,2.516Z" transform="translate(101.924 33.604)" fill="#fff"/>
        <path id="Shape-18" data-name="Shape" d="M1.778.891A.889.889,0,1,1,.893,0,.891.891,0,0,1,1.778.891Z" transform="translate(160.105 109.582)" fill="#fff"/>
        <path id="Shape-19" data-name="Shape" d="M1.778.891a.89.89,0,1,1-.26-.63.89.89,0,0,1,.26.63Z" transform="translate(158.7 53.124)" fill="#fff"/>
        <path id="Shape-20" data-name="Shape" d="M1.778.891A.886.886,0,1,1,1.513.254a.89.89,0,0,1,.265.637Z" transform="translate(104.528 53.011)" fill="#fff"/>
        <path id="Shape-21" data-name="Shape" d="M1.778.887A.889.889,0,1,1,.893,0a.891.891,0,0,1,.885.887Z" transform="translate(42.744 45.602)" fill="#fff"/>
        <path id="Shape-22" data-name="Shape" d="M0,8.5s26.327-24.009,15.65,8.7" transform="translate(159.589 45.519)" fill="none" stroke="#707070" stroke-miterlimit="10" stroke-width="0.5"/>
        <path id="Shape-23" data-name="Shape" d="M61.624,77.433S11.243,101.11,0,0" transform="translate(37.745 103.177)" fill="none" stroke="#707070" stroke-miterlimit="10" stroke-width="0.5"/>
        <path id="Shape-24" data-name="Shape" d="M0,4.969s33.632-15.129,61.779,7.413" transform="translate(43.637 41.52)" fill="none" stroke="#fff" stroke-miterlimit="10" stroke-width="0.5"/>
        <path id="Shape-25" data-name="Shape" d="M22.448,0s-55.3,49.372,7.691,63.959" transform="translate(15.238 103.059)" fill="none" stroke="#707070" stroke-linecap="round" stroke-miterlimit="10" stroke-width="0.5"/>
        <path id="Shape-26" data-name="Shape" d="M0,16.81S34.135,25.064,19.345,0" transform="translate(160.998 93.662)" fill="none" stroke="#707070" stroke-miterlimit="10" stroke-width="0.5"/>
        <path id="Shape-27" data-name="Shape" d="M0,56.533S47.907,52.9,21.517,0" transform="translate(139.481 110.473)" fill="none" stroke="#707070" stroke-miterlimit="10" stroke-width="0.5"/>
      </g>
    </g>
    <g id="Group_3" data-name="Group 3" transform="translate(130.33 0.158)">
      <path id="Shape-28" data-name="Shape" d="M17.978,35.8a8.031,8.031,0,0,0,.977-1.442v-.033a9.864,9.864,0,0,0,.708-1.723.726.726,0,0,0,.03-.085c.093-.3.172-.617.248-.941l.025-.126c.063-.3.117-.614.164-.937v-.105c.046-.337.079-.685.1-1.038v-.236c.033-.361.033-.731.033-1.113,0-8.7-5.594-19.038-12.492-23.115C4.835,3.171,2.135,2.856,0,3.733L5.431.607c2.176-1.033,4.978-.781,8.048,1.026,6.9,4.084,12.5,14.427,12.5,23.114a13.3,13.3,0,0,1-1.418,6.426,7.8,7.8,0,0,1-.927,1.34L13.524,47.222v-.017l-5.708,3.3ZM13.524,47.222v.025Zm5.284-12.776v.022Z" transform="translate(10.127 1.108)" fill="url(#radial-gradient-12)"/>
      <path id="Oval-7" data-name="Oval" d="M10.551,0C16.378,0,21.1,8.335,21.1,18.617S16.378,37.235,10.551,37.235,0,28.9,0,18.617,4.724,0,10.551,0Z" transform="translate(0.25 9.611) rotate(-25.95)" fill="url(#linear-gradient-9)"/>
      <path id="Shape-29" data-name="Shape" d="M0,0H0L.143.382C.088.247.046.13,0,0Z" transform="translate(6.798 22.446)" fill="url(#linear-gradient-10)"/>
      <path id="Shape-30" data-name="Shape" d="M10.3,12.906C6.026,10.385,2.252,5.451,0,0L10.274,26.993v.05h0v-.013L20.452,12.339C18.183,14.97,14.48,15.365,10.3,12.906Z" transform="translate(7.586 24.56)" fill="url(#linear-gradient-11)"/>
      <path id="Oval-8" data-name="Oval" d="M6.223,0c3.437,0,6.223,4.917,6.223,10.981S9.66,21.963,6.223,21.963,0,17.046,0,10.981,2.786,0,6.223,0Z" transform="translate(7.483 14.583) rotate(-25.95)" fill="#fff"/>
    </g>
  </g>
</svg>
