<svg xmlns="http://www.w3.org/2000/svg" width="288.912" height="165.715" viewBox="0 0 288.912 165.715">
  <g id="Group_49" data-name="Group 49" transform="translate(0.829 0.829)">
    <g id="Group_6_Copy_2" data-name="Group 6 Copy 2" transform="translate(58.632 115.047)">
      <path id="Stroke_1" data-name="Stroke 1" d="M13.695,0,0,21.422" transform="translate(0 0)" fill="none" stroke="#4548e8" stroke-linecap="round" stroke-linejoin="round" stroke-miterlimit="10" stroke-width="1.2"/>
      <path id="Fill_3" data-name="Fill 3" d="M17.5,7.827c-3.8-.476-7.648,2.462-12.13,2.583S0,7.02,0,7.02l3.975-7S5.024,3.487,9.5,3.16,17.677-.28,21.5.02Z" transform="translate(8.608 1.719)" fill="#4548e8"/>
    </g>
    <g id="Group_6_Copy_3" data-name="Group 6 Copy 3" transform="translate(31.661 93.916)">
      <path id="Stroke_1-2" data-name="Stroke 1" d="M13.695,0,0,21.422" transform="translate(0 0)" fill="none" stroke="#4548e8" stroke-linecap="round" stroke-linejoin="round" stroke-miterlimit="10" stroke-width="1.2"/>
      <path id="Fill_3-2" data-name="Fill 3" d="M17.5,7.827c-3.8-.476-7.648,2.462-12.13,2.583S0,7.02,0,7.02l3.975-7S5.024,3.487,9.5,3.16,17.677-.28,21.5.02Z" transform="translate(8.608 1.719)" fill="#4548e8"/>
    </g>
    <g id="Group_6_Copy_4" data-name="Group 6 Copy 4" transform="translate(91.466 61.045)">
      <path id="Stroke_1-3" data-name="Stroke 1" d="M13.695,0,0,21.422" transform="translate(0 0)" fill="none" stroke="#4548e8" stroke-linecap="round" stroke-linejoin="round" stroke-miterlimit="10" stroke-width="1.2"/>
      <path id="Fill_3-3" data-name="Fill 3" d="M17.5,7.827c-3.8-.476-7.648,2.462-12.13,2.583S0,7.02,0,7.02l3.975-7S5.024,3.487,9.5,3.16,17.677-.28,21.5.02Z" transform="translate(8.608 1.719)" fill="#4548e8"/>
    </g>
    <g id="Group_6_Copy_5" data-name="Group 6 Copy 5" transform="translate(20.521 0)">
      <path id="Stroke_1-4" data-name="Stroke 1" d="M13.695,0,0,21.422" transform="translate(0 0)" fill="none" stroke="#4548e8" stroke-linecap="round" stroke-linejoin="round" stroke-miterlimit="10" stroke-width="1.2"/>
      <path id="Fill_3-4" data-name="Fill 3" d="M17.5,7.827c-3.8-.476-7.648,2.462-12.13,2.583S0,7.02,0,7.02l3.975-7S5.024,3.487,9.5,3.16,17.677-.28,21.5.02Z" transform="translate(8.608 1.719)" fill="#4548e8"/>
    </g>
    <g id="Group_6_Copy_6" data-name="Group 6 Copy 6" transform="translate(150.098 39.327)">
      <path id="Stroke_1-5" data-name="Stroke 1" d="M13.695,0,0,21.422" transform="translate(0 0)" fill="none" stroke="#4548e8" stroke-linecap="round" stroke-linejoin="round" stroke-miterlimit="10" stroke-width="1.2"/>
      <path id="Fill_3-5" data-name="Fill 3" d="M17.5,7.827c-3.8-.476-7.648,2.462-12.13,2.583S0,7.02,0,7.02l3.975-7S5.024,3.487,9.5,3.16,17.677-.28,21.5.02Z" transform="translate(8.608 1.719)" fill="#4548e8"/>
    </g>
    <g id="Group_6_Copy_7" data-name="Group 6 Copy 7" transform="translate(196.417 56.35)">
      <path id="Stroke_1-6" data-name="Stroke 1" d="M13.695,0,0,21.422" transform="translate(0 0)" fill="none" stroke="#4548e8" stroke-linecap="round" stroke-linejoin="round" stroke-miterlimit="10" stroke-width="1.2"/>
      <path id="Fill_3-6" data-name="Fill 3" d="M17.5,7.827c-3.8-.476-7.648,2.462-12.13,2.583S0,7.02,0,7.02l3.975-7S5.024,3.487,9.5,3.16,17.677-.28,21.5.02Z" transform="translate(8.608 1.719)" fill="#4548e8"/>
    </g>
    <g id="Group_6_Copy_11" data-name="Group 6 Copy 11" transform="translate(233.355 24.653)">
      <path id="Stroke_1-7" data-name="Stroke 1" d="M13.695,0,0,21.422" transform="translate(0 0)" fill="none" stroke="#4548e8" stroke-linecap="round" stroke-linejoin="round" stroke-miterlimit="10" stroke-width="1.2"/>
      <path id="Fill_3-7" data-name="Fill 3" d="M17.5,7.827c-3.8-.476-7.648,2.462-12.13,2.583S0,7.02,0,7.02l3.975-7S5.024,3.487,9.5,3.16,17.677-.28,21.5.02Z" transform="translate(8.608 1.719)" fill="#4548e8"/>
    </g>
    <g id="Group_6_Copy_8" data-name="Group 6 Copy 8" transform="translate(242.736 142.635)">
      <path id="Stroke_1-8" data-name="Stroke 1" d="M13.695,0,0,21.422" transform="translate(0 0)" fill="none" stroke="#4548e8" stroke-linecap="round" stroke-linejoin="round" stroke-miterlimit="10" stroke-width="1.2"/>
      <path id="Fill_3-8" data-name="Fill 3" d="M17.5,7.827c-3.8-.476-7.648,2.462-12.13,2.583S0,7.02,0,7.02l3.975-7S5.024,3.487,9.5,3.16,17.677-.28,21.5.02Z" transform="translate(8.608 1.719)" fill="#4548e8"/>
    </g>
    <g id="Group_6_Copy_9" data-name="Group 6 Copy 9" transform="translate(257.981 104.482)">
      <path id="Stroke_1-9" data-name="Stroke 1" d="M13.695,0,0,21.422" transform="translate(0 0)" fill="none" stroke="#4548e8" stroke-linecap="round" stroke-linejoin="round" stroke-miterlimit="10" stroke-width="1.2"/>
      <path id="Fill_3-9" data-name="Fill 3" d="M17.5,7.827c-3.8-.476-7.648,2.462-12.13,2.583S0,7.02,0,7.02l3.975-7S5.024,3.487,9.5,3.16,17.677-.28,21.5.02Z" transform="translate(8.608 1.719)" fill="#4548e8"/>
    </g>
    <g id="Group_6_Copy_10" data-name="Group 6 Copy 10" transform="translate(0 78.068)">
      <path id="Stroke_1-10" data-name="Stroke 1" d="M13.695,0,0,21.422" transform="translate(0 0)" fill="none" stroke="#4548e8" stroke-linecap="round" stroke-linejoin="round" stroke-miterlimit="10" stroke-width="1.2"/>
      <path id="Fill_3-10" data-name="Fill 3" d="M17.5,7.827c-3.8-.476-7.648,2.462-12.13,2.583S0,7.02,0,7.02l3.975-7S5.024,3.487,9.5,3.16,17.677-.28,21.5.02Z" transform="translate(8.608 1.719)" fill="#4548e8"/>
    </g>
  </g>
</svg>
