<svg xmlns="http://www.w3.org/2000/svg" xmlns:xlink="http://www.w3.org/1999/xlink" width="57" height="57" viewBox="0 0 57 57">
  <defs>
    <linearGradient id="linear-gradient" x1="0.5" y1="1" x2="0.5" gradientUnits="objectBoundingBox">
      <stop offset="0" stop-color="#f3f6f9"/>
      <stop offset="1" stop-color="#fff"/>
    </linearGradient>
    <clipPath id="clip-path">
      <path id="Oval_3" data-name="Oval 3" d="M26.5,0A26.5,26.5,0,1,1,0,26.5,26.5,26.5,0,0,1,26.5,0Z" stroke="#707070" stroke-miterlimit="10" stroke-width="5" fill="url(#linear-gradient)"/>
    </clipPath>
  </defs>
  <g id="Group_53" data-name="Group 53" transform="translate(2 2)">
    <g id="Oval_3-2" data-name="Oval 3" stroke-miterlimit="10" fill="url(#linear-gradient)">
      <path d="M 26.5 54 C 22.7879695892334 54 19.18643951416016 53.27276992797852 15.79545021057129 51.8385009765625 C 12.52066040039063 50.4533805847168 9.579799652099609 48.47066116333008 7.054570198059082 45.94543075561523 C 4.529339790344238 43.42020034790039 2.546619892120361 40.47933959960938 1.161499977111816 37.20455169677734 C -0.2727699875831604 33.81356048583984 -1 30.2120304107666 -1 26.5 C -1 22.7879695892334 -0.2727699875831604 19.18643951416016 1.161499977111816 15.79545021057129 C 2.546619892120361 12.52066040039063 4.529339790344238 9.579799652099609 7.054570198059082 7.054570198059082 C 9.579799652099609 4.529339790344238 12.52066040039063 2.546619892120361 15.79545021057129 1.161499977111816 C 19.18643951416016 -0.2727699875831604 22.7879695892334 -1 26.5 -1 C 30.2120304107666 -1 33.81356048583984 -0.2727699875831604 37.20455169677734 1.161499977111816 C 40.47933959960938 2.546619892120361 43.42020034790039 4.529339790344238 45.94543075561523 7.054570198059082 C 48.47066116333008 9.579799652099609 50.4533805847168 12.52066040039063 51.8385009765625 15.79545021057129 C 53.27276992797852 19.18643951416016 54 22.7879695892334 54 26.5 C 54 30.2120304107666 53.27276992797852 33.81356048583984 51.8385009765625 37.20455169677734 C 50.4533805847168 40.47933959960938 48.47066116333008 43.42020034790039 45.94543075561523 45.94543075561523 C 43.42020034790039 48.47066116333008 40.47933959960938 50.4533805847168 37.20455169677734 51.8385009765625 C 33.81356048583984 53.27276992797852 30.2120304107666 54 26.5 54 Z" stroke="none"/>
      <path d="M 26.5 0 C 11.86445999145508 0 0 11.86445999145508 0 26.5 C 0 41.13554000854492 11.86445999145508 53 26.5 53 C 41.13554000854492 53 53 41.13554000854492 53 26.5 C 53 11.86445999145508 41.13554000854492 0 26.5 0 M 26.5 -2 C 30.34658813476563 -2 34.07918548583984 -1.246189117431641 37.59409332275391 0.2404937744140625 C 40.98809432983398 1.676036834716797 44.03580093383789 3.730716705322266 46.65254211425781 6.347457885742188 C 49.26928329467773 8.964199066162109 51.3239631652832 12.01190567016602 52.75950622558594 15.40590667724609 C 54.24618911743164 18.92081069946289 55 22.65341186523438 55 26.5 C 55 30.34658813476563 54.24618911743164 34.07918548583984 52.75950622558594 37.59409332275391 C 51.3239631652832 40.98809432983398 49.26928329467773 44.03580093383789 46.65254211425781 46.65254211425781 C 44.03580093383789 49.26928329467773 40.98809432983398 51.3239631652832 37.59409332275391 52.75950622558594 C 34.07918548583984 54.24618911743164 30.34658813476563 55 26.5 55 C 22.65341186523438 55 18.92081069946289 54.24618911743164 15.40590667724609 52.75950622558594 C 12.01190567016602 51.3239631652832 8.964199066162109 49.26928329467773 6.347457885742188 46.65254211425781 C 3.730716705322266 44.03580093383789 1.676036834716797 40.98809432983398 0.2404937744140625 37.59409332275391 C -1.246189117431641 34.07918548583984 -2 30.34658813476563 -2 26.5 C -2 22.65341186523438 -1.246189117431641 18.92081069946289 0.2404937744140625 15.40590667724609 C 1.676036834716797 12.01190567016602 3.730716705322266 8.964199066162109 6.347457885742188 6.347457885742188 C 8.964199066162109 3.730716705322266 12.01190567016602 1.676036834716797 15.40590667724609 0.2404937744140625 C 18.92081069946289 -1.246189117431641 22.65341186523438 -2 26.5 -2 Z" stroke="none" fill="#707070"/>
    </g>
    <g id="Group_53-2" data-name="Group 53" clip-path="url(#clip-path)">
      <g id="Group_52" data-name="Group 52" transform="translate(5 4.735)">
        <path id="Fill_2" data-name="Fill 2" d="M12.123,7.182A2.236,2.236,0,0,0,12.264,8.2a10.265,10.265,0,0,1-.282,3.528,2.651,2.651,0,0,1-1.5,1.206c-.315.075-1.305-.621-2.214-.915A2.675,2.675,0,0,0,7,11.775a3.357,3.357,0,0,0-1.488.534c-.165-.03-.21-.093-.306,0a3.025,3.025,0,0,0-.573.726c-.1.234-.339,1.161-.633,1.254s-1.077.885-1.587.915a2.465,2.465,0,0,1-.732-.048c-.348-.018-.387-.387-.729-.573a1.19,1.19,0,0,1-.42-.345s-.1-.381-.252-.381S0,14.529,0,14.724a2.631,2.631,0,0,0,.573,1.065c.195.147.195,1.014.1,1.254s.192.492.24.726-.3.435-.147.48a.727.727,0,0,1,.339.633c0,.288.714.387.867.675a4.259,4.259,0,0,1,.252,1.065c.036.288.207.147.228.87.24.111.576.339.873.48s.24.486.627.627.381,0,.582.057c.192.042-.09.093.252.189s.474-.048.756.093.45.48.633.585,1.023.342,1.065.381a2.572,2.572,0,0,0,.675.246,1.442,1.442,0,0,0,.393-.192,1.341,1.341,0,0,0,.627,0c.291-.093.492-.387.678-.387s.234.093.435.093a2.008,2.008,0,0,0,.48-.093,1.242,1.242,0,0,1,.78.093,3.094,3.094,0,0,1,1.107,1.5,2.373,2.373,0,0,1-.054.579,1.328,1.328,0,0,1,.534.042c.153.1.129-.075,1.206.1-.063-.264-1.107-1.014-.141-2.073s1.032-.627,1.254-.825a2.651,2.651,0,0,1,2.607-.237c1.461-.234.393-.444,1.209-.486a1.422,1.422,0,0,1,.726.1.558.558,0,0,1,.633-.294,1.171,1.171,0,0,1,.873-.441c.051-.321,1.095-.732,1.68-.765.252-.225.522-1.191,1.854-.729.039-.309.258-.819.615-.918.081-.651-.171-1.971.492-2.415.645-.6,1.272-.456,2.361-.432.762.15,1.107.714,1.359.771a.654.654,0,0,0,.615-.15c.3-.189-.042-.582.2-.582a1.534,1.534,0,0,0,.534,0c.393-.039.336-.174.576-.234.39.2.825.048,1.023.2s.219.126.621.18a.691.691,0,0,0,.54.252s-.294-.1-.192-.252a.8.8,0,0,0-.195-.762,3.2,3.2,0,0,1-.438-.444c-.147-.189.045-.189-.195-.429s-.774-.486-.912-.774-.1-.48-.348-.72S30.24,12.357,30.2,11.49s.042-1.713.633-1.983c-.021-.513.09-.585.621-.879s.588-.093.921-.093a1.152,1.152,0,0,0,.873-.192c.333-.24.042-.774.915-1.542S35.379,5.634,35.673,5.6c.279-.06,1.335-.792,1.767-.732a7.206,7.206,0,0,1,1.026-1.11c.393-.291.816-.291,1.008-.531s.153-.675.732-1.056,1.068-.645,1.308-.825c.234-.2.768-.054.966-.24.195-.207.195-.927.393-1.074.183-.147-.633.342-1.077.534a3.491,3.491,0,0,1-1.59.486c-.531-.054-.24.294-.531.387s-.774.048-.969.24a7.719,7.719,0,0,1-.813.873c-.3.189-.453.141-.732.288s-.534.285-.774.387a3.505,3.505,0,0,1-.966.051s-.633.816-.927,1.113-.621.234-.915.381a15.851,15.851,0,0,1-4.434,1.98c-1.695.237-.927-.144-1.461,0s-1.3,1.161-1.932,1.2a4.5,4.5,0,0,1-.954,0c-.153,0-.927.492-1.413.393a3.592,3.592,0,0,1-1.452.147c-.207-.024-.576.246-1.11,0-.408-.135-.408.156-1.206-.1s-1.347.1-1.74-.093-.333-.351-.633-.351c-.282,0-.282.2-.627.2s-.393-.2-.675-.2a5.619,5.619,0,0,1-1.065.153c-.435-.054-.573-.246-.867-.246a13.678,13.678,0,0,1-1.887-.675" transform="translate(0.932 2.925)" fill="#dd7d21"/>
        <path id="Fill_4" data-name="Fill 4" d="M0,1.73A5.877,5.877,0,0,1,2.73.722c1.143-.2,2.349-.54,2.982-.7a26.6,26.6,0,0,1-2.853,1C2.163,1.226,0,1.73,0,1.73" transform="translate(17.994 37.903)" fill="#2c6752"/>
        <path id="Fill_6" data-name="Fill 6" d="M.049,3.552A3.262,3.262,0,0,1,1.69,0c.3,1.044-.627,2.814-1.641,3.552" transform="translate(22.545 34.294)" fill="#2c6752"/>
        <path id="Fill_8" data-name="Fill 8" d="M.212,3.492C-.484,2.292.686.75,1.559,0c.4.72-.3,2.871-1.347,3.492" transform="translate(24.603 33.61)" fill="#2c6752"/>
        <path id="Fill_10" data-name="Fill 10" d="M.275,3.528C-.463,2.5.416.711,1.352,0A3.359,3.359,0,0,1,.275,3.528" transform="translate(26.584 32.648)" fill="#2c6752"/>
        <path id="Fill_12" data-name="Fill 12" d="M.32,3.444C-.361,2.478.116.978,1.094,0c.7.807.1,2.553-.774,3.444" transform="translate(28.591 31.443)" fill="#2c6752"/>
        <path id="Fill_14" data-name="Fill 14" d="M.2,3.7C-.362,2.787.334.6,1.249,0c.393.807.1,3.093-1.044,3.7" transform="translate(30.352 29.896)" fill="#2c6752"/>
        <path id="Fill_16" data-name="Fill 16" d="M.008,2.713C-.157,1.4,2.129-.041,3.062,0,2.96,1.066,1.982,2.239.008,2.713" transform="translate(31.855 30.539)" fill="#2c6752"/>
        <path id="Fill_18" data-name="Fill 18" d="M0,.993A4.524,4.524,0,0,1,3.9.12C3.7.765,1.242,2.166,0,.993" transform="translate(30.586 33.735)" fill="#2c6752"/>
        <path id="Fill_20" data-name="Fill 20" d="M0,.4C1.512,0,2.49-.33,3.393.606,2.754,1.416.306,1.176,0,.4" transform="translate(29.109 35.434)" fill="#2c6752"/>
        <path id="Fill_22" data-name="Fill 22" d="M0,.259A2.814,2.814,0,0,1,3.462,1.291,3.423,3.423,0,0,1,0,.259" transform="translate(26.953 36.555)" fill="#2c6752"/>
        <path id="Fill_24" data-name="Fill 24" d="M0,.175a3.272,3.272,0,0,1,3.429.9A2.589,2.589,0,0,1,0,.175" transform="translate(24.973 37.746)" fill="#2c6752"/>
        <path id="Fill_26" data-name="Fill 26" d="M0,.017A3.694,3.694,0,0,1,3.276,1.646C1.353,1.832.609,1.253,0,.017" transform="translate(23.168 38.473)" fill="#2c6752"/>
        <path id="Fill_28" data-name="Fill 28" d="M5.8,1.73A5.781,5.781,0,0,0,3.085.722C1.942.524.736.182.091.02a28.2,28.2,0,0,0,2.865,1c.7.2,2.847.708,2.847.708" transform="translate(16.878 37.903)" fill="#2c6752"/>
        <path id="Fill_30" data-name="Fill 30" d="M1.7,3.552A3.23,3.23,0,0,0,.055,0C-.239,1.044.694,2.814,1.7,3.552" transform="translate(16.386 34.294)" fill="#2c6752"/>
        <path id="Fill_32" data-name="Fill 32" d="M1.463,3.492C2.171,2.292.989.75.116,0c-.405.72.3,2.871,1.347,3.492" transform="translate(14.41 33.61)" fill="#2c6752"/>
        <path id="Fill_34" data-name="Fill 34" d="M1.205,3.528C1.955,2.5,1.076.711.14,0A3.359,3.359,0,0,0,1.205,3.528" transform="translate(12.611 32.648)" fill="#2c6752"/>
        <path id="Fill_36" data-name="Fill 36" d="M1.073,3.444C1.748,2.478,1.277.978.305,0c-.7.807-.1,2.553.768,3.444" transform="translate(10.698 31.443)" fill="#2c6752"/>
        <path id="Fill_38" data-name="Fill 38" d="M1.213,3.7C1.792,2.787,1.084.6.169,0c-.4.807-.1,3.093,1.044,3.7" transform="translate(8.918 29.896)" fill="#2c6752"/>
        <path id="Fill_40" data-name="Fill 40" d="M3.042,2.713C3.219,1.4.933-.041,0,0,.1,1.066,1.062,2.239,3.042,2.713" transform="translate(5.771 30.539)" fill="#2c6752"/>
        <path id="Fill_42" data-name="Fill 42" d="M3.9.993A4.524,4.524,0,0,0,0,.12C.207.765,2.655,2.166,3.9.993" transform="translate(6.205 33.735)" fill="#2c6752"/>
        <path id="Fill_44" data-name="Fill 44" d="M3.393.4C1.881,0,.9-.33,0,.606c.627.81,3.087.57,3.393-.2" transform="translate(8.185 35.434)" fill="#2c6752"/>
        <path id="Fill_46" data-name="Fill 46" d="M3.45.259A2.8,2.8,0,0,0,0,1.291,3.4,3.4,0,0,0,3.45.259" transform="translate(10.273 36.555)" fill="#2c6752"/>
        <path id="Fill_48" data-name="Fill 48" d="M3.417.175A3.255,3.255,0,0,0,0,1.078a2.571,2.571,0,0,0,3.417-.9" transform="translate(12.28 37.746)" fill="#2c6752"/>
        <path id="Fill_50" data-name="Fill 50" d="M3.282.017A3.682,3.682,0,0,0,0,1.646c1.935.186,2.673-.393,3.282-1.629" transform="translate(14.243 38.473)" fill="#2c6752"/>
      </g>
    </g>
  </g>
</svg>
