<svg xmlns="http://www.w3.org/2000/svg" width="56.706" height="132.243" viewBox="0 0 56.706 132.243">
  <g id="Group_93" data-name="Group 93" transform="translate(0.003 -0.394)">
    <g id="Group_17" data-name="Group 17" transform="translate(0 97.741)">
      <path id="Stroke_1" data-name="Stroke 1" d="M3.446.032A3.028,3.028,0,0,1,6.872,3.258a4.268,4.268,0,0,1-3.439,4.2A3.029,3.029,0,0,1,0,4.228,4.265,4.265,0,0,1,3.446.032Z" transform="translate(46.545 20.713)" fill="none" stroke="#161615" stroke-linejoin="round" stroke-miterlimit="10" stroke-width="1.05"/>
      <path id="Stroke_3" data-name="Stroke 3" d="M0,6.821l6.291,3.473A3.22,3.22,0,0,1,4.7,7.377a3.973,3.973,0,0,1,.071-.751c.014-.082.044-.158.063-.239.042-.162.078-.325.135-.482.014-.035.033-.068.047-.1a4.339,4.339,0,0,1,.252-.533c.028-.049.057-.095.088-.142a4.311,4.311,0,0,1,.3-.435c.032-.04.061-.081.095-.12A4.1,4.1,0,0,1,6.2,4.112c.033-.031.071-.056.106-.085a3.968,3.968,0,0,1,.4-.289c.082-.053.165-.1.25-.145a3.615,3.615,0,0,1,.393-.187c.058-.024.117-.047.175-.068a3.445,3.445,0,0,1,.626-.155,3.076,3.076,0,0,1,.563-.025c.058,0,.114.01.171.015a3.163,3.163,0,0,1,.366.056c.061.014.12.029.179.047a2.751,2.751,0,0,1,.349.13,2.182,2.182,0,0,1,.21.094L4.214.345,4.11.292c-.033-.017-.071-.024-.1-.039a3,3,0,0,0-.35-.13C3.624.113,3.6.1,3.566.089S3.5.082,3.477.075A3.142,3.142,0,0,0,3.11.019C3.053.014,3,.006,2.939,0a3.064,3.064,0,0,0-.562.027,3.417,3.417,0,0,0-.626.155c-.058.021-.115.045-.174.067S1.433.3,1.364.335s-.12.071-.181.1C1.1.486,1.013.532.933.585.891.611.844.631.8.659.71.724.623.8.534.872.5.9.462.928.427.959.414.97.4.978.388.99a4.008,4.008,0,0,0-.35.355" transform="translate(41.842 17.563)" fill="none" stroke="#161615" stroke-linejoin="round" stroke-miterlimit="10" stroke-width="1.05"/>
      <path id="Stroke_5" data-name="Stroke 5" d="M0,0C0,.5.007,1.025.024,1.544S.046,2.585.045,3.1L.022,15.566,5.795,18.72" transform="translate(29.097 11.618)" fill="none" stroke="#161615" stroke-linejoin="round" stroke-miterlimit="10" stroke-width="1.05"/>
      <path id="Stroke_7" data-name="Stroke 7" d="M0,1A2.54,2.54,0,0,1,.485.726,8.875,8.875,0,0,1,2.9.056c.16-.024.414-.043.6-.056" transform="translate(25.243 0.35)" fill="none" stroke="#161615" stroke-linejoin="round" stroke-miterlimit="10" stroke-width="1.05"/>
      <path id="Stroke_9" data-name="Stroke 9" d="M.06,0,0,15.53l5.772,3.153" transform="translate(14.842 13.669)" fill="none" stroke="#161615" stroke-linejoin="round" stroke-miterlimit="10" stroke-width="1.05"/>
      <path id="Stroke_11" data-name="Stroke 11" d="M0,5.134c.05-.1.111-.221.175-.338.111-.205.243-.429.393-.674.031-.05.064-.1.1-.155.161-.26.336-.532.537-.835a5.049,5.049,0,0,1,.443-.557c.053-.06.115-.117.172-.176.114-.116.232-.23.359-.342.142-.123.3-.241.459-.36.093-.071.181-.142.282-.211A10.353,10.353,0,0,1,3.827.931c.22-.1.592-.24,1.116-.442A8.86,8.86,0,0,1,6.669.073C6.889.041,7.226.021,7.682,0A7.305,7.305,0,0,1,9.17.131a4.895,4.895,0,0,1,.694.181c.061.021.122.038.185.06A6.893,6.893,0,0,1,10.816.7c.032.015.063.032.093.049" transform="translate(13.218 5.411)" fill="none" stroke="#161615" stroke-linejoin="round" stroke-miterlimit="10" stroke-width="1.05"/>
      <path id="Stroke_13" data-name="Stroke 13" d="M5.772,30.1,0,26.942.049,0" transform="translate(0.522 4.277)" fill="none" stroke="#161615" stroke-linejoin="round" stroke-miterlimit="10" stroke-width="1.05"/>
      <path id="Stroke_15" data-name="Stroke 15" d="M6.929,2.944,6.923,7.036a8.177,8.177,0,0,1,6.669-5.061c.22-.032.557-.052,1.013-.071,4.584,0,5.529,3.452,5.589,3.618A9.808,9.808,0,0,1,28.97,0a6.017,6.017,0,0,1,6.259,5.031A8.237,8.237,0,0,1,35.414,6.3c.033.426.057.9.074,1.418s.024,1.114.038,1.781.024,1.425.022,2.3l-.026,14.053-6.923.976.024-12.468c0-5.24-.414-6.345-2.117-7.11a3.6,3.6,0,0,0-3.594.783,4.565,4.565,0,0,0-1.349,2.662,24.881,24.881,0,0,0-.192,4.12l-.025,13.037-7.025.991.028-14.859c-.033-.847.115-5.216-3.566-4.79a4.193,4.193,0,0,0-2.174.966C6.923,11.6,6.9,14.592,6.9,18.241L6.88,29.893,0,30.863.049,3.922" transform="translate(6.295 3.509)" fill="none" stroke="#161615" stroke-linejoin="round" stroke-miterlimit="10" stroke-width="1.05"/>
    </g>
    <path id="Stroke_18" data-name="Stroke 18" d="M3.2,1.748,0,0" transform="translate(39.604 72.269)" fill="none" stroke="#161615" stroke-linejoin="round" stroke-miterlimit="10" stroke-width="1.05"/>
    <g id="Group_33" data-name="Group 33" transform="translate(25.024 43.303)">
      <path id="Stroke_19" data-name="Stroke 19" d="M2,0s-.019,9.825-.019,11.5S1.714,15.815,0,16.475" transform="translate(10.278 31.785)" fill="none" stroke="#161615" stroke-linejoin="round" stroke-miterlimit="10" stroke-width="1.05"/>
      <path id="Stroke_21" data-name="Stroke 21" d="M0,21.393a6.5,6.5,0,0,0,2.059,1.521l5.49,3a7.507,7.507,0,0,1-1.756-1.34,6.874,6.874,0,0,1-1.538-2.614,7.317,7.317,0,0,1-.4-1.51c-.086-.554-.158-1.085-.2-1.593s-.088-.955-.11-1.318-.047-.6-.046-.7L3.527,1.905.04,0" transform="translate(0.225 31.084)" fill="none" stroke="#161615" stroke-linejoin="round" stroke-miterlimit="10" stroke-width="1.05"/>
      <path id="Stroke_23" data-name="Stroke 23" d="M20.591,0l-.026,14.86a27.61,27.61,0,0,1-.272,3.957,10.876,10.876,0,0,1-1.4,3.794,13.828,13.828,0,0,1-1.144,1.6,10.47,10.47,0,0,1-1.731,1.655,11.008,11.008,0,0,1-2.437,1.424,12.593,12.593,0,0,1-3.21.863,12.314,12.314,0,0,1-3.021.06A8.76,8.76,0,0,1,4.58,27.48a7.347,7.347,0,0,1-2.287-1.6A6.9,6.9,0,0,1,.754,23.264a7.355,7.355,0,0,1-.4-1.512C.268,21.2.2,20.668.157,20.16s-.088-.955-.11-1.316-.049-.6-.047-.7L.026,3.209,6.57,2.285S6.544,14.451,6.544,17.8s1.294,4.791,3.663,4.37S14,19.906,14.026,17.036V16.5L14.055.934Z" transform="translate(3.726 29.78)" fill="none" stroke="#161615" stroke-linejoin="round" stroke-miterlimit="10" stroke-width="1.05"/>
      <path id="Stroke_25" data-name="Stroke 25" d="M0,.236,1.668,0" transform="translate(0.261 29.278)" fill="none" stroke="#161615" stroke-linejoin="round" stroke-miterlimit="10" stroke-width="1.05"/>
      <path id="Stroke_27" data-name="Stroke 27" d="M6.544,0,0,.924" transform="translate(3.753 32.065)" fill="none" stroke="#161615" stroke-linejoin="round" stroke-miterlimit="10" stroke-width="1.05"/>
      <path id="Stroke_29" data-name="Stroke 29" d="M0,8.488c.038-.114.092-.258.152-.41.019-.049.036-.094.057-.147.07-.174.147-.364.239-.585A7.489,7.489,0,0,1,.806,6.63c.029-.052.06-.1.092-.158.143-.246.3-.5.484-.766.139-.184.267-.341.388-.482.09-.1.177-.2.259-.283.192-.181.359-.335.51-.451a4.183,4.183,0,0,1,.445-.348,3.981,3.981,0,0,1,.551-.318c.05-.025.1-.042.145-.064a6.575,6.575,0,0,1,.9-.35c.325-.089.62-.166.891-.221s.446-.089.532-.1a8.656,8.656,0,0,1,1.107-.061L1.572,0" transform="translate(24.044 0.583)" fill="none" stroke="#161615" stroke-linejoin="round" stroke-miterlimit="10" stroke-width="1.05"/>
      <path id="Stroke_31" data-name="Stroke 31" d="M12.27.073A4.788,4.788,0,0,1,13.377.012l-.06,6.432a4.557,4.557,0,0,0-.6-.01,7.2,7.2,0,0,0-.955.082l-.423.06a5.45,5.45,0,0,0-.731.155c-.145.046-.367.138-.662.257a5.425,5.425,0,0,0-.955.523,4.943,4.943,0,0,0-1,.882,4.363,4.363,0,0,0-.806,1.355,8,8,0,0,0-.336,1.083A9.435,9.435,0,0,0,6.7,11.974c-.032.427-.057.888-.067,1.407S6.611,14.5,6.609,15.2c-.033.479-.049.963-.05,1.438l0,1.441-.015,8.1L0,27.116.046,2.291,6.276,1.4,6.269,5.474c.088-.272.239-.646.448-1.142A9.34,9.34,0,0,1,7.651,2.69,7.363,7.363,0,0,1,8.3,1.927a6.323,6.323,0,0,1,.51-.451,4.081,4.081,0,0,1,1-.667A6.9,6.9,0,0,1,10.847.394c.325-.088.62-.165.89-.221S12.184.086,12.27.073Z" transform="translate(17.776 3.598)" fill="none" stroke="#161615" stroke-linejoin="round" stroke-miterlimit="10" stroke-width="1.05"/>
    </g>
    <path id="Stroke_34" data-name="Stroke 34" d="M6.922,0,6.873,25.094,0,26.063.05.97Z" transform="translate(32.726 49.672)" fill="none" stroke="#161615" stroke-linejoin="round" stroke-miterlimit="10" stroke-width="1.05"/>
    <path id="Stroke_35" data-name="Stroke 35" d="M5.821,0,5.772,25.094,0,21.94l.011-6.5" transform="translate(26.954 50.641)" fill="none" stroke="#161615" stroke-linejoin="round" stroke-miterlimit="10" stroke-width="1.05"/>
    <path id="Stroke_36" data-name="Stroke 36" d="M10.238.87l-6.872.97L0,0" transform="translate(29.41 48.802)" fill="none" stroke="#161615" stroke-linejoin="round" stroke-miterlimit="10" stroke-width="1.05"/>
    <path id="Stroke_37" data-name="Stroke 37" d="M0,.315,2.236,0" transform="translate(28.853 46.911)" fill="none" stroke="#161615" stroke-linejoin="round" stroke-miterlimit="10" stroke-width="1.05"/>
    <path id="Stroke_38" data-name="Stroke 38" d="M.006,0,3.492,1.9,0,2.4" transform="translate(25.285 74.388)" fill="none" stroke="#161615" stroke-linejoin="round" stroke-miterlimit="10" stroke-width="1.05"/>
    <path id="Stroke_39" data-name="Stroke 39" d="M5.041,2.753,0,0" transform="translate(13.273 100.729)" fill="none" stroke="#161615" stroke-linejoin="round" stroke-miterlimit="10" stroke-width="1.05"/>
    <path id="Stroke_40" data-name="Stroke 40" d="M.065,0l1.5.818-.011,5.7L0,5.668" transform="translate(13.264 77.442)" fill="none" stroke="#161615" stroke-linejoin="round" stroke-miterlimit="10" stroke-width="1.05"/>
    <path id="Stroke_41" data-name="Stroke 41" d="M3.534,0,0,.5" transform="translate(14.828 77.762)" fill="none" stroke="#161615" stroke-linejoin="round" stroke-miterlimit="10" stroke-width="1.05"/>
    <path id="Stroke_42" data-name="Stroke 42" d="M10.482,0l-.015,7.556,3.492-.493-.011,5.7-3.491.493-.039,20.022L3.5,34.252l.038-20.022L0,14.729l.011-5.7,3.534-.5L3.56.977Z" transform="translate(14.818 69.23)" fill="none" stroke="#161615" stroke-linejoin="round" stroke-miterlimit="10" stroke-width="1.05"/>
    <path id="Stroke_43" data-name="Stroke 43" d="M5.048,0,5.033,7.556,0,4.806" transform="translate(13.329 70.207)" fill="none" stroke="#161615" stroke-linejoin="round" stroke-miterlimit="10" stroke-width="1.05"/>
    <path id="Stroke_44" data-name="Stroke 44" d="M5.511,0,6.923.771,0,1.748" transform="translate(18.377 68.459)" fill="none" stroke="#161615" stroke-linejoin="round" stroke-miterlimit="10" stroke-width="1.05"/>
    <path id="Stroke_45" data-name="Stroke 45" d="M6.929,0,6.88,25.714,0,26.693.049.971Z" transform="translate(6.344 78.479)" fill="none" stroke="#161615" stroke-linejoin="round" stroke-miterlimit="10" stroke-width="1.05"/>
    <g id="Group_82" data-name="Group 82" transform="translate(0 9.803)">
      <path id="Stroke_46" data-name="Stroke 46" d="M5.772,28.874,0,25.721V0L5.821,3.153Z" transform="translate(0.571 66.494)" fill="none" stroke="#161615" stroke-linejoin="round" stroke-miterlimit="10" stroke-width="1.05"/>
      <path id="Stroke_48" data-name="Stroke 48" d="M12.7,2.182l-6.88.971L0,0" transform="translate(0.57 66.494)" fill="none" stroke="#161615" stroke-linejoin="round" stroke-miterlimit="10" stroke-width="1.05"/>
      <path id="Stroke_50" data-name="Stroke 50" d="M0,14.653c.036.021.075.04.113.059s.058.02.086.032A3.025,3.025,0,0,0,.6,14.9c.028.008.056.024.083.031s.085.021.128.031a4.611,4.611,0,0,0,1.674.047q.19-.027.684-.151a3.088,3.088,0,0,0,.591-.212c.018-.008.032-.01.05-.018.136-.064.274-.14.417-.222.043-.028.086-.056.129-.087a4.644,4.644,0,0,0,.452-.36c.011-.01.021-.022.031-.032.033-.028.061-.063.093-.094.1-.1.2-.2.3-.306.043-.05.083-.112.128-.165.058-.071.115-.145.172-.222.047-.06.1-.113.139-.177.056-.08.1-.174.158-.258.083-.13.165-.261.246-.4.032-.057.068-.1.1-.163.1-.19.2-.388.293-.6.086-.183.164-.375.236-.574.036-.095.06-.2.092-.3.046-.142.09-.286.131-.436C7,10,7.053,9.75,7.1,9.5c.032-.155.064-.307.09-.469.046-.285.079-.589.111-.9.015-.148.033-.288.046-.441.033-.469.054-.958.056-1.475a14.2,14.2,0,0,0-.256-2.758A5.674,5.674,0,0,0,6.1,1.061,3.525,3.525,0,0,0,4.935,0" transform="translate(15.754 39.131)" fill="none" stroke="#161615" stroke-linejoin="round" stroke-miterlimit="10" stroke-width="1.05"/>
      <path id="Stroke_52" data-name="Stroke 52" d="M3.387,0a14.182,14.182,0,0,1,.257,2.757c0,.518-.022,1.008-.057,1.477-.011.152-.032.292-.046.438-.031.308-.065.613-.111.9-.025.161-.06.314-.089.469-.051.251-.106.5-.17.731-.042.148-.086.293-.132.434a8.19,8.19,0,0,1-.327.877c-.124.272-.259.519-.395.759-.079.141-.163.272-.245.4-.1.151-.2.3-.3.437-.057.075-.114.149-.172.221a5.894,5.894,0,0,1-.431.472c-.031.029-.061.064-.092.094a4.516,4.516,0,0,1-.613.477,4.954,4.954,0,0,1-.467.24" transform="translate(13.746 39.436)" fill="none" stroke="#161615" stroke-linejoin="round" stroke-miterlimit="10" stroke-width="1.05"/>
      <path id="Stroke_54" data-name="Stroke 54" d="M3.428,1.875,0,0" transform="translate(21.911 31.445)" fill="none" stroke="#161615" stroke-linejoin="round" stroke-miterlimit="10" stroke-width="1.05"/>
      <path id="Stroke_56" data-name="Stroke 56" d="M0,37.306H0L.064,2l6.883-.972L6.94,4.64c.145-.21.18-.264.327-.493l.054-.085a4.476,4.476,0,0,1,.559-.738A11.712,11.712,0,0,1,9.962,1.473,8.285,8.285,0,0,1,13.734.109,10.488,10.488,0,0,1,15.193,0a7.06,7.06,0,0,1,1.626.177,8.409,8.409,0,0,1,2.331.917,6.3,6.3,0,0,1,1.595,1.331c.42.5.742.905.986,1.236A10.892,10.892,0,0,1,22.9,6.269,18.053,18.053,0,0,1,23.514,8.9c.12.8.2,1.545.231,2.229.027.7.041,1.131.041,1.4,0,.358-.024.92-.071,1.9a17.641,17.641,0,0,1-.48,3.035,19.925,19.925,0,0,1-1.257,3.595,12.689,12.689,0,0,1-2.406,3.517c-.161.151-.343.322-.546.515l-.377.356a7.568,7.568,0,0,1-1.321.974,12.692,12.692,0,0,1-1.759.863,9.993,9.993,0,0,1-2.224.56c-.168.025-.421.053-.844.092a5.752,5.752,0,0,1-.663.034c-.2,0-.413-.007-.657-.021a6.952,6.952,0,0,1-2.356-.638,10.566,10.566,0,0,1-1.874-1.2L6.933,36.329,0,37.306ZM12.682,6.4h0a4.732,4.732,0,0,0-.658.048,7.81,7.81,0,0,0-1.226.328A4.529,4.529,0,0,0,9.149,7.872,6.631,6.631,0,0,0,7.47,10.527a12.91,12.91,0,0,0-.549,4.482,18.733,18.733,0,0,0,.3,3.319,4.33,4.33,0,0,0,1.524,2.678,3.169,3.169,0,0,0,1.435.742,4.277,4.277,0,0,0,.936.1,5.3,5.3,0,0,0,.738-.054c.125-.018.348-.067.684-.15a3.9,3.9,0,0,0,1.058-.453,6.457,6.457,0,0,0,2.244-2.863,12.956,12.956,0,0,0,.931-5.324,14.255,14.255,0,0,0-.257-2.758,5.669,5.669,0,0,0-1.051-2.4,3.269,3.269,0,0,0-2.78-1.45Z" transform="translate(6.391 32.341)" fill="none" stroke="#161615" stroke-linejoin="round" stroke-miterlimit="10" stroke-width="1.05"/>
      <path id="Stroke_58" data-name="Stroke 58" d="M0,35.3.064,0" transform="translate(0.619 31.191)" fill="none" stroke="#161615" stroke-linejoin="round" stroke-miterlimit="10" stroke-width="1.05"/>
      <path id="Stroke_60" data-name="Stroke 60" d="M0,0,5.432,3.293a4.2,4.2,0,0,1-.143-.8,4.348,4.348,0,0,0-.382-1.283A2.989,2.989,0,0,0,3.811.147" transform="translate(39.61 14.9)" fill="none" stroke="#161615" stroke-linejoin="round" stroke-miterlimit="10" stroke-width="1.05"/>
      <path id="Stroke_62" data-name="Stroke 62" d="M11.564,5.031,5.743,1.5c-.081-.049-.164-.1-.247-.142a7.527,7.527,0,0,0-.876-.4C4.554.932,4.482.911,4.414.888,4.236.822,4.061.755,3.869.7Q3.535.6,3.177.525C2.337.336,1.207.154,0,0" transform="translate(37.506 16.461)" fill="none" stroke="#161615" stroke-linejoin="round" stroke-miterlimit="10" stroke-width="1.05"/>
      <path id="Stroke_64" data-name="Stroke 64" d="M0,0A9.771,9.771,0,0,0,.63,3.622a9.234,9.234,0,0,0,2.19,2.859,6.568,6.568,0,0,0,.97.72L9.7,10.693" transform="translate(23.906 27.901)" fill="none" stroke="#161615" stroke-linejoin="round" stroke-miterlimit="10" stroke-width="1.05"/>
      <path id="Stroke_66" data-name="Stroke 66" d="M13.793,4.72,7.972,1.193c-.076-.047-.154-.092-.232-.135a6.219,6.219,0,0,0-.609-.29A10.892,10.892,0,0,0,6.055.39c-.033-.008-.064-.011-.1-.02A9.8,9.8,0,0,0,4.61.086,10.174,10.174,0,0,0,2.42.038,23.934,23.934,0,0,0,0,.373" transform="translate(34.073 4.804)" fill="none" stroke="#161615" stroke-linejoin="round" stroke-miterlimit="10" stroke-width="1.05"/>
      <path id="Stroke_68" data-name="Stroke 68" d="M6.913,1.59A13.444,13.444,0,0,1,11.23.2c.289-.045.759-.1,1.407-.158a10.079,10.079,0,0,1,2.19.046,10.207,10.207,0,0,1,2.521.681,6.8,6.8,0,0,1,2.4,1.714,10.443,10.443,0,0,1,.97,1.283,7.968,7.968,0,0,1,.968,2.493c.092.508.15.97.185,1.365s.05.678.05.872L15.365,9.859a4.2,4.2,0,0,1-.143-.8,4.373,4.373,0,0,0-.382-1.283,2.332,2.332,0,0,0-1.1-1.066,5.594,5.594,0,0,0-2.771-.378c-1.778.106-3.92,1.173-3.353,3.518.254,1.062,1.8,1.3,2.187,1.369s5.76.677,7.019.96a7.752,7.752,0,0,1,3.134,1.364,6.316,6.316,0,0,1,1.446,1.568,6.2,6.2,0,0,1,.78,1.713,8.033,8.033,0,0,1,.3,1.6c.05.5.076.91.075,1.217a12.693,12.693,0,0,1-.268,2.666,12.394,12.394,0,0,1-.642,2.1,7.758,7.758,0,0,1-.838,1.555c-.3.426-.58.8-.829,1.1a10.791,10.791,0,0,1-2.423,2.122,15.947,15.947,0,0,1-2.472,1.269,11.544,11.544,0,0,1-2.116.649c-.621.107-1.04.194-1.261.229-.254.039-.749.087-1.49.172a13.038,13.038,0,0,1-2.565-.028,8.255,8.255,0,0,1-2.974-.755A9.761,9.761,0,0,1,.977,27.061,9.444,9.444,0,0,1,0,22.722" transform="translate(29.677 8.333)" fill="none" stroke="#161615" stroke-linejoin="round" stroke-miterlimit="10" stroke-width="1.05"/>
      <path id="Stroke_70" data-name="Stroke 70" d="M0,3.065A3.225,3.225,0,0,0,1.7,6.191a5.537,5.537,0,0,0,3.127.187A4.547,4.547,0,0,0,7.524,5.187a3.043,3.043,0,0,0,.838-2.151A2.68,2.68,0,0,0,8.269,2.4a1.938,1.938,0,0,0-.424-.815A2.644,2.644,0,0,0,6.27.885C5.7.807.833.127.006,0" transform="translate(36.795 26.984)" fill="none" stroke="#161615" stroke-linejoin="round" stroke-miterlimit="10" stroke-width="1.05"/>
      <path id="Stroke_72" data-name="Stroke 72" d="M.025.624s0,1.594,0,2.1L0,16.95,5.774,20.1,5.8,5.875c0-.5.01-1.055.028-1.635a9.581,9.581,0,0,0-.09-1.662,4.794,4.794,0,0,0-.445-1.467A2.518,2.518,0,0,0,4.262.039.764.764,0,0,0,4.2,0" transform="translate(23.905 10.951)" fill="none" stroke="#161615" stroke-linejoin="round" stroke-miterlimit="10" stroke-width="1.05"/>
      <path id="Stroke_74" data-name="Stroke 74" d="M15.43,3.964S9.487.718,9.4.676A8.148,8.148,0,0,0,5,.069a10.118,10.118,0,0,0-5,2.5" transform="translate(17.712 0.597)" fill="none" stroke="#161615" stroke-linejoin="round" stroke-miterlimit="10" stroke-width="1.05"/>
      <path id="Stroke_76" data-name="Stroke 76" d="M0,1.057,0,0,5.775,3.153,5.726,29.966l-1.545-.844" transform="translate(9.158 3.192)" fill="none" stroke="#161615" stroke-linejoin="round" stroke-miterlimit="10" stroke-width="1.05"/>
      <path id="Stroke_78" data-name="Stroke 78" d="M13.6.085A12.739,12.739,0,0,1,14.91,0a7.313,7.313,0,0,1,1.835.228,6.605,6.605,0,0,1,1.967.867A6.262,6.262,0,0,1,20.5,2.932a7.642,7.642,0,0,1,.909,1.978,12.445,12.445,0,0,1,.418,2.157,21.805,21.805,0,0,1,.114,2.246l0,2.272-.026,14.732-7.118,1,.026-14.228c0-.5.01-1.054.026-1.635a9.448,9.448,0,0,0-.089-1.662,4.833,4.833,0,0,0-.445-1.467,2.538,2.538,0,0,0-1.03-1.072,2.8,2.8,0,0,0-.792-.346A3.812,3.812,0,0,0,8.811,8.06a6.157,6.157,0,0,0-1.664,3.826c-.035.444-.1,2.659-.1,3.375L7.026,28.433,0,29.424.049,2.612l6.83-.965-.006,3c.22-.306.484-.663.8-1.083a10,10,0,0,1,3.6-2.825A8.494,8.494,0,0,1,13.6.085Z" transform="translate(14.884 3.734)" fill="none" stroke="#161615" stroke-linejoin="round" stroke-miterlimit="10" stroke-width="1.05"/>
      <path id="Stroke_80" data-name="Stroke 80" d="M5.772,4.118,0,.965,6.83,0,12.6,3.155Z" transform="translate(9.161 2.228)" fill="none" stroke="#161615" stroke-linejoin="round" stroke-miterlimit="10" stroke-width="1.05"/>
    </g>
    <path id="Stroke_83" data-name="Stroke 83" d="M6.929,0,6.88,26.813,0,27.784.049.971Z" transform="translate(6.456 16.364)" fill="none" stroke="#161615" stroke-linejoin="round" stroke-miterlimit="10" stroke-width="1.05"/>
    <g id="Group_92" data-name="Group 92" transform="translate(0 0.032)">
      <path id="Stroke_84" data-name="Stroke 84" d="M5.772,29.966,0,26.813.049,0,5.821,3.153Z" transform="translate(0.683 14.15)" fill="none" stroke="#161615" stroke-linejoin="round" stroke-miterlimit="10" stroke-width="1.05"/>
      <path id="Stroke_86" data-name="Stroke 86" d="M5.772,4.125,0,.971,6.88,0l5.772,3.153Z" transform="translate(0.732 13.178)" fill="none" stroke="#161615" stroke-linejoin="round" stroke-miterlimit="10" stroke-width="1.05"/>
      <path id="Stroke_88" data-name="Stroke 88" d="M3.446.032A3.038,3.038,0,0,1,6.882,3.266,4.268,4.268,0,0,1,3.433,7.461,3.032,3.032,0,0,1,0,4.236,4.284,4.284,0,0,1,3.446.032Z" transform="translate(6.526 4.036)" fill="none" stroke="#161615" stroke-linejoin="round" stroke-miterlimit="10" stroke-width="1.05"/>
      <path id="Stroke_90" data-name="Stroke 90" d="M9.956,3.173a2.834,2.834,0,0,1,.367.056c.061.014.121.031.181.047a3.181,3.181,0,0,1,.349.13c.07.031.142.057.209.094L5.288.346c-.035-.02-.07-.038-.106-.054s-.07-.024-.1-.039a2.79,2.79,0,0,0-.352-.13C4.7.113,4.67.1,4.639.089S4.579.082,4.55.075A3.165,3.165,0,0,0,4.182.019C4.125.014,4.071.006,4.012,0a3.109,3.109,0,0,0-.566.027,3.4,3.4,0,0,0-.621.155c-.058.021-.115.045-.174.067S2.512.3,2.444.331,2.322.4,2.259.44c-.086.045-.168.091-.25.144-.04.027-.085.045-.125.073C1.786.723,1.7.8,1.606.877,1.572.9,1.535.93,1.5.959a.369.369,0,0,0-.036.029,4.464,4.464,0,0,0-.352.356c-.022.025-.04.052-.06.077-.035.039-.064.081-.1.123-.051.064-.106.127-.154.2s-.1.158-.145.237c-.031.049-.061.095-.09.145C.555,2.148.538,2.17.524,2.2a4.031,4.031,0,0,0-.2.454c-.014.038-.035.073-.05.112a.164.164,0,0,0-.007.015,4.631,4.631,0,0,0-.125.458c-.019.084-.051.163-.067.247A4.091,4.091,0,0,0,0,4.233,3.214,3.214,0,0,0,1.59,7.14l5.774,3.153A3.212,3.212,0,0,1,5.772,7.387a4.378,4.378,0,0,1,.071-.752c.015-.081.046-.158.065-.237a4.674,4.674,0,0,1,.135-.483c.014-.038.035-.073.05-.11a4.575,4.575,0,0,1,.247-.529c.029-.049.06-.1.09-.144a4.311,4.311,0,0,1,.3-.435c.032-.04.063-.082.1-.121a4.256,4.256,0,0,1,.448-.462c.033-.029.07-.054.1-.082a3.966,3.966,0,0,1,.4-.293c.081-.052.165-.1.249-.145A3.757,3.757,0,0,1,8.425,3.4c.057-.024.114-.047.172-.067a3.42,3.42,0,0,1,.623-.156,3.215,3.215,0,0,1,.564-.025C9.843,3.159,9.9,3.167,9.956,3.173Z" transform="translate(0.752 0.887)" fill="none" stroke="#161615" stroke-linejoin="round" stroke-miterlimit="10" stroke-width="1.05"/>
    </g>
  </g>
</svg>
