<svg xmlns="http://www.w3.org/2000/svg" xmlns:xlink="http://www.w3.org/1999/xlink" width="57" height="57" viewBox="0 0 57 57">
  <defs>
    <linearGradient id="linear-gradient" x1="0.5" y1="1" x2="0.5" gradientUnits="objectBoundingBox">
      <stop offset="0" stop-color="#f3f6f9"/>
      <stop offset="1" stop-color="#fff"/>
    </linearGradient>
    <clipPath id="clip-path">
      <path id="Oval_3" data-name="Oval 3" d="M26.5,0A26.5,26.5,0,1,1,0,26.5,26.5,26.5,0,0,1,26.5,0Z" stroke="#707070" stroke-miterlimit="10" stroke-width="2" fill="url(#linear-gradient)"/>
    </clipPath>
  </defs>
  <g id="Group_53_Copy" data-name="Group 53 Copy" transform="translate(2 2)">
    <g id="Oval_3-2" data-name="Oval 3" stroke-miterlimit="10" fill="url(#linear-gradient)">
      <path d="M 26.5 54 C 22.7879695892334 54 19.18643951416016 53.27276992797852 15.79545021057129 51.8385009765625 C 12.52066040039063 50.4533805847168 9.579799652099609 48.47066116333008 7.054570198059082 45.94543075561523 C 4.529339790344238 43.42020034790039 2.546619892120361 40.47933959960938 1.161499977111816 37.20455169677734 C -0.2727699875831604 33.81356048583984 -1 30.2120304107666 -1 26.5 C -1 22.7879695892334 -0.2727699875831604 19.18643951416016 1.161499977111816 15.79545021057129 C 2.546619892120361 12.52066040039063 4.529339790344238 9.579799652099609 7.054570198059082 7.054570198059082 C 9.579799652099609 4.529339790344238 12.52066040039063 2.546619892120361 15.79545021057129 1.161499977111816 C 19.18643951416016 -0.2727699875831604 22.7879695892334 -1 26.5 -1 C 30.2120304107666 -1 33.81356048583984 -0.2727699875831604 37.20455169677734 1.161499977111816 C 40.47933959960938 2.546619892120361 43.42020034790039 4.529339790344238 45.94543075561523 7.054570198059082 C 48.47066116333008 9.579799652099609 50.4533805847168 12.52066040039063 51.8385009765625 15.79545021057129 C 53.27276992797852 19.18643951416016 54 22.7879695892334 54 26.5 C 54 30.2120304107666 53.27276992797852 33.81356048583984 51.8385009765625 37.20455169677734 C 50.4533805847168 40.47933959960938 48.47066116333008 43.42020034790039 45.94543075561523 45.94543075561523 C 43.42020034790039 48.47066116333008 40.47933959960938 50.4533805847168 37.20455169677734 51.8385009765625 C 33.81356048583984 53.27276992797852 30.2120304107666 54 26.5 54 Z" stroke="none"/>
      <path d="M 26.5 0 C 11.86445999145508 0 0 11.86445999145508 0 26.5 C 0 41.13554000854492 11.86445999145508 53 26.5 53 C 41.13554000854492 53 53 41.13554000854492 53 26.5 C 53 11.86445999145508 41.13554000854492 0 26.5 0 M 26.5 -2 C 30.34658813476563 -2 34.07918548583984 -1.246189117431641 37.59409332275391 0.2404937744140625 C 40.98809432983398 1.676036834716797 44.03580093383789 3.730716705322266 46.65254211425781 6.347457885742188 C 49.26928329467773 8.964199066162109 51.3239631652832 12.01190567016602 52.75950622558594 15.40590667724609 C 54.24618911743164 18.92081069946289 55 22.65341186523438 55 26.5 C 55 30.34658813476563 54.24618911743164 34.07918548583984 52.75950622558594 37.59409332275391 C 51.3239631652832 40.98809432983398 49.26928329467773 44.03580093383789 46.65254211425781 46.65254211425781 C 44.03580093383789 49.26928329467773 40.98809432983398 51.3239631652832 37.59409332275391 52.75950622558594 C 34.07918548583984 54.24618911743164 30.34658813476563 55 26.5 55 C 22.65341186523438 55 18.92081069946289 54.24618911743164 15.40590667724609 52.75950622558594 C 12.01190567016602 51.3239631652832 8.964199066162109 49.26928329467773 6.347457885742188 46.65254211425781 C 3.730716705322266 44.03580093383789 1.676036834716797 40.98809432983398 0.2404937744140625 37.59409332275391 C -1.246189117431641 34.07918548583984 -2 30.34658813476563 -2 26.5 C -2 22.65341186523438 -1.246189117431641 18.92081069946289 0.2404937744140625 15.40590667724609 C 1.676036834716797 12.01190567016602 3.730716705322266 8.964199066162109 6.347457885742188 6.347457885742188 C 8.964199066162109 3.730716705322266 12.01190567016602 1.676036834716797 15.40590667724609 0.2404937744140625 C 18.92081069946289 -1.246189117431641 22.65341186523438 -2 26.5 -2 Z" stroke="none" fill="#707070"/>
    </g>
    <g id="Group_53_Copy-2" data-name="Group 53 Copy" clip-path="url(#clip-path)">
      <g id="Group_4" data-name="Group 4" transform="translate(-24 57)">
        <path id="Fill_1" data-name="Fill 1" d="M0-58.737H100.689V0H0Z" transform="translate(0 -1)" fill="#fff"/>
        <path id="Fill_2" data-name="Fill 2" d="M0-39.162H100.689V0H0Z" transform="translate(0 -0.997)" fill="#4a90e2"/>
        <path id="Fill_3" data-name="Fill 3" d="M0-19.584H100.689V0H0Z" transform="translate(0 -0.997)" fill="#d8220f"/>
      </g>
    </g>
  </g>
</svg>
