<svg xmlns="http://www.w3.org/2000/svg" xmlns:xlink="http://www.w3.org/1999/xlink" width="57" height="57" viewBox="0 0 57 57">
  <defs>
    <linearGradient id="linear-gradient" x1="0.5" y1="1" x2="0.5" gradientUnits="objectBoundingBox">
      <stop offset="0" stop-color="#f3f6f9"/>
      <stop offset="1" stop-color="#fff"/>
    </linearGradient>
    <clipPath id="clip-path">
      <path id="Oval_3" data-name="Oval 3" d="M26.5,0A26.5,26.5,0,1,1,0,26.5,26.5,26.5,0,0,1,26.5,0Z" stroke="#707070" stroke-miterlimit="10" stroke-width="5" fill="url(#linear-gradient)"/>
    </clipPath>
  </defs>
  <g id="Group_53_Copy_2" data-name="Group 53 Copy 2" transform="translate(2 2)">
    <g id="Oval_3-2" data-name="Oval 3" stroke-miterlimit="10" fill="url(#linear-gradient)">
      <path d="M 26.5 54 C 22.7879695892334 54 19.18643951416016 53.27276992797852 15.79545021057129 51.8385009765625 C 12.52066040039063 50.4533805847168 9.579799652099609 48.47066116333008 7.054570198059082 45.94543075561523 C 4.529339790344238 43.42020034790039 2.546619892120361 40.47933959960938 1.161499977111816 37.20455169677734 C -0.2727699875831604 33.81356048583984 -1 30.2120304107666 -1 26.5 C -1 22.7879695892334 -0.2727699875831604 19.18643951416016 1.161499977111816 15.79545021057129 C 2.546619892120361 12.52066040039063 4.529339790344238 9.579799652099609 7.054570198059082 7.054570198059082 C 9.579799652099609 4.529339790344238 12.52066040039063 2.546619892120361 15.79545021057129 1.161499977111816 C 19.18643951416016 -0.2727699875831604 22.7879695892334 -1 26.5 -1 C 30.2120304107666 -1 33.81356048583984 -0.2727699875831604 37.20455169677734 1.161499977111816 C 40.47933959960938 2.546619892120361 43.42020034790039 4.529339790344238 45.94543075561523 7.054570198059082 C 48.47066116333008 9.579799652099609 50.4533805847168 12.52066040039063 51.8385009765625 15.79545021057129 C 53.27276992797852 19.18643951416016 54 22.7879695892334 54 26.5 C 54 30.2120304107666 53.27276992797852 33.81356048583984 51.8385009765625 37.20455169677734 C 50.4533805847168 40.47933959960938 48.47066116333008 43.42020034790039 45.94543075561523 45.94543075561523 C 43.42020034790039 48.47066116333008 40.47933959960938 50.4533805847168 37.20455169677734 51.8385009765625 C 33.81356048583984 53.27276992797852 30.2120304107666 54 26.5 54 Z" stroke="none"/>
      <path d="M 26.5 0 C 11.86445999145508 0 0 11.86445999145508 0 26.5 C 0 41.13554000854492 11.86445999145508 53 26.5 53 C 41.13554000854492 53 53 41.13554000854492 53 26.5 C 53 11.86445999145508 41.13554000854492 0 26.5 0 M 26.5 -2 C 30.34658813476563 -2 34.07918548583984 -1.246189117431641 37.59409332275391 0.2404937744140625 C 40.98809432983398 1.676036834716797 44.03580093383789 3.730716705322266 46.65254211425781 6.347457885742188 C 49.26928329467773 8.964199066162109 51.3239631652832 12.01190567016602 52.75950622558594 15.40590667724609 C 54.24618911743164 18.92081069946289 55 22.65341186523438 55 26.5 C 55 30.34658813476563 54.24618911743164 34.07918548583984 52.75950622558594 37.59409332275391 C 51.3239631652832 40.98809432983398 49.26928329467773 44.03580093383789 46.65254211425781 46.65254211425781 C 44.03580093383789 49.26928329467773 40.98809432983398 51.3239631652832 37.59409332275391 52.75950622558594 C 34.07918548583984 54.24618911743164 30.34658813476563 55 26.5 55 C 22.65341186523438 55 18.92081069946289 54.24618911743164 15.40590667724609 52.75950622558594 C 12.01190567016602 51.3239631652832 8.964199066162109 49.26928329467773 6.347457885742188 46.65254211425781 C 3.730716705322266 44.03580093383789 1.676036834716797 40.98809432983398 0.2404937744140625 37.59409332275391 C -1.246189117431641 34.07918548583984 -2 30.34658813476563 -2 26.5 C -2 22.65341186523438 -1.246189117431641 18.92081069946289 0.2404937744140625 15.40590667724609 C 1.676036834716797 12.01190567016602 3.730716705322266 8.964199066162109 6.347457885742188 6.347457885742188 C 8.964199066162109 3.730716705322266 12.01190567016602 1.676036834716797 15.40590667724609 0.2404937744140625 C 18.92081069946289 -1.246189117431641 22.65341186523438 -2 26.5 -2 Z" stroke="none" fill="#707070"/>
    </g>
    <g id="Group_53_Copy_2-2" data-name="Group 53 Copy 2" clip-path="url(#clip-path)">
      <g id="Group_18" data-name="Group 18" transform="translate(0 -1)">
        <path id="Fill_1" data-name="Fill 1" d="M0,29.4H80.751V0H0Z" fill="#da1841"/>
        <path id="Fill_2" data-name="Fill 2" d="M0,29.4H80.751V0H0Z" transform="translate(0 29.404)" fill="#fff"/>
        <g id="Group_17" data-name="Group 17" transform="translate(4.812 7.391)">
          <path id="Fill_3" data-name="Fill 3" d="M17.713,8.795A8.856,8.856,0,1,1,8.856,0a8.828,8.828,0,0,1,8.856,8.795" transform="translate(1.707 1.512)" fill="#fff"/>
          <path id="Fill_5" data-name="Fill 5" d="M16.741,8.309A8.37,8.37,0,1,1,8.37,0a8.335,8.335,0,0,1,8.37,8.309" transform="translate(5.463 1.997)" fill="#da1841"/>
          <path id="Fill_7" data-name="Fill 7" d="M3.149,3.864l-1.2-.915L.741,3.864,1.205,2.39,0,1.475l1.492.01L1.949,0l.46,1.484L3.9,1.475,2.687,2.39Z" transform="translate(8.509 6.656)" fill="#fff"/>
          <path id="Fill_9" data-name="Fill 9" d="M3.154,3.864,1.949,2.949l-1.2.915L1.21,2.39,0,1.475l1.494.01L1.949,0l.457,1.484L3.9,1.475,2.692,2.39Z" transform="translate(17.947 6.656)" fill="#fff"/>
          <path id="Fill_11" data-name="Fill 11" d="M3.149,3.874l-1.2-.925-1.2.925L1.205,2.39,0,1.484H1.492L1.949,0l.46,1.484L3.9,1.475,2.692,2.39Z" transform="translate(13.232 3.174)" fill="#fff"/>
          <path id="Fill_13" data-name="Fill 13" d="M3.154,3.874,1.946,2.959l-1.2.915L1.208,2.39,0,1.484H1.492L1.946,0,2.4,1.484H3.9L2.69,2.39Z" transform="translate(10.274 12.22)" fill="#fff"/>
          <path id="Fill_15" data-name="Fill 15" d="M3.149,3.874,1.942,2.959l-1.2.915L1.205,2.39,0,1.484H1.492L1.942,0,2.4,1.484H3.89L2.685,2.39Z" transform="translate(16.185 12.22)" fill="#fff"/>
        </g>
      </g>
    </g>
  </g>
</svg>
