<svg xmlns="http://www.w3.org/2000/svg" xmlns:xlink="http://www.w3.org/1999/xlink" width="503.462" height="508.342" viewBox="0 0 503.462 508.342">
  <defs>
    <linearGradient id="linear-gradient" x1="0.478" y1="0.205" x2="0.478" y2="1.013" gradientUnits="objectBoundingBox">
      <stop offset="0" stop-color="#fff5aa"/>
      <stop offset="1" stop-color="#ffc878" stop-opacity="0"/>
    </linearGradient>
    <linearGradient id="linear-gradient-2" x1="0.5" x2="0.5" y2="1" gradientUnits="objectBoundingBox">
      <stop offset="0" stop-color="#ffc532"/>
      <stop offset="1" stop-color="#ff851f"/>
    </linearGradient>
    <linearGradient id="linear-gradient-5" x1="0.5" y1="0.038" x2="0.5" y2="1" gradientUnits="objectBoundingBox">
      <stop offset="0" stop-color="#50d3ff"/>
      <stop offset="1" stop-color="#67f5af"/>
    </linearGradient>
    <linearGradient id="linear-gradient-8" x1="0.5" x2="0.5" y2="0.998" gradientUnits="objectBoundingBox">
      <stop offset="0" stop-color="#1d36a0"/>
      <stop offset="1" stop-color="#0e0e55"/>
    </linearGradient>
  </defs>
  <g id="more" transform="translate(-594 92.5)">
    <g id="Oval">
      <path id="Oval-2" data-name="Oval" d="M-178.7,412.456c-116.142-11.83-212.273-97.076-254.395-205.735S-316.626,5.5-202.4.2,0,96.561,0,212.361-62.556,424.286-178.7,412.456Z" transform="translate(1082.769 -92.5)" fill="none"/>
      <path id="Oval-3" data-name="Oval" d="M-178.7,412.456c-116.142-11.83-212.273-97.076-254.395-205.735S-316.626,5.5-202.4.2,0,96.561,0,212.361-62.556,424.286-178.7,412.456Z" transform="translate(1082.769 -92.5)" fill="url(#linear-gradient)"/>
    </g>
    <g id="Image" transform="translate(594 -28)">
      <g id="image-2" data-name="image">
        <path id="Fill_1" data-name="Fill 1" d="M.77,0c.084-.049.607.643,1.381,2A35.229,35.229,0,0,1,4.8,8.082,55.313,55.313,0,0,1,7.109,29.737,108.7,108.7,0,0,1,2.936,51.086C1.379,56.419.234,59.656.037,59.6c-.218-.06.555-3.409,1.832-8.794A141.621,141.621,0,0,0,5.553,29.619,61.417,61.417,0,0,0,3.742,8.406C2.257,3.123.525.13.77,0" transform="translate(400.765 384.24)" fill="#fff"/>
        <path id="Fill_3" data-name="Fill 3" d="M.014,0A16.945,16.945,0,0,1,1.8,3.255C2.857,5.393,4.341,8.508,6.1,12.4A208.623,208.623,0,0,1,17.661,43.688a118.962,118.962,0,0,1,3.386,18.107,89.616,89.616,0,0,1,.35,15.045,68.144,68.144,0,0,1-1.342,10.05,15.046,15.046,0,0,1-1.014,3.58c-.288-.056.984-5.206,1.254-13.68a113.753,113.753,0,0,0-4.142-32.7A257.674,257.674,0,0,0,5.083,12.832C3.463,8.894,2.153,5.706,1.246,3.5A17.058,17.058,0,0,1,.014,0" transform="translate(406.777 341.547)" fill="#fff"/>
        <path id="Fill_5" data-name="Fill 5" d="M13.511.008c.18.194-1.588,1.881-3.883,5.013-.57.787-1.188,1.647-1.767,2.63-.633.947-1.184,2.033-1.8,3.155a47.473,47.473,0,0,0-3.056,7.714,47.462,47.462,0,0,0-1.514,8.158c-.076,1.275-.187,2.489-.156,3.626-.032,1.141.034,2.2.1,3.17.278,3.873.88,6.242.623,6.311-.156.053-1.145-2.235-1.72-6.2a27.626,27.626,0,0,1-.294-3.255,36.879,36.879,0,0,1,.015-3.759,41.945,41.945,0,0,1,1.45-8.484,41.829,41.829,0,0,1,3.285-7.956A36.009,36.009,0,0,1,6.779,6.942a27.376,27.376,0,0,1,1.98-2.6c2.594-3.051,4.65-4.461,4.752-4.333" transform="translate(198.78 307.746)" fill="#fff"/>
        <path id="Fill_7" data-name="Fill 7" d="M8.265.032c.131.209-.855.963-2.142,2.4a19.435,19.435,0,0,0-2.014,2.7A20.988,20.988,0,0,0,2.355,8.852a20.832,20.832,0,0,0-.906,4,19.285,19.285,0,0,0-.082,3.371c.125,1.928.437,3.13.2,3.214-.167.07-.868-1.03-1.3-3.068a14.463,14.463,0,0,1-.258-3.639A17.415,17.415,0,0,1,.881,8.343,17.433,17.433,0,0,1,2.908,4.353,14.4,14.4,0,0,1,5.352,1.647C6.946.305,8.176-.128,8.265.032" transform="translate(208.177 321.391)" fill="#fff"/>
        <path id="Fill_9" data-name="Fill 9" d="M.012,0c.081-.07.779.616,1.976,1.927A30.059,30.059,0,0,1,4.076,4.4c.768,1,1.692,2.106,2.56,3.438q.671.986,1.405,2.063c.484.722.922,1.512,1.41,2.31,1,1.585,1.895,3.374,2.868,5.241a86,86,0,0,1,5,12.741,86.1,86.1,0,0,1,2.73,13.412c.2,2.1.417,4.086.439,5.958.024.935.085,1.837.072,2.707s-.04,1.7-.058,2.494c0,1.592-.178,3.022-.28,4.279a30.081,30.081,0,0,1-.41,3.207,9.4,9.4,0,0,1-.612,2.693c-.275-.036.243-3.918.2-10.19q-.022-1.177-.043-2.46c-.018-.855-.109-1.743-.16-2.661-.077-1.84-.343-3.792-.573-5.848a96.03,96.03,0,0,0-2.8-13.148,96.038,96.038,0,0,0-4.795-12.56c-.923-1.851-1.762-3.633-2.7-5.22-.457-.8-.864-1.593-1.312-2.321s-.887-1.423-1.3-2.088C2.345,3.161-.2.185.012,0" transform="translate(158.806 180.048)" fill="#fff"/>
        <path id="Fill_11" data-name="Fill 11" d="M.017.006c.133-.118,1.924,1.558,4.2,4.788a46.249,46.249,0,0,1,3.53,5.971,53.4,53.4,0,0,1,3.1,7.919,53.455,53.455,0,0,1,1.7,8.334,46.249,46.249,0,0,1,.279,6.931c-.158,3.949-.751,6.329-.926,6.3-.251-.031-.05-2.441-.177-6.3a61.818,61.818,0,0,0-.6-6.743,64.587,64.587,0,0,0-1.77-8.079,64.474,64.474,0,0,0-2.9-7.744A61.883,61.883,0,0,0,3.293,5.393C1.3,2.082-.176.168.017.006" transform="translate(176.462 187.355)" fill="#fff"/>
        <path id="Fill_13" data-name="Fill 13" d="M39.153,2.772,37.8,0,0,28.882,16.489,55.6,54.112,23.872Z" transform="translate(75.485 312.227)" fill="url(#linear-gradient-2)"/>
        <path id="Fill_15" data-name="Fill 15" d="M0,0,14.485,25.054l.926-.413L2.512,1.215Z" transform="translate(77.069 341.727)" fill="#d7d4d4"/>
        <path id="Fill_17" data-name="Fill 17" d="M36.823,0,0,27.276a1.646,1.646,0,0,0,1.068.947,2.963,2.963,0,0,0,1.444.269l38.713-26.5A11.682,11.682,0,0,1,38.184.87,9.132,9.132,0,0,0,36.823,0" transform="translate(77.069 314.451)" fill="url(#linear-gradient-2)"/>
        <path id="Fill_19" data-name="Fill 19" d="M40.351,0,0,26.955,13.105,51.8l2.111,3.44L55.568,25.367s-4.25-6.344-6.8-10.175S41.205,2.329,40.933,1.749A13.8,13.8,0,0,1,40.351,0" transform="translate(78.889 315.374)" fill="url(#linear-gradient-2)"/>
        <path id="Fill_21" data-name="Fill 21" d="M12.561,2.329,13.7,0,45.439,24.253,31.593,46.688,0,20.046Z" transform="translate(439.439 126.95)" fill="#775298"/>
        <path id="Fill_23" data-name="Fill 23" d="M12.942,0,.779,21.038,0,20.692,10.833,1.021Z" transform="translate(470.607 151.722)" fill="#d7d4d4"/>
        <path id="Fill_25" data-name="Fill 25" d="M3.7,0,34.618,22.9a1.385,1.385,0,0,1-.9.795,2.492,2.492,0,0,1-1.213.226L0,1.673A9.768,9.768,0,0,0,2.554.73,7.654,7.654,0,0,1,3.7,0" transform="translate(448.931 128.817)" fill="#f5f3f3"/>
        <path id="Fill_27" data-name="Fill 27" d="M12.779,0,46.663,22.634l-11,20.86-1.773,2.888L0,21.3s3.57-5.328,5.712-8.544,6.35-10.8,6.578-11.288A11.607,11.607,0,0,0,12.779,0" transform="translate(435.357 129.594)" fill="url(#linear-gradient-5)"/>
        <path id="Fill_29" data-name="Fill 29" d="M1.534,0a3.635,3.635,0,0,0-1.2,4.424c1.2,2.766,6.452,10.969,13.549,10.692C14.175,15.106,4.944,0,4.944,0Z" transform="translate(67.981 85.626)" fill="#ff7b5b"/>
        <path id="Fill_31" data-name="Fill 31" d="M34.3,6.679S25.426-1.25,22.585.17C19.114,1.906-.754,21.375.022,30.548.341,34.3,4.714,31.086,12.505,23a17.429,17.429,0,0,1,17.607-4.618Z" transform="translate(24.357 230.184)" fill="url(#linear-gradient-5)"/>
        <path id="Fill_33" data-name="Fill 33" d="M34.6,6.428,23.892,0S-3.878,26.038.46,29.51c3.291,2.633,5.225.271,13.018-7.812s17.664-3.434,17.664-3.434Z" transform="translate(45.615 243.807)" fill="url(#linear-gradient-5)"/>
        <path id="Fill_35" data-name="Fill 35" d="M42.588,0,44.6,28.532,0,16.913Z" transform="translate(103.075 164.571)" fill="#f3a683"/>
        <path id="Fill_37" data-name="Fill 37" d="M5.745,0s39.01,2.459,44.2.725c0,0,7.624,74.9-5.941,82.985S0,79.958,0,79.958L8.22,63.794l17.722-1.155V33.774l-1.271.288Z" transform="translate(97.33 182.465)" fill="url(#linear-gradient-8)"/>
        <path id="Fill_39" data-name="Fill 39" d="M7.27,51.093S-2.543,55.135.632,64.949c0,0,33.494,26.267,49.793,20.2,9.131-3.4,18.94-29.305,25.8-51.442L100.374.725s-11.389.57-15.188.555C77.925,1.253,56.17,0,56.17,0S44.806,59.465,40.757,60.908,7.27,51.093,7.27,51.093" transform="translate(46.906 182.465)" fill="url(#linear-gradient-8)"/>
        <path id="Fill_41" data-name="Fill 41" d="M0,83.717S23.379,61.778,27.419,56s12.7-25.113,23.377-33.2L45.6,11.84s3.176-1.731,5.194,2.886c0,0,7.5-15.009,9.235-14.721s-3.462,11.547-3.462,11.547,7.217-10.393,9.237-10.1-5.2,11.682-5.2,11.682,8.08-9.373,9.235-8.218S63.5,13.13,63.5,13.13s8.081-4.64,8.947-3.111-8.081,5.572-8.081,5.572-.866,6.639-6.349,9.525c0,0-10.858,29.338-20.671,38.864L5.819,96.748Z" transform="translate(112.166 24.167)" fill="#ffc6b2"/>
        <path id="Fill_43" data-name="Fill 43" d="M84.258,0S62.106,23.176,56.3,27.162,31.069,39.629,22.889,50.232l-10.919-5.3s-1.761,3.158,2.838,5.221c0,0-15.078,7.365-14.8,9.1S11.58,55.9,11.58,55.9,1.122,63.02,1.392,65.042,13.12,59.955,13.12,59.955s-9.447,7.994-8.3,9.158,8.276-6.271,8.276-6.271S8.379,70.88,9.9,71.76s5.645-8.03,5.645-8.03,6.645-.8,9.584-6.26c0,0,27.785-11.057,37.4-20.782l34.576-24.5Z" transform="translate(0 119.254)" fill="#ffc6b2"/>
        <path id="Fill_45" data-name="Fill 45" d="M11.2,7.474,0,18.443,2.841,30.809s11.038,26.5,12.707,32.969c2.594,10.054-1.6,25.384-1.6,25.384s18.713-1.554,35.74-2.131,22.6-6.064,22.6-6.064S57.52,31.793,47.327,18.047,33.426,0,33.426,0L18.419,3.281Z" transform="translate(81.359 102.543)" fill="#fff"/>
        <path id="Fill_47" data-name="Fill 47" d="M17.129,24.88,28.8,17.42S30.586,9.428,16.508,0L0,10.346Z" transform="translate(108.315 94.089)" fill="#fff"/>
        <path id="Fill_49" data-name="Fill 49" d="M19.4.233C13,1.131,1.3,17.354,0,17.323c0,0,8.231,13.434,14.751,13.87,0,0,28.693-34.333,4.648-30.96" transform="translate(64.32 119.886)" fill="#fff"/>
        <path id="Fill_51" data-name="Fill 51" d="M35.627,36.405s-9.3-6.951-8.98-9.723c.082-.7,1.371-1.831,1.706-2.837,1.8-5.412-6.893-19.357-12.236-22.3C11.914-.762,13.756-.966,4.91,4.291S1.1,18.64,5.054,23.343c3.735,4.445,8.012,6.349,11.86,6.67l5.471,12.155Z" transform="translate(70.684 73.158)" fill="#ffc6b2"/>
        <path id="Fill_53" data-name="Fill 53" d="M.47,13.272C-1.289,8.956,2.042,3.519,7.912,1.125S19.967.287,21.73,4.6s-4.149,10.8-7.446,12.148S2.228,17.586.47,13.272" transform="translate(89.056 105.941)" fill="#ffc6b2"/>
        <path id="Fill_55" data-name="Fill 55" d="M3.366,0S.349-.164.014,1.847s5.53,2.012,7.71.5Z" transform="translate(72.373 96.497)" fill="#ffc6b2"/>
        <path id="Fill_57" data-name="Fill 57" d="M12.349,34.062C11.776,30.428,7.9,27.726,8.1,24.185c1.856.015,3.048-2.284,2.2-4.249-.333-.772-.9-1.433-1.255-2.195s-.454-1.757.1-2.188a1.813,1.813,0,0,1,.952-.272c2.752-.283,7.466.543,10-.4,2.411-.893,4.995-2.632,4.744-5.586-.219-2.573-2.49-4.658-4.577-6.234-1.2-.9-4.611-3.266-5.9-3.052-1.967.327-2.444,2.952-2.586,5.149a3.416,3.416,0,0,0-4.6-.034A9.644,9.644,0,0,0,4.888,9.523a9.968,9.968,0,0,1-2.256,4.421c-1.1,1.013-2.84,1.779-2.612,3.5.271,2.053,2.952,2.783,4.192,4.533-.305-.429-.564,2.311-.388,2.776.529,1.4,1.849,2.326,2.8,3.4,2.033,2.282,3.027,4.58,5.721,5.912" transform="translate(64.899 64.282)" fill="url(#linear-gradient-2)"/>
        <path id="Fill_59" data-name="Fill 59" d="M6.874,0,0,3.556S8.257,9.55,6.874,0" transform="translate(87.229 90.035)" fill="#fff"/>
        <path id="Fill_61" data-name="Fill 61" d="M3.96.628c.376.713-.18,1.744-1.242,2.3s-2.226.434-2.6-.279S.3.909,1.359.349s2.226-.434,2.6.279" transform="translate(80.685 90.816)" fill="#ffb2a0"/>
        <path id="Fill_63" data-name="Fill 63" d="M3.96.628c.376.713-.18,1.744-1.242,2.3s-2.226.434-2.6-.279S.3.908,1.359.349s2.226-.434,2.6.279" transform="translate(90.723 83.958)" fill="#ffb2a0"/>
        <path id="Fill_65" data-name="Fill 65" d="M4.545,5.742c-.032-.04.1-.209.394-.423a7.336,7.336,0,0,0,1.144-.85c.363-.383.494-1.181-.062-1.293-.578-.2-1.234.467-1.986,1.1l-.553.459a1.223,1.223,0,0,1-.9.339,2.026,2.026,0,0,1-1.284-.9A6.266,6.266,0,0,1,.229,2.1C-.14.82.026-.007.115,0,.238-.006.279.789.748,1.915a6.883,6.883,0,0,0,1.1,1.8c.251.3.566.588.791.6.094,0,.168-.027.345-.176l.546-.459c.379-.307.707-.616,1.141-.9a1.834,1.834,0,0,1,1.56-.28,1.181,1.181,0,0,1,.812,1.286,1.808,1.808,0,0,1-.569,1.08,4.533,4.533,0,0,1-1.392.731c-.327.124-.506.2-.54.157" transform="translate(84.759 84.04)" fill="#ff7b5b"/>
        <path id="Fill_67" data-name="Fill 67" d="M0,1.441S4.385,1.466,6.764,0A10.2,10.2,0,0,1,.724,3.113Z" transform="translate(87.599 101.73)" fill="#ffa192"/>
        <path id="Fill_69" data-name="Fill 69" d="M2.668.323c-.04.217-.653.284-1.3.57C.71,1.158.235,1.552.052,1.43c-.187-.1.123-.882,1.01-1.256S2.726.118,2.668.323" transform="translate(86.833 83.18)" fill="url(#linear-gradient-8)"/>
        <path id="Fill_71" data-name="Fill 71" d="M.049,2.365C-.117,2.243.143,1.537.774.829S2.229-.133,2.316.069,1.909.723,1.35,1.357.228,2.5.049,2.365" transform="translate(80.858 86.775)" fill="url(#linear-gradient-8)"/>
        <path id="Fill_73" data-name="Fill 73" d="M.291,4.094c-.355-.263-.632-1.391.728-2.91C2.391-.369,3.925-.095,4.108.336S3.8,1.363,2.591,2.729C1.368,4.09.676,4.383.291,4.094" transform="translate(77.285 83.957)" fill="#ff7b5b"/>
        <path id="Fill_75" data-name="Fill 75" d="M.059,2.5c-.2-.368.02-1.438,1.789-2.184C3.642-.46,4.837.391,4.82.832s-.679.747-2.254,1.426S.272,2.9.059,2.5" transform="translate(84.735 79.572)" fill="#ff7b5b"/>
        <path id="Fill_77" data-name="Fill 77" d="M45.845.016c.116.115-1.789,2.258-5.742,4.592A34.79,34.79,0,0,1,22.992,9.3,34.791,34.791,0,0,1,5.813,4.862C1.828,2.586-.109.47,0,.353.169.146,2.335,1.93,6.326,3.884A37.75,37.75,0,0,0,22.98,7.744a37.763,37.763,0,0,0,16.6-4.105c3.96-2.013,6.1-3.829,6.268-3.623" transform="translate(416.169 92.701)" fill="#775298"/>
        <path id="Fill_79" data-name="Fill 79" d="M39.911,7.335c-.108.237-2.217-.638-5.77-1.43a61.846,61.846,0,0,0-6.312-1.038c-2.4-.266-5.057-.477-7.861-.677s-5.49-.422-7.928-.724a51.23,51.23,0,0,1-6.434-1.2C1.983,1.323-.07.2,0,.046.1-.193,2.254.544,5.842,1.19c1.79.342,3.95.606,6.356.846,2.411.22,5.074.4,7.882.6s5.5.458,7.936.807a44.8,44.8,0,0,1,6.406,1.4c3.588,1.1,5.57,2.349,5.49,2.5" transform="translate(379.001 82.144)" fill="#775298"/>
        <g id="Group_83" data-name="Group 83" transform="translate(361.687 29.257)">
          <path id="Clip_82" data-name="Clip 82" d="M0,0H141.525V69.349H0Z" transform="translate(0.25 0.075)" fill="none"/>
          <path id="Fill_81" data-name="Fill 81" d="M14.235,14.047c6.736-1.429,13.715-.2,20.506.933s13.844,2.153,20.485.329C67.216,12.018,76.317-.1,88.75,0,93.87.04,98.7,2.227,103.683,3.384c6.193,1.437,12.645,1.283,18.919,2.308s12.757,3.549,16.3,8.827c4.207,6.263,3.054,15.1-1.361,21.218s-11.484,9.846-18.727,11.958c-5.052,1.472-10.435,2.324-14.808,5.254-4.422,2.964-7.31,7.735-11.431,11.106-10.34,8.457-26.432,6.033-37.112-1.989-2.683-2.015-5.171-4.354-8.185-5.829-12.263-6-29.9,1.944-40.461-8.979-10.725-11.093-9.2-29.687,7.416-33.211" transform="translate(0.25 0.075)" fill="url(#linear-gradient-5)"/>
        </g>
        <path id="Fill_84" data-name="Fill 84" d="M0,5.362S11.236,29.447,12.55,24.988s.877-15.173.174-16.7S7.424,0,7.424,0Z" transform="translate(372.807 252.849)" fill="#ffb2a0"/>
        <path id="Fill_86" data-name="Fill 86" d="M2.369,15.14c1.04,1.332.345-.1,1.522,1.822,4.892-.17,8.176-4.311,8.176-4.311s7.765.205,7.676-1.182S12.3,10.6,12.3,10.6s7.781-2.444,7.355-3.665S10.246,9.6,10.246,9.6s9.065-5.628,7.726-6.53S7.911,7.086,7.911,7.086,15.491.859,14.355.056s-11.649,7.3-11.649,7.3C2.859,3.371,0,3.511,0,3.511l.118,9.735A17.3,17.3,0,0,1,2.369,15.14" transform="translate(451.681 48.307)" fill="#ffc6b2"/>
        <path id="Fill_88" data-name="Fill 88" d="M10.669,19.385c-1.662.307-.373-.271-2.53.387C4.6,16.394,5.066,11.084,5.066,11.084S-.875,6.082.11,5.1,6.256,9.4,6.256,9.4,2.062,2.4,3.19,1.772s5.265,8.245,5.265,8.245S5.41-.211,7.011,0s4.861,9.678,4.861,9.678S10.337-.007,11.716.146s3.866,13.2,3.866,13.2c2.531-3.083,4.576-1.08,4.576-1.08L13.741,19.32a24.606,24.606,0,0,0-3.072.065" transform="translate(328.274 0.001)" fill="#ffc6b2"/>
        <path id="Fill_90" data-name="Fill 90" d="M11.6.025C9.45-.328,4.255,3.125,1.655,8.754A14,14,0,0,0,.869,20.229c.787,2.41,2.433,2.712,2.8,3.792C4.133,25.387,2.6,29.7,2.6,29.7l6.133,2.477c.4-2.96.85-5.938,3.866-7.223a31.342,31.342,0,0,0,3.4-1.4c2.873-1.647,4.408-5.251,5.588-8.2.881-2.2-4.6-14.444-9.985-15.328" transform="translate(367.65 60.026)" fill="#ffc6b2"/>
        <path id="Fill_92" data-name="Fill 92" d="M40.643,4.123,30.368,0S-.127,56.557,0,72.249s41.882,47.108,41.882,47.108l7.042-6.087S36.033,90.788,29.142,82.861s11.5-78.738,11.5-78.738" transform="translate(331.305 139.58)" fill="#ffb2a0"/>
        <path id="Fill_94" data-name="Fill 94" d="M6.39,12.026S29.037,1.279,24.486.33,9.292.687,7.827,1.514,0,7.467,0,7.467Z" transform="translate(416.577 196.105)" fill="#ffc6b2"/>
        <path id="Fill_96" data-name="Fill 96" d="M26.582,0,10.994,5.672S-4.6,74.262,1.355,85.031s22.668,3.644,46.476-9.351L67.773,64.792,61.116,60.36s-23.206,4.548-29.722,9.082c0,0,3.4-9.638,7.936-23.242S46.991,18.707,26.582,0" transform="translate(355.459 143.213)" fill="#ffc6b2"/>
        <path id="Fill_98" data-name="Fill 98" d="M0,7.853C0,3.3,1.467,0,6.023,0S16.878,1.6,16.878,6.156s-3.59,11.96-8.149,11.96S0,12.412,0,7.853" transform="translate(362.855 88.631)" fill="#ffc6b2"/>
        <path id="Fill_100" data-name="Fill 100" d="M31.173,69.756S17,54.421,14.17,39.4,6.519,0,6.519,0L1.134,1.551s-2.552,33.313,0,38.414S16.146,79.033,19.941,87.953Z" transform="translate(335.28 18.222)" fill="#ffc6b2"/>
        <path id="Fill_102" data-name="Fill 102" d="M0,38.75S1.09,33.98,19.007,27.5,70.726,0,70.726,0L74.1,3.859S55.732,25.077,45.047,28.8s-33.38,18.4-35.715,19.57C5.8,50.145,5.844,52.38,0,38.75" transform="translate(381.676 61.18)" fill="#ffc6b2"/>
        <path id="Combined_Shape" data-name="Combined Shape" d="M8.28,71.179c-3.393-5.458-3.4-35.463-3.4-35.463a39.635,39.635,0,0,1,1.332-10.6L0,12.18S1.017,3.213,14.039,0c0,0,1.317,4.52,2.761,6.246,1.387,1.66,5.324,3.421,5.626,3.555l.013,0,0,0,.007,0-.033.037c-.5.764-7.539,11.731-4.541,13.4,15.98,8.874,11.563-11.768,11.563-11.768l1.525.294q.12-.019.259-.031c2.277-.19,19.872-1.253,19.872-1.253,9.3,9.667,5.377,17.794,5.377,17.794L46.183,30.385,34.861,64.377s-6.979,5.32-14.189,6.8a31.208,31.208,0,0,1-6.269.628A27.135,27.135,0,0,1,8.28,71.179Z" transform="translate(347.179 78.836)" fill="url(#linear-gradient-8)"/>
        <path id="Fill_110" data-name="Fill 110" d="M24.859,4.773S3.525,44.223,0,51.272c0,0,62.942,28.917,88.493-5.89,0,0-14.534-30.767-37-42.48L41.8,0,25.239,4.583" transform="translate(330.564 137.934)" fill="url(#linear-gradient-8)"/>
        <path id="Fill_112" data-name="Fill 112" d="M1.495,1.341S3.925-1.089,5.42.593,0,4.706,0,4.706Z" transform="translate(386.913 73.664)" fill="#ffc6b2"/>
        <path id="Fill_114" data-name="Fill 114" d="M67.8,2.895a8.182,8.182,0,0,1-2.707.916,37.291,37.291,0,0,1-7.736.888,76.63,76.63,0,0,1-11.5-.808c-4.29-.569-8.949-1.4-13.852-1.939a52.832,52.832,0,0,0-13.769.054A30.956,30.956,0,0,0,7.7,5.629,23.534,23.534,0,0,0,1.846,10.37C.661,11.721.128,12.583.008,12.511A7.15,7.15,0,0,1,1.372,9.99a20.934,20.934,0,0,1,5.759-5.3A30.249,30.249,0,0,1,18,.588,50.814,50.814,0,0,1,32.174.4c4.984.544,9.65,1.427,13.89,2.067A90.177,90.177,0,0,0,57.359,3.6c6.467.181,10.381-.967,10.44-.7" transform="translate(365.063 38.96)" fill="#775298"/>
        <path id="Fill_116" data-name="Fill 116" d="M3.05,6.058c-.007.1-.7.162-1.756-.188a2.345,2.345,0,0,1-.857-.476,1.4,1.4,0,0,1-.354-.517A1.166,1.166,0,0,1,.091,4c.034-.051.032-.173.1-.175l.205-.007a1.5,1.5,0,0,1,.439.053,3.444,3.444,0,0,0,.568.059,4.516,4.516,0,0,0,1.07-.108A4.339,4.339,0,0,0,5.378,1.55C5.842.661,5.883-.008,6.007,0c.087-.011.26.7-.124,1.772A4.481,4.481,0,0,1,4.8,3.43,4.528,4.528,0,0,1,2.643,4.579a4.736,4.736,0,0,1-1.272.11,4.9,4.9,0,0,1-.547-.064C.748,4.613.757,4.6.742,4.6A.058.058,0,0,0,.73,4.65a.759.759,0,0,0,.165.287A2,2,0,0,0,1.5,5.36c.914.448,1.562.581,1.545.7" transform="translate(372.982 67.568)" fill="#ff7b5b"/>
        <path id="Fill_118" data-name="Fill 118" d="M0,0,8.309,3.274S1.007,8.31,0,0" transform="translate(370.972 73.888)" fill="#fff"/>
        <path id="Fill_120" data-name="Fill 120" d="M3.113,2.084c-.3.561-1.21.658-2.044.219S-.2,1.054.092.495,1.3-.165,2.137.274s1.271,1.249.976,1.81" transform="translate(379.716 73.38)" fill="#ffb2a0"/>
        <path id="Fill_122" data-name="Fill 122" d="M3.2,1.93c-.252.581-1.157.749-2.022.375S-.187,1.156.065.574,1.222-.175,2.087.2,3.45,1.349,3.2,1.93" transform="translate(370.357 68.616)" fill="#ffb2a0"/>
        <path id="Fill_124" data-name="Fill 124" d="M0,0S2.913,2.44,5.952,1.654c0,0-1.048,1.571-5.081.995A2.877,2.877,0,0,0,0,0" transform="translate(370.478 83.002)" fill="#ffa192"/>
        <path id="Fill_126" data-name="Fill 126" d="M1.317.658A.658.658,0,1,1,.658,0a.659.659,0,0,1,.658.658" transform="translate(380.715 69.586)" fill="url(#linear-gradient-8)"/>
        <path id="Fill_128" data-name="Fill 128" d="M1.316.658A.658.658,0,1,1,.657,0a.659.659,0,0,1,.658.658" transform="translate(375.329 67.645)" fill="url(#linear-gradient-8)"/>
        <path id="Fill_130" data-name="Fill 130" d="M2.363,1.78c-.2.086-.6-.389-1.191-.774C.589.6,0,.424,0,.2c-.019-.211.8-.383,1.605.154s.96,1.359.757,1.423" transform="translate(381.785 66.71)" fill="#775298"/>
        <path id="Fill_132" data-name="Fill 132" d="M0,.441C-.013.236.694-.023,1.64,0,2.6.022,3.316.49,3.217.685S2.455.8,1.61.782.014.665,0,.441" transform="translate(374.652 64.855)" fill="#775298"/>
        <path id="Fill_134" data-name="Fill 134" d="M0,12.492s3.456,12.27,7.025,11.266.885-18.128.885-18.128L4.35,0S7.7,28.665,0,12.492" transform="translate(377.62 255.506)" fill="url(#linear-gradient-8)"/>
        <path id="Fill_136" data-name="Fill 136" d="M0,4.171S2.513,1.428,5.56.971,19.5-.782,21.1.666s-8.828,6.3-8.828,6.3S15.9,4.651,14.4,3.79C11.729,2.266,0,4.171,0,4.171" transform="translate(421.205 195.801)" fill="url(#linear-gradient-8)"/>
        <path id="Fill_138" data-name="Fill 138" d="M0,.93,3.41,7.854,5.27,6.821.723,0Z" transform="translate(416.883 202.327)" fill="url(#linear-gradient-8)"/>
        <path id="Fill_140" data-name="Fill 140" d="M8.37,0,0,7.545,2.48,9.613,9.507,1.964Z" transform="translate(370.382 250.073)" fill="url(#linear-gradient-8)"/>
        <path id="Fill_142" data-name="Fill 142" d="M28.257,73.888c-2.38-5.908-3.3-12.486-6.847-17.773C16.3,48.507,6.481,44.732,2.333,36.558A25.242,25.242,0,0,1,0,25.222c-.034-7.7,2.271-15.89,8.22-20.784,6.835-5.624,17.089-5.546,25.094-1.768s14.118,10.637,19.317,17.8,9.752,14.85,15.807,21.305c4.489,4.786,9.814,8.914,13.2,14.538C90.9,71.73,81.366,91.236,65,96.8,50.618,101.687,33.233,86.24,28.257,73.888" transform="translate(175.498 101.071)" fill="url(#linear-gradient-8)"/>
        <path id="Fill_144" data-name="Fill 144" d="M17.482,3.125c1.423,1.17-.129.36,1.941,1.709-.462,5.174-5.247,8.433-5.247,8.433s-.2,8.237-1.739,8.067-.554-7.931-.554-7.931S8.733,21.516,7.4,21s3.491-9.824,3.491-9.824S4.133,20.48,3.2,19.013,8.224,8.569,8.224,8.569.881,16.269.051,15.022,8.814,3.071,8.814,3.071C4.374,3.022,4.689,0,4.689,0L15.5.641a18.472,18.472,0,0,0,1.98,2.484" transform="translate(165.786 280.561)" fill="#ffc6b2"/>
        <path id="Fill_146" data-name="Fill 146" d="M11.345,20.557c1.85.325.414-.288,2.815.41,3.943-3.583,3.42-9.213,3.42-9.213s6.613-5.3,5.517-6.341-6.84,4.55-6.84,4.55,4.668-7.417,3.412-8.084-5.858,8.743-5.858,8.743S17.2-.224,15.416,0s-5.409,10.263-5.409,10.263S11.715-.007,10.179.156s-4.023,13.62-4.023,13.62C2.535,10.829,0,12.715,0,12.715l7.926,7.772a28.887,28.887,0,0,1,3.419.069" transform="translate(275.225 107.788)" fill="#ffc6b2"/>
        <path id="Fill_148" data-name="Fill 148" d="M10.512.029c3.345-.522,13.547,6.09,10.951,19.517-.217,1.127-1.689,3.609-2.056,4.635-.463,1.3,3.145,6.058,3.145,6.058l-9.316,2.977c-.4-2.814.271-6.928-2.739-8.15A32.259,32.259,0,0,1,7.1,23.738c-2.868-1.567-4.4-4.994-5.578-7.8A16.9,16.9,0,0,1,0,9.312C.062,3.583,5.135.869,10.512.029" transform="translate(230.789 173.299)" fill="#ffc6b2"/>
        <path id="Fill_150" data-name="Fill 150" d="M18.371,6.678c0-4.833-1.532-6.678-6.6-6.678S0,1.845,0,6.678,3.581,17.561,8.655,17.561s9.716-6.049,9.716-10.883" transform="translate(241.585 203.424)" fill="#ffc6b2"/>
        <path id="Fill_152" data-name="Fill 152" d="M0,73.97S15.77,57.708,18.925,41.778,27.441,0,27.441,0l5.994,1.644s2.84,35.326,0,40.736-18.926,42.981-18.611,52.6Z" transform="translate(255.951 127.111)" fill="#ffc6b2"/>
        <path id="Fill_154" data-name="Fill 154" d="M47,0S41.637.9,33.435,19.537,0,72.865,0,72.865l4.1,3.777S28.7,58.309,33.435,47.189,44.159,22.243,47,22.842,61.824,6.912,47,0" transform="translate(180.84 208.955)" fill="#ffc6b2"/>
        <path id="Fill_156" data-name="Fill 156" d="M16.494,33.186l7.343-20.271S22.7,3.408,8.21,0L0,11.831Z" transform="translate(253.567 191.387)" fill="url(#linear-gradient-2)"/>
        <path id="Fill_158" data-name="Fill 158" d="M15.685,0S7.022.73,0,16.155c0,0,7.722,10.663,13.372,11.023,0,0,20.983-17.938,2.313-27.178" transform="translate(214.602 207.4)" fill="url(#linear-gradient-2)"/>
        <path id="Fill_160" data-name="Fill 160" d="M14.909,5.686S2.4,31.226.942,26.5-.036,10.407.748,8.786,6.647,0,6.647,0Z" transform="translate(239.182 384.642)" fill="#ffc6b2"/>
        <path id="Fill_162" data-name="Fill 162" d="M9.218,4.373,20.655,0S54.6,59.976,54.455,76.616,7.839,126.57,7.839,126.57L0,120.114s22.028-32.392,29.7-40.8c3.836-4.2-23.623-24.805-27.782-44.628s7.3-30.315,7.3-30.315" transform="translate(245.828 264.528)" fill="url(#linear-gradient-8)"/>
        <path id="Fill_164" data-name="Fill 164" d="M22.45,8.66S-.943,25.905.03,21.065,6.895,6.335,8.372,5.235,17.838,0,17.838,0Z" transform="translate(163.835 368.288)" fill="#ffc6b2"/>
        <path id="Combined_Shape-2" data-name="Combined Shape" d="M0,111.176S35.368,90.1,46.228,85.976c6.752-2.566,3.573-22.411.2-37.056a97.8,97.8,0,0,1-5.272-18.035C36.291,6.68,61.947,0,61.947,0l6.987,5.8,14.658,1.82L76.177,23.149c.026,19.371-.651,61.859-6.863,73.124C61.193,111,3.866,120.336,3.866,120.336Z" transform="translate(181.672 257.111)" fill="url(#linear-gradient-8)"/>
        <path id="Fill_170" data-name="Fill 170" d="M28.494,0A39.476,39.476,0,0,1,46.837,33.513S44.506,60,40.73,65.785a35.358,35.358,0,0,1-13.793,0c-8.025-1.571-15.792-7.213-15.792-7.213L4.877,26.146,0,7.213l2.644-.872,13.8-1.516S14.457,25.435,29.861,15.2c3.244-2.156-4.039-12.9-4.039-12.9Z" transform="translate(227.457 201.081)" fill="url(#linear-gradient-2)"/>
        <path id="Fill_172" data-name="Fill 172" d="M0,38.464,38.458,60.9,60.092,20.034,24.036,0Z" transform="translate(267.178 74.829)" fill="#fff"/>
        <path id="Fill_174" data-name="Fill 174" d="M20.362,56.7,47.868,39.671,25.143,0,0,16.306Z" transform="translate(300.318 252.226)" fill="#fff"/>
        <path id="Fill_176" data-name="Fill 176" d="M.008,0A10.534,10.534,0,0,1,2.272,2.282a46.723,46.723,0,0,1,4.992,7.2,52.377,52.377,0,0,1,4.955,12.039c1.344,4.7,2.245,9.991,4.311,15.084a33.529,33.529,0,0,0,3.92,6.929,37.621,37.621,0,0,0,5.074,5.437,36.123,36.123,0,0,0,10.856,6.392,34.911,34.911,0,0,0,8.328,1.988,16.814,16.814,0,0,1,3.164.389,10.146,10.146,0,0,1-3.208.217A30.019,30.019,0,0,1,36.017,56.4,35.287,35.287,0,0,1,24.6,50.068a37.5,37.5,0,0,1-5.368-5.616A34.049,34.049,0,0,1,15.087,37.2c-2.152-5.323-3-10.657-4.254-15.3A55.929,55.929,0,0,0,6.3,10.009a61.892,61.892,0,0,0-4.5-7.356A15.984,15.984,0,0,1,.008,0" transform="translate(185.244 139.877)" fill="url(#linear-gradient-8)"/>
        <path id="Fill_178" data-name="Fill 178" d="M.079,0C.362-.043.637,3.743,2.755,9.344A42.108,42.108,0,0,0,7.646,18.56a44.794,44.794,0,0,0,3.9,4.78c1.461,1.588,3.052,3.2,4.556,5.011a71.315,71.315,0,0,1,7.045,11.084,45.189,45.189,0,0,1,4.27,9.859,18.076,18.076,0,0,1,.607,7.258,6.019,6.019,0,0,1-.767,2.556,16.049,16.049,0,0,1,.162-2.61,20.152,20.152,0,0,0-1.06-6.891,49.483,49.483,0,0,0-4.466-9.468A78.462,78.462,0,0,0,14.9,29.347C13.456,27.605,11.887,26,10.417,24.37a43.433,43.433,0,0,1-3.956-5,39.321,39.321,0,0,1-4.745-9.66A34.934,34.934,0,0,1,.133,2.654,7.352,7.352,0,0,1,.079,0" transform="translate(232.422 113.629)" fill="url(#linear-gradient-8)"/>
        <path id="Fill_180" data-name="Fill 180" d="M4.6,5.7c-.015-.109.612-.209,1.2-.9a1.061,1.061,0,0,0,.271-.53A.844.844,0,0,0,5.8,3.722a.8.8,0,0,0-.654-.216c-.277.02-.614.158-1.055.224a2.8,2.8,0,0,1-2.212-.858A7.873,7.873,0,0,1,.689,1.514C.112.664-.067.049.021,0s.45.454,1.1,1.167A11.4,11.4,0,0,0,2.339,2.323a2.247,2.247,0,0,0,1.643.635c.309-.04.669-.184,1.107-.213A1.521,1.521,0,0,1,6.3,3.212a1.439,1.439,0,0,1,.418,1.119,1.5,1.5,0,0,1-.52.851c-.848.742-1.626.621-1.6.52" transform="translate(239.689 182.22)" fill="#ff7b5b"/>
        <path id="Fill_182" data-name="Fill 182" d="M7.386,0,0,2.686S6.267,8.17,7.386,0" transform="translate(241.451 188.563)" fill="#fff"/>
        <path id="Fill_184" data-name="Fill 184" d="M3.113.494c.3.561-.142,1.371-.976,1.81S.387,2.645.092,2.085.234.714,1.068.275,2.818-.067,3.113.494" transform="translate(237.601 187.611)" fill="#ffb2a0"/>
        <path id="Fill_186" data-name="Fill 186" d="M3.216.592c.242.586-.269,1.351-1.14,1.711S.3,2.481.06,1.9.329.545,1.2.185,2.974.007,3.216.592" transform="translate(246.254 183.022)" fill="#ffb2a0"/>
        <path id="Fill_188" data-name="Fill 188" d="M0,.284A13.977,13.977,0,0,0,5.621,0a7.853,7.853,0,0,1-4.09,1.86A4.4,4.4,0,0,0,0,.284" transform="translate(241.669 198.278)" fill="#ffa192"/>
        <path id="Fill_190" data-name="Fill 190" d="M1.084.156A.658.658,0,1,1,.156.232.658.658,0,0,1,1.084.156" transform="translate(243.11 181.8)" fill="url(#linear-gradient-8)"/>
        <path id="Fill_192" data-name="Fill 192" d="M1.084.156A.658.658,0,1,1,.156.232.658.658,0,0,1,1.084.156" transform="translate(238.147 184.656)" fill="url(#linear-gradient-8)"/>
        <path id="Fill_194" data-name="Fill 194" d="M2.769.429C2.7.64,2.087.632,1.41.838c-.683.184-1.2.518-1.37.374C-.134,1.091.268.35,1.2.087S2.852.234,2.769.429" transform="translate(241.454 178.779)" fill="url(#linear-gradient-8)"/>
        <path id="Fill_196" data-name="Fill 196" d="M.049,2.365C-.117,2.242.143,1.536.774.83,1.412.108,2.229-.133,2.315.068s-.406.654-.966,1.289S.228,2.5.049,2.365" transform="translate(235.6 182.023)" fill="url(#linear-gradient-8)"/>
        <path id="Fill_198" data-name="Fill 198" d="M3.644.943S1.275-1.047.138.754,5.255,3.5,5.255,3.5Z" transform="translate(229.219 188.929)" fill="#ffc6b2"/>
        <path id="Fill_200" data-name="Fill 200" d="M12.347,0A22.18,22.18,0,0,0,8.065,2.364C7.179,3.249-.943,17.279.091,19.051S9.27,14.808,9.27,14.808,2.454,16.1,12.347,0" transform="translate(163.553 371.343)" fill="url(#linear-gradient-5)"/>
        <path id="Fill_202" data-name="Fill 202" d="M3.226,0S.814,2.608.441,3.806-.6,21.2,1.143,22.287s6.493-7.849,6.493-7.849S1.952,18.89,3.226.037" transform="translate(238.949 389.896)" fill="url(#linear-gradient-5)"/>
      </g>
    </g>
  </g>
</svg>
